<?xml version="1.0" encoding="UTF-8"?>
<svg id="Layer_2" data-name="Layer 2" xmlns="http://www.w3.org/2000/svg" viewBox="0 0 545.93 767.13">
  <defs>
    <style>
      .cls-1 {
        fill: #fff;
      }

      .cls-2 {
        fill: #ffada8;
      }

      .cls-3 {
        fill: #f54a2f;
      }
    </style>
  </defs>
  <g id="Layer_1-2" data-name="Layer 1">
    <g>
      <path class="cls-2" d="M455.41,387.66c-9.41-43.12-32.42-82.7-65.56-109.99-54.92-58.47-143.89-78.31-214.91-44.88-34.78,16.37-64.56,43.61-85.02,77.48-23.45,38.82-32.61,83.01-29.93,129.09,2.47,42.55,13.15,85.62,34.75,122.13,22.26,37.63,56.46,62.59,97.43,71.65,47.24,10.45,100.34,7.11,146.68-5.43,22.1-5.98,41.77-16.94,57.33-34.69,14.91-17.01,26.12-38.33,36.24-58.8,22.44-45.41,34.14-95.47,22.99-146.55Z"/>
      <path class="cls-3" d="M471.26,53.8c-43.42-3.55-83.36,7.56-124.67,18.76-42.72,11.59-86.08,23.23-126.48,40.33-64.65,27.38-115.42,73.79-142.07,131.21-14.42,31.07-21.2,64.06-19.77,97.07-.51.91-1.03,1.83-1.54,2.74-1.8,3.2,1.24,6.64,5.2,6.35,45.49-3.36,90.93-7.53,136.26-12.62,43.71-4.9,87.77-9.67,130.05-21.45,20.31-5.66,40.13-12.72,59.21-21.09,5.92-2.6,15.25-5.49,19.18-10.64,3.87-5.07,2.31-12.31,2.05-17.89-1.71-37.29-6.43-74.99,1.07-112.28,4.07-20.25,11.14-41.46,28.1-56.97,13.29-12.15,29.56-21.32,37.19-37.19,1.23-2.56-.21-6.03-3.78-6.32Z"/>
      <path class="cls-1" d="M161.5,407.46c6.55-.91,13.11-1.82,19.66-2.73,5.52-.77,9.94-4.57,9.5-9.17-.4-4.25-5.5-8-11.05-7.23-6.55.91-13.11,1.82-19.66,2.73-5.52.77-9.94,4.57-9.5,9.17.4,4.25,5.5,8,11.05,7.23h0Z"/>
      <path class="cls-1" d="M302.15,380.27c6.14-1.76,12.27-3.52,18.41-5.27,5.33-1.53,7.99-7.2,6.16-11.46-1.99-4.63-7.88-6.46-13.22-4.93-6.14,1.76-12.27,3.52-18.41,5.28-5.33,1.53-7.99,7.2-6.16,11.46,1.99,4.63,7.88,6.46,13.22,4.93h0Z"/>
      <path class="cls-1" d="M449.21,701.68c4.11-11.91,2.06-30.42-.07-42.75,30.96-1.83,60.13-22.03,72.73-50.36,12.61-28.33,8.08-63.52-11.28-87.75,20.71-15.51,35.07-40.2,35.33-66.08.26-25.88-14.89-52.01-38.69-62.15,5.1-23.21-6.11-48.06-24.38-63.26-12.99-10.81-36.64-23.25-54.24-21.8-10.13.83-8.37,6.1-11.11,15.11-2.72,8.94-8.75,15.29-12.34,23.48-3.98,9.09-9.17,17.62-14.18,24.27-16.3,21.63-40.02,35.33-55.82,57.27-13.63,18.93-22.43,38.97-44.46,48.42-24.97,10.71-53.45,13.59-77.64-.65-17.27-10.17-34.78-19.91-52.5-29.2-17.53-9.19-35.83-6.15-53.99-12.67-2.38-.85-4.67-1.88-6.92-2.99-9.43-4.65-18.42-8.18-25.6-16.35-8.12-9.24-5.2-20.87-18.43-14.18-20.01,10.12-38.01,26.53-47.85,46.85-11.13,22.97-10.85,52.19,4.34,72.7,3.86,5.21,8.55,9.76,13.45,14,1.61,1.4,3.34,2.89,3.89,4.95.54,2.04-.19,4.17-.84,6.17-8.5,25.99-5.28,55.58,8.61,79.13,13.89,23.55,38.23,40.68,65.09,45.81-1.47,23.42,13.79,48.02,35.01,58.03,21.22,10.01,45.97,9.85,69.02,5.44,5.3,17.5,22.49,29.58,40.48,32.86,17.99,3.28,36.57-.97,53.62-7.57,11.96-4.62,23.94-10.79,31.48-21.15,12.33,12.82,31.82,16.95,49.32,13.83,17.51-3.12,33.27-12.61,47.15-23.73,8.72-6.99,17.17-15.13,20.81-25.69Z"/>
      <path class="cls-3" d="M286.31,477.4c.54-.66,1.08-1.31,1.63-1.97,2.86-3.2,4.75-6.86,5.66-10.96,1.65-4.02,2.18-8.23,1.6-12.63-.25-4.44-1.56-8.47-3.93-12.11-1.67-3.86-4.21-7.1-7.62-9.71-2.32-1.47-4.65-2.94-6.97-4.41-5.28-2.43-10.82-3.38-16.62-2.85-2.81.65-5.62,1.3-8.43,1.95-5.3,2.04-9.76,5.24-13.39,9.6-.54.66-1.08,1.31-1.63,1.97-2.86,3.2-4.75,6.86-5.66,10.96-1.65,4.02-2.18,8.23-1.6,12.63.25,4.44,1.56,8.47,3.93,12.11,1.67,3.86,4.21,7.1,7.62,9.71,2.32,1.47,4.65,2.94,6.97,4.41,5.28,2.43,10.82,3.38,16.62,2.85,2.81-.65,5.62-1.3,8.43-1.95,5.3-2.04,9.76-5.24,13.39-9.6h0Z"/>
      <path class="cls-1" d="M517.69,74.46c.74-.89,1.47-1.78,2.21-2.67,3.88-4.36,6.45-9.32,7.7-14.9,2.24-5.46,2.97-11.18,2.17-17.17-.34-6.03-2.12-11.52-5.35-16.46-2.27-5.25-5.72-9.64-10.35-13.2-3.16-2-6.32-3.99-9.48-5.99-7.18-3.31-14.71-4.6-22.59-3.88-3.82.88-7.64,1.77-11.46,2.65-7.2,2.77-13.27,7.12-18.2,13.04-.74.89-1.47,1.78-2.21,2.67-3.88,4.36-6.45,9.32-7.7,14.9-2.24,5.46-2.97,11.18-2.17,17.17.34,6.03,2.12,11.52,5.35,16.46,2.27,5.25,5.72,9.64,10.35,13.2,3.16,2,6.32,3.99,9.48,5.99,7.18,3.31,14.71,4.6,22.59,3.88,3.82-.88,7.64-1.77,11.46-2.65,7.2-2.77,13.27-7.12,18.2-13.04h0Z"/>
      <path class="cls-1" d="M416.93,264.36c-7.13-5.79-19.91-4.44-28.51-4.34-17.18.2-34.25,2.78-51.03,6.34-62.32,13.24-122.87,34.11-184.81,48.97-19.51,4.68-39.18,8.78-59.03,11.77-11.69,1.76-26.41,1.38-36.82,7.78-12.7,7.81-16.59,24.49-16.46,38.09.05,5.25-.15,15.44,2.87,19.99,7.88,11.9,34.15,3.86,45.1,2.36,20.83-2.85,41.49-6.82,62.2-10.38,30.02-5.16,60.07-10.12,89.72-17.11,31.49-7.42,62.47-16.75,93.27-26.51,29.57-9.36,62.53-16.83,90.17-30.94,5.84-2.98,8.89-6.14,8.04-12.8-1.19-9.27-7.01-26.97-14.72-33.22Z"/>
      <path d="M215.02,435.28c-.04-.43-.08-.86-.12-1.3-.12-2.18-.77-4.16-1.93-5.95-.82-1.9-2.07-3.48-3.74-4.77-1.57-1.4-3.37-2.33-5.38-2.78-1.97-.81-4.04-1.07-6.2-.78-4.06.57-8.17,2.31-10.72,5.67-2.54,3.35-3.97,7.31-3.57,11.59.04.43.08.86.12,1.3.12,2.18.77,4.16,1.93,5.95.82,1.9,2.07,3.48,3.74,4.77,1.57,1.4,3.37,2.33,5.38,2.78,1.97.81,4.04,1.07,6.2.78,4.06-.57,8.17-2.31,10.72-5.67,2.54-3.35,3.97-7.31,3.57-11.59h0Z"/>
      <path d="M327.78,412.28c-.04-.43-.08-.86-.12-1.3-.12-2.18-.77-4.16-1.93-5.95-.82-1.9-2.07-3.48-3.74-4.77-1.57-1.4-3.37-2.33-5.38-2.78-1.97-.81-4.04-1.07-6.2-.78-4.06.57-8.17,2.31-10.72,5.67-2.54,3.35-3.97,7.31-3.57,11.59.04.43.08.86.12,1.3.12,2.18.77,4.16,1.93,5.95.82,1.9,2.07,3.48,3.74,4.77,1.57,1.4,3.37,2.33,5.38,2.78,1.97.81,4.04,1.07,6.2.78,4.06-.57,8.17-2.31,10.72-5.67,2.54-3.35,3.97-7.31,3.57-11.59h0Z"/>
      <path d="M333.14,468.49c-7.14-2.11-12.76-7.57-15.46-14.44-1.81-4.63-9.06-1.9-7.24,2.75,1.26,3.2,2.99,6.07,5.07,8.61-.3.21-.59.45-.86.77-5.49,6.68-11.98,12.15-19.45,16.5-4.3,2.51.24,8.78,4.52,6.29,8.01-4.67,15.02-10.69,20.9-17.85.13-.16.22-.32.32-.47,3.19,2.42,6.84,4.29,10.85,5.47,4.78,1.41,6.07-6.23,1.35-7.63Z"/>
    </g>
  </g>
</svg>