<?xml version="1.0" encoding="UTF-8"?>
<svg id="Layer_2" data-name="Layer 2" xmlns="http://www.w3.org/2000/svg" viewBox="0 0 310.69 310.69">
  <defs>
    <style>
      .cls-1 {
        fill: #fff;
      }
    </style>
  </defs>
  <g id="Layer_1-2" data-name="Layer 1">
    <path class="cls-1" d="M292.93,73.83c-.09-.22-.11-.44-.22-.64-1.14-1.93-3.63-2.56-5.56-1.42l-6.88,4.07c0-.06,0-.14,0-.2.18-2.23-1.48-4.2-3.71-4.38-.87-.08-1.7.13-2.4.54-1.09.65-1.87,1.79-1.98,3.15-.08,1-.08,2.05-.07,3.11.01.99-.02,1.87-.11,2.68l-5.17,3.06c.36-1.94.7-3.9,1.1-5.74.47-2.19-.93-4.35-3.11-4.82-1.04-.23-2.07-.03-2.92.47-.93.55-1.65,1.48-1.89,2.64-.56,2.61-1.06,5.37-1.56,8.12-.29,1.64-.6,3.24-.91,4.83l-3.58,2.12c.28-2.76.49-5.67.53-8.57.04-4.2.09-8.31-1.2-12.12-.72-2.12-3.02-3.25-5.15-2.54-.27.09-.53.21-.77.36-1.61.95-2.4,2.94-1.77,4.78.84,2.5.81,5.73.78,8.86-.05,4.47-.37,8.58-.88,11.83,0,.11-.05.23-.08.34-.08-.23-.11-.47-.24-.68l-1.01-1.72c-4.75-8.09-11.05-18.68-20.29-23.15-.27-.53-.49-1.06-.84-1.58-.51-.76-1.27-1.33-2.14-1.6-.58-.18-1.13-.19-1.7-.29-6.86-7.67-18.84-10.76-27.95-13.05l-1.94-.49c-.25-.05-.49-.01-.73-.03.1-.06.2-.13.31-.18,2.99-1.4,6.85-2.86,10.57-3.99,3.57-1.08,6.65-2.02,9.26-1.91,2.24.09,4.13-1.64,4.23-3.88.1-2.23-1.64-4.13-3.88-4.22-4-.17-7.92,1.03-11.38,2.08-3.18.97-6.04,2.02-8.67,3.09l1.04-4.03c1.43-.74,2.88-1.49,4.36-2.23,2.51-1.25,5.02-2.51,7.38-3.79,1.98-1.12,2.71-3.53,1.65-5.49-1.07-1.97-3.53-2.71-5.5-1.63-1.66.9-3.44,1.78-5.2,2.67l1.49-5.82c.75-.32,1.6-.6,2.54-.87,1.01-.28,2.02-.58,2.95-.93,2.07-.81,3.13-3.16,2.33-5.25-.81-2.09-3.15-3.13-5.3-2.3,0,0-.08.01-.14.04l1.97-7.75c.55-2.17-.75-4.38-2.92-4.93-.22-.06-.44-.02-.66-.03-.21-.09-.38-.24-.61-.3-1.08-.28-2.17-.09-3.07.44-.9.53-1.58,1.39-1.86,2.48l-1.99,7.75c-.03-.05-.1-.1-.14-.15-1.3-1.54-3.5-1.86-5.17-.87-.19.12-.38.24-.55.39-1.71,1.45-1.93,4.01-.49,5.72.66.77,1.39,1.51,2.15,2.25.7.68,1.31,1.34,1.81,1.97l-1.5,5.83c-1.12-1.62-2.25-3.26-3.28-4.84-1.18-1.84-3.6-2.4-5.47-1.29-.05.03-.09.05-.14.07-1.89,1.22-2.42,3.73-1.21,5.61,1.46,2.26,3.06,4.57,4.66,6.87.95,1.35,1.86,2.7,2.76,4.04l-1.03,4.04c-1.77-2.17-3.68-4.37-5.7-6.43-2.96-3.02-5.82-5.95-9.41-7.72-1.27-.64-2.73-.53-3.86.14-.66.39-1.2.97-1.56,1.69-.99,2.01-.17,4.45,1.84,5.43,2.35,1.16,4.6,3.46,6.78,5.69,3.15,3.21,5.83,6.34,7.78,9.01.07.09.12.21.18.31-.22-.11-.41-.26-.66-.32l-1.93-.5c-9.07-2.37-21.02-5.4-30.72-2.01-.56-.2-1.09-.41-1.71-.53-.91-.18-1.83-.04-2.65.39-.24.12-.48.26-.7.39-.28.17-.51.39-.78.58-9.39-.49-19.08,4.73-26.83,9.32-.72.42-1.42.84-2.1,1.25l-1.71,1.02c-.22.13-.36.32-.54.48.03-.11.05-.24.09-.33,1.12-3.11,2.81-6.86,4.66-10.3,1.73-3.25,3.25-6.12,5.2-7.9,1.65-1.52,1.76-4.08.25-5.73-1.32-1.44-3.45-1.71-5.06-.75-.24.14-.47.31-.68.51-2.97,2.72-4.91,6.36-6.62,9.58-1.54,2.89-2.79,5.64-3.9,8.25l-2.12-3.59c.5-1.56,1-3.12,1.53-4.71.88-2.64,1.77-5.28,2.52-7.84.64-2.14-.58-4.41-2.73-5.05-1.13-.33-2.29-.16-3.23.4-.85.5-1.52,1.31-1.82,2.33-.53,1.81-1.17,3.69-1.79,5.56l-3.07-5.17c.3-.74.7-1.54,1.19-2.4.51-.93,1.01-1.84,1.42-2.77.91-2.04-.01-4.44-2.06-5.35-1.25-.55-2.62-.43-3.71.22-.7.41-1.29,1.04-1.64,1.84-.03.06-.06.13-.09.18l-4.08-6.88c-1.14-1.92-3.63-2.56-5.56-1.42-.2.12-.33.3-.5.45-.21.08-.43.1-.64.22-1.92,1.14-2.56,3.63-1.41,5.56l4.07,6.87c-.07,0-.14,0-.21,0-.88-.07-1.7.14-2.4.55-1.1.65-1.87,1.79-1.98,3.15-.19,2.23,1.47,4.2,3.71,4.38.99.08,2.04.07,3.1.06.98,0,1.87.03,2.68.12l3.06,5.17c-1.94-.36-3.9-.7-5.75-1.1-1.04-.23-2.07-.03-2.92.47-.93.55-1.64,1.49-1.89,2.64-.47,2.19.93,4.35,3.11,4.82,2.61.56,5.37,1.06,8.13,1.56,1.63.3,3.23.6,4.84.91l2.12,3.59c-2.78-.28-5.7-.49-8.58-.52-4.18-.05-8.31-.11-12.12,1.19-2.12.71-3.26,3.02-2.54,5.14.72,2.12,3.02,3.26,5.14,2.54,2.49-.85,5.74-.81,8.87-.77,4.45.05,8.55.36,11.83.87.11.01.22.06.34.09-.23.08-.47.11-.69.24l-1.72,1.01c-.68.4-1.39.82-2.1,1.24-7.75,4.59-16.98,10.58-21.06,19.05-.29.15-.59.24-.88.41-.22.14-.45.27-.67.42-.76.51-1.33,1.27-1.61,2.14-.19.6-.25,1.17-.36,1.75-7.62,6.87-10.7,18.8-12.98,27.89l-.5,1.95c-.06.24-.01.48-.03.72-.05-.1-.13-.2-.17-.3-1.41-2.98-2.85-6.83-3.99-10.57-1.08-3.53-2.02-6.64-1.91-9.26.09-2.24-1.64-4.13-3.88-4.23-.81-.03-1.58.18-2.24.56-1.14.68-1.92,1.89-1.98,3.32-.17,4.01,1.04,7.96,2.1,11.43.95,3.15,2,5.99,3.07,8.61l-4.04-1.03c-.75-1.45-1.5-2.92-2.24-4.4-1.24-2.5-2.5-5.01-3.77-7.35-1.06-1.97-3.52-2.71-5.5-1.64-.05.03-.14.09-.14.09-1.86,1.1-2.54,3.49-1.5,5.41.9,1.66,1.79,3.45,2.67,5.21l-5.81-1.49c-.32-.75-.6-1.59-.87-2.54-.28-1.01-.58-2.02-.94-2.96-.81-2.08-3.15-3.13-5.24-2.32-.22.08-.42.19-.61.3-1.68.99-2.44,3.07-1.72,4.95.03.05.05.13.07.2l-7.75-1.99c-1.08-.28-2.18-.09-3.07.44-.89.53-1.58,1.39-1.86,2.48-.05.23-.02.45-.04.66-.09.21-.24.39-.29.62-.55,2.17.75,4.37,2.92,4.93l7.75,1.99c-.06.04-.1.1-.16.14-1.71,1.45-1.93,4.01-.48,5.72,1.45,1.71,4.02,1.9,5.72.48.76-.65,1.5-1.39,2.24-2.14.69-.7,1.33-1.31,1.97-1.82l5.83,1.5c-1.62,1.12-3.25,2.25-4.84,3.28-1.89,1.21-2.42,3.72-1.21,5.61,1.21,1.87,3.73,2.38,5.61,1.2,2.25-1.45,4.57-3.05,6.86-4.65,1.37-.95,2.71-1.85,4.05-2.76l4.04,1.04c-2.16,1.76-4.37,3.67-6.44,5.69-3,2.95-5.95,5.83-7.72,9.41-.99,2-.16,4.45,1.85,5.43,2.01.99,4.45.16,5.43-1.83,1.16-2.35,3.47-4.61,5.7-6.79,3.21-3.15,6.34-5.83,9.01-7.78.09-.07.2-.12.3-.18-.11.22-.25.41-.31.65l-.51,1.94c-2.36,9.1-5.42,21.08-1.98,30.8-.18.54-.45,1.02-.56,1.62-.18.89-.05,1.83.38,2.65.28.55.65,1.01.99,1.49-.53,10.25,5.73,20.86,10.54,28.91l1.03,1.73c.13.22.32.35.48.53-.11-.03-.23-.05-.32-.09-3.11-1.12-6.86-2.81-10.3-4.65-3.27-1.75-6.12-3.27-7.91-5.21-1.31-1.43-3.43-1.7-5.04-.74-.24.14-.47.31-.68.51-1.65,1.51-1.76,4.08-.24,5.72,2.71,2.96,6.34,4.9,9.54,6.6,2.92,1.56,5.67,2.83,8.29,3.93l-3.59,2.12c-1.56-.5-3.1-.99-4.68-1.52-2.65-.89-5.31-1.77-7.87-2.53-1.13-.34-2.28-.16-3.23.4-.85.5-1.51,1.31-1.82,2.33-.64,2.14.59,4.4,2.73,5.04,1.81.54,3.69,1.17,5.57,1.79l-5.18,3.07c-.74-.3-1.54-.71-2.4-1.18-.92-.51-1.83-1.02-2.76-1.43-1.24-.55-2.62-.43-3.71.22-.7.42-1.28,1.05-1.63,1.85-.91,2.05.01,4.45,2.06,5.36.07.02.13.06.18.09l-6.87,4.07c-1.93,1.14-2.56,3.63-1.42,5.56.12.2.3.32.45.5.08.21.1.43.22.63,1.14,1.93,3.63,2.56,5.56,1.42l6.87-4.07c0,.07,0,.14,0,.21-.19,2.23,1.47,4.2,3.7,4.38,2.23.2,4.2-1.48,4.38-3.71.09-1,.09-2.05.07-3.11,0-.98.03-1.87.12-2.68l5.16-3.06c-.35,1.94-.71,3.9-1.1,5.75-.47,2.19.92,4.34,3.11,4.82,2.19.47,4.35-.93,4.82-3.11.56-2.63,1.07-5.39,1.57-8.15.29-1.62.6-3.22.9-4.81l3.59-2.12c-.28,2.77-.49,5.69-.52,8.58-.05,4.21-.09,8.32,1.19,12.12.72,2.12,3.02,3.25,5.14,2.54,2.12-.73,3.26-3.02,2.54-5.14-.84-2.49-.81-5.72-.76-8.84.04-4.49.36-8.59.86-11.85.01-.12.05-.24.08-.35.09.24.11.47.24.69l1.01,1.73c4.74,8.08,11.04,18.67,20.29,23.13.26.53.49,1.06.83,1.58.51.76,1.27,1.33,2.14,1.62.6.18,1.18.25,1.76.36,6.88,7.63,18.81,10.69,27.9,12.98l1.94.49c.24.06.47.01.72.03-.1.05-.2.13-.3.18-3,1.41-6.85,2.86-10.58,3.99-3.53,1.08-6.63,2.02-9.26,1.91-.81-.04-1.58.17-2.23.55-1.14.68-1.94,1.9-1.99,3.32-.1,2.23,1.64,4.13,3.88,4.23,4.01.16,7.96-1.04,11.43-2.1,3.14-.95,5.98-2,8.62-3.07l-1.04,4.04c-1.45.74-2.9,1.5-4.39,2.24-2.5,1.25-5,2.5-7.35,3.77-.05.02-.09.05-.09.05-1.91,1.13-2.58,3.53-1.54,5.45,1.07,1.96,3.53,2.69,5.49,1.63,1.66-.9,3.44-1.78,5.21-2.67l-1.5,5.82c-.75.32-1.59.6-2.54.87-1.01.28-2.02.58-2.96.93-.22.08-.42.19-.61.3-1.68.99-2.44,3.07-1.72,4.94.81,2.1,3.15,3.13,5.24,2.32.07-.02.14-.03.2-.05l-1.98,7.74c-.55,2.17.76,4.38,2.92,4.93.22.06.45.01.68.03.2.09.38.23.6.29,2.17.55,4.37-.75,4.93-2.92l1.98-7.74s.1.09.14.15c1.45,1.71,4.01,1.88,5.72.47,1.71-1.44,1.93-4.01.48-5.71-.65-.77-1.39-1.5-2.14-2.24-.7-.69-1.31-1.35-1.81-1.98l1.49-5.82c1.13,1.62,2.26,3.25,3.3,4.84,1.2,1.88,3.73,2.42,5.6,1.2,1.89-1.22,2.42-3.72,1.21-5.6-1.45-2.24-3.04-4.54-4.64-6.83-.95-1.37-1.87-2.72-2.79-4.07l1.04-4.04c1.76,2.15,3.67,4.36,5.7,6.43,2.92,3,5.81,5.94,9.41,7.73,2.02.98,4.45.15,5.43-1.85,1-2.01.17-4.43-1.84-5.43-2.36-1.17-4.62-3.48-6.81-5.72-3.13-3.19-5.81-6.32-7.75-8.98-.07-.09-.11-.2-.18-.29.22.09.41.25.65.31l1.94.5c9.07,2.35,21.02,5.4,30.71,2.02.56.18,1.1.4,1.71.52.91.18,1.84.05,2.66-.38.55-.28.99-.64,1.48-.98,10.25.53,20.85-5.74,28.91-10.54l1.73-1.03c.22-.13.35-.33.53-.49-.03.12-.04.24-.09.34-1.12,3.12-2.81,6.87-4.65,10.3-1.75,3.28-3.26,6.13-5.2,7.9-1.65,1.52-1.76,4.07-.24,5.74,1.52,1.64,4.07,1.73,5.73.24,2.96-2.71,4.89-6.35,6.6-9.55,1.55-2.92,2.82-5.68,3.93-8.3l2.12,3.59c-.49,1.55-.99,3.09-1.52,4.66-.89,2.66-1.77,5.33-2.54,7.9-.64,2.14.58,4.4,2.73,5.04,2.14.64,4.4-.59,5.04-2.73.53-1.82,1.18-3.7,1.79-5.58l3.07,5.17c-.31.76-.7,1.55-1.19,2.4-.52.93-1.03,1.84-1.43,2.76-.91,2.04.01,4.44,2.06,5.35,2.05.9,4.44-.02,5.36-2.06.02-.05.06-.12.09-.18l4.07,6.87c1.14,1.93,3.63,2.56,5.56,1.42.2-.12.32-.3.5-.45.21-.08.44-.11.63-.22,1.93-1.14,2.56-3.63,1.42-5.56l-4.07-6.87c.07,0,.14,0,.2,0,2.23.2,4.2-1.48,4.39-3.7.19-2.23-1.47-4.19-3.7-4.38-1-.08-2.05-.07-3.11-.07-.99,0-1.87-.02-2.67-.12l-3.07-5.17c1.94.35,3.9.7,5.74,1.1,2.19.47,4.34-.93,4.82-3.11.46-2.19-.93-4.34-3.11-4.82-2.62-.56-5.37-1.06-8.12-1.56-1.63-.3-3.24-.6-4.84-.91l-2.12-3.59c2.77.28,5.68.49,8.57.52,4.2.05,8.32.1,12.12-1.19,2.13-.72,3.25-3.02,2.54-5.14-.72-2.12-3.02-3.26-5.14-2.54-2.49.84-5.72.8-8.85.77-4.48-.05-8.59-.37-11.84-.87-.12-.01-.23-.06-.35-.09.23-.08.47-.1.69-.23l1.73-1.02c8.07-4.74,18.66-11.04,23.12-20.27.53-.26,1.07-.49,1.59-.85.76-.51,1.33-1.27,1.6-2.15.19-.59.26-1.16.37-1.75,7.63-6.87,10.69-18.82,12.98-27.92l.49-1.92c.06-.24.03-.48.03-.72.06.09.14.2.18.3,1.4,2.99,2.86,6.85,3.99,10.58,1.08,3.56,2.02,6.64,1.91,9.26-.09,2.24,1.64,4.13,3.88,4.23,2.24.1,4.13-1.64,4.22-3.87.18-4.01-1.03-7.93-2.08-11.39-.96-3.18-2.02-6.03-3.09-8.67l4.04,1.04c.74,1.43,1.48,2.88,2.22,4.36,1.25,2.51,2.51,5.01,3.79,7.38,1.06,1.97,3.53,2.71,5.49,1.63,1.96-.99,2.71-3.52,1.64-5.49-.9-1.66-1.78-3.44-2.67-5.2l5.82,1.48c.32.75.6,1.6.86,2.54.28,1.02.58,2.02.94,2.96.81,2.09,3.15,3.13,5.25,2.32,2.06-.8,3.13-3.15,2.32-5.24-.03-.06-.03-.13-.06-.19l7.75,1.98c2.17.55,4.37-.75,4.93-2.92.05-.22.01-.44.03-.66.09-.21.23-.38.29-.6.55-2.17-.76-4.38-2.93-4.94l-7.74-1.98c.05-.05.16-.15.16-.15,1.71-1.44,1.92-4.01.47-5.71-1.3-1.54-3.49-1.86-5.16-.87-.2.12-.38.24-.56.39-.76.65-1.5,1.39-2.24,2.14-.69.71-1.35,1.31-1.98,1.82l-5.81-1.49c1.62-1.12,3.25-2.26,4.84-3.29,1.88-1.22,2.42-3.73,1.21-5.6-1.19-1.83-3.62-2.4-5.53-1.27l-.09.06c-2.24,1.45-4.54,3.04-6.83,4.63-1.37.95-2.72,1.86-4.07,2.77l-4.03-1.02c2.16-1.77,4.37-3.68,6.43-5.7,2.99-2.92,5.94-5.81,7.72-9.41.99-2,.16-4.44-1.84-5.43-1.28-.64-2.73-.53-3.87.15-.65.39-1.2.96-1.56,1.69-1.17,2.36-3.48,4.63-5.72,6.81-3.18,3.11-6.3,5.8-8.98,7.75-.09.07-.2.12-.3.18.1-.22.25-.41.31-.66l.51-1.94c2.35-9.07,5.39-21,2.01-30.7.18-.55.41-1.1.53-1.71.17-.91.04-1.84-.39-2.66-.28-.55-.64-1-.98-1.49.54-10.25-5.74-20.87-10.55-28.91l-1.02-1.71c-.14-.22-.32-.36-.49-.55.12.03.24.05.35.09,3.1,1.12,6.85,2.82,10.29,4.66,3.27,1.74,6.12,3.26,7.9,5.2,1.52,1.65,4.07,1.75,5.73.24,1.64-1.52,1.75-4.08.24-5.73-2.72-2.96-6.35-4.89-9.56-6.6-2.9-1.56-5.66-2.82-8.28-3.93l3.59-2.12c1.54.49,3.09.99,4.66,1.52,2.66.89,5.33,1.78,7.9,2.54,2.14.64,4.41-.59,5.04-2.73.64-2.15-.58-4.41-2.73-5.05-1.81-.54-3.69-1.18-5.57-1.79l5.17-3.07c.75.31,1.54.71,2.4,1.19.93.51,1.85,1.02,2.77,1.42,2.04.91,4.44-.02,5.35-2.06.91-2.05-.02-4.45-2.12-5.37l-.12-.07,6.88-4.08c1.92-1.14,2.56-3.63,1.42-5.56-.12-.2-.3-.32-.45-.49ZM217.2,74.91c.18,2.88-1,6.31-2.25,9.69l-.93,2.58c-2.7,7.86-6.88,12.28-13.61,16.73-.12-1.13-.2-2.19-.35-3.37-.14-1.08-.72-2.06-1.59-2.72-.87-.65-1.98-.93-3.06-.76-1.17.18-2.2.41-3.32.61,2.39-7.71,5.45-12.96,12.24-17.77.72-.51,1.46-1.05,2.22-1.62,2.9-2.14,5.85-4.24,8.66-4.88.5.71,1.18,1.22,2,1.5ZM192.61,124.19c-2.91-.97-6.08-2.84-9.17-5.66-.2-.19-.41-.35-.64-.49-3.58-2.17-6.26-4.68-8.01-7.2,5.01-2.11,10.73-3.78,17.71-5.07.72,7.05.72,13.01.11,18.42ZM147.46,63.17c.39.86.78,1.69,1.17,2.48,3.65,7.48,3.82,13.55,2.2,21.46-.89-.72-1.68-1.41-2.63-2.13-.86-.67-1.96-.95-3.04-.81-.54.09-1.04.26-1.5.53-.47.28-.89.64-1.2,1.09-.7.96-1.28,1.85-1.94,2.78-3.76-7.13-5.31-13.02-3.9-21.21l.42-2.71c.53-3.56,1.14-7.15,2.69-9.58.85.14,1.71.01,2.47-.35,2.16,1.9,3.74,5.17,5.25,8.44ZM84.59,95.74l2.58.93c7.86,2.7,12.29,6.88,16.73,13.61-1.13.13-2.19.2-3.36.35-.55.07-1.07.26-1.54.53-.46.27-.86.63-1.18,1.06-.65.87-.93,1.98-.76,3.06.18,1.18.4,2.21.6,3.32-7.71-2.39-12.96-5.44-17.76-12.24-.51-.72-1.06-1.45-1.62-2.22-2.14-2.89-4.25-5.85-4.88-8.67.72-.52,1.22-1.19,1.5-1.99,2.89-.18,6.31,1.01,9.69,2.25ZM63.17,163.23c.85-.39,1.69-.78,2.48-1.16,7.47-3.65,13.55-3.82,21.46-2.2-.72.89-1.41,1.68-2.13,2.62-.66.88-.95,1.97-.79,3.05.15,1.08.73,2.06,1.62,2.7.95.7,1.85,1.27,2.78,1.93-7.14,3.76-13.03,5.31-21.22,3.9l-2.7-.43c-3.57-.53-7.15-1.14-9.58-2.68.14-.85.02-1.7-.36-2.47,1.91-2.17,5.18-3.75,8.45-5.26ZM106.97,151.03c1.37,2.75,2.29,6.31,2.47,10.49.01.26.05.53.12.79,1,4.07,1.11,7.74.57,10.76-5.03-2.05-10.26-4.92-16.1-8.94,4.47-5.51,8.69-9.72,12.94-13.1ZM93.49,235.79c-.18-2.88,1.01-6.31,2.25-9.69l.93-2.57c2.69-7.88,6.87-12.29,13.61-16.74.12,1.13.19,2.19.35,3.37.14,1.08.71,2.06,1.59,2.71.87.66,1.97.93,3.05.76,1.18-.18,2.21-.41,3.33-.6-2.39,7.71-5.45,12.96-12.25,17.76-.72.5-1.45,1.06-2.21,1.61-2.89,2.14-5.84,4.26-8.66,4.89-.49-.7-1.18-1.22-2-1.5ZM118.08,186.5c2.91.97,6.08,2.84,9.18,5.67.19.18.41.34.63.47,3.59,2.17,6.27,4.69,8.02,7.21-5.01,2.11-10.73,3.78-17.71,5.06-.72-7.05-.73-13.02-.12-18.41ZM163.23,247.52c-.39-.85-.78-1.69-1.17-2.48-3.65-7.46-3.81-13.55-2.2-21.45.89.7,1.68,1.4,2.63,2.12.87.66,1.96.95,3.04.8,1.08-.16,2.04-.74,2.7-1.62.7-.96,1.27-1.85,1.92-2.79,3.77,7.14,5.31,13.03,3.9,21.22l-.42,2.71c-.53,3.57-1.14,7.14-2.68,9.58-.85-.15-1.68-.01-2.47.35-2.17-1.91-3.76-5.17-5.26-8.44ZM226.09,214.95l-2.57-.93c-7.87-2.7-12.28-6.88-16.74-13.61,1.14-.12,2.19-.2,3.38-.36,1.08-.14,2.05-.72,2.71-1.59.66-.87.93-1.97.76-3.04-.18-1.18-.41-2.21-.6-3.33,7.71,2.37,12.96,5.45,17.76,12.23.51.72,1.06,1.47,1.61,2.22,2.14,2.9,4.25,5.85,4.88,8.67-.67.49-1.2,1.18-1.49,2-2.88.18-6.31-1-9.7-2.25ZM178.03,124.96s.14-.07.14-.07l-.03.16c-.07.05-.14.12-.22.17.03-.09.07-.17.1-.26ZM193.39,132.81c-.88,2.54-1.31,5.45-1.28,8.6-.22.07-.46.05-.67.17-1.26.73-2.78,1.3-4.4,1.89-1.91.71-4.09,1.52-6.18,2.76l-3.38,1.95-.05.03c-1.41.84-2.4,2.56-2.16,4.2.23,1.64,1.22,3.1,2.84,3.48l.74.19,3.55.87c2.35.61,4.66.77,6.7.91,1.72.12,3.34.23,4.75.59.27.06.53-.04.8-.03.87,3.02,2.02,5.74,3.58,7.93-.52.26-1.06.45-1.58.76-1.89,1.12-3.72,2.6-5.46,4.37-.21-.1-.36-.29-.58-.35-1.41-.37-2.88-1.05-4.46-1.77-1.85-.85-3.96-1.82-6.31-2.42l-3.89-1.04c-1.13-.3-2.4-.13-3.4.46-.42.25-.79.58-1.1.97-.99,1.33-1.26,3.09-.4,4.5.77,1.26,1.54,2.51,2.29,3.77,1.24,2.1,2.76,3.84,4.1,5.39,1.13,1.3,2.2,2.53,2.95,3.78.12.2.35.3.5.48-1.54,2.75-2.56,5.5-3.01,8.14-2.53-.87-5.44-1.29-8.59-1.27-.09-.22-.06-.46-.18-.68-.74-1.24-1.3-2.78-1.89-4.4-.71-1.91-1.52-4.09-2.76-6.18l-1.95-3.38c-.83-1.45-2.58-2.45-4.22-2.21-.64.09-1.25.3-1.79.62-.83.49-1.47,1.25-1.71,2.23-.34,1.43-.69,2.86-1.05,4.28-.6,2.35-.76,4.66-.91,6.7-.12,1.73-.24,3.35-.59,4.76-.06.23.03.45.02.68-2.39.68-4.57,1.57-6.45,2.69-.52.31-.95.68-1.43,1.02-1.16-2.42-3-4.74-5.23-6.96.12-.24.32-.42.4-.68.36-1.41,1.05-2.88,1.77-4.45.85-1.85,1.82-3.96,2.42-6.32l1.14-4.26c.43-1.6-.16-3.31-1.48-4.3-1.32-.98-3.09-1.08-4.5-.24l-.05.03-3.76,2.29c-2.09,1.24-3.84,2.76-5.39,4.09-1.3,1.13-2.53,2.2-3.78,2.95-.2.12-.3.35-.48.5-2.75-1.53-5.49-2.55-8.14-3,.87-2.54,1.29-5.44,1.27-8.59.22-.08.47-.05.67-.18,1.25-.73,2.79-1.3,4.4-1.9,1.91-.7,4.09-1.51,6.18-2.75l3.83-2.22c1.48-.64,2.22-2.45,1.98-4.09-.24-1.64-1.45-2.98-3.07-3.37l-4.28-1.05c-2.35-.6-4.67-.76-6.71-.91-1.73-.12-3.35-.24-4.76-.59-.27-.07-.53-.03-.81-.03-.86-2.98-2.01-5.68-3.55-7.84,2.41-1.16,4.73-2.99,6.93-5.21.24.12.42.32.68.39,1.41.37,2.89,1.06,4.46,1.77,1.86.85,3.96,1.83,6.31,2.42l4.26,1.14c1.6.43,3.32-.16,4.3-1.48,1-1.33,1.09-3.14.22-4.55l-2.29-3.76c-1.24-2.09-2.75-3.84-4.09-5.39-1.13-1.3-2.21-2.53-2.94-3.78-.13-.2-.36-.3-.51-.48,1.54-2.75,2.56-5.5,3-8.15,2.54.88,5.45,1.3,8.6,1.27.08.22.05.47.18.68.72,1.24,1.29,2.77,1.89,4.39.71,1.92,1.51,4.09,2.75,6.18.74,1.25,1.47,2.52,2.2,3.8.82,1.43,2.46,2.23,4.09,2,1.65-.24,2.98-1.45,3.38-3.06l1.04-4.29c.6-2.34.76-4.66.91-6.7.12-1.71.23-3.34.58-4.75.07-.26-.03-.52-.02-.79,3.01-.86,5.72-2.02,7.9-3.57,1.16,2.39,2.97,4.69,5.18,6.87-.13.25-.29.47-.36.74-.37,1.4-1.05,2.88-1.77,4.45-.85,1.85-1.83,3.97-2.43,6.31l-1.03,3.86c-.43,1.6.09,3.5,1.43,4.51,1.33,1,3.1,1.45,4.49.42l3.78-2.29c2.09-1.24,3.84-2.75,5.39-4.1,1.3-1.13,2.52-2.2,3.77-2.94.22-.12.3-.35.48-.51,2.75,1.54,5.5,2.56,8.15,3.01ZM124.94,132.53h.1c.06.09.12.16.18.24-.08-.04-.17-.07-.26-.1v-.14ZM149.9,117.81s.07-.1.07-.1c0,0,.03.05.07.09-.01.09-.02.18-.03.26-.04-.08-.07-.16-.12-.25ZM117.79,160.65c.09.01.18.02.27.03-.07.04-.16.07-.25.12-.05-.02-.09-.03-.15-.05.04-.03.09-.06.13-.09ZM132.65,185.73s-.09.05-.14.07c.01-.05.02-.11.02-.11.08-.11.16-.16.22-.22-.03.09-.07.17-.11.25ZM185.75,178.17s-.05-.01-.11-.02c-.05-.07-.12-.14-.16-.22.08.03.16.07.25.11.02.05.02.13.02.13ZM160.79,192.88l-.07.11-.06-.08c0-.09.02-.19.03-.28.03.08.07.16.11.25ZM192.89,150.04c-.09,0-.18-.02-.26-.03.08-.03.16-.07.24-.11l.15.05s-.08.06-.13.09ZM186.5,192.61c.97-2.91,2.84-6.08,5.67-9.16.18-.2.34-.41.48-.64,2.17-3.59,4.68-6.27,7.2-8.01,2.12,5,3.77,10.73,5.06,17.71-7.04.72-13,.72-18.41.1ZM173.06,200.56c-2.05,5.03-4.91,10.26-8.93,16.1-5.5-4.47-9.73-8.69-13.11-12.94,2.75-1.37,6.31-2.29,10.49-2.47.26,0,.53-.05.78-.12,4.07-.99,7.75-1.12,10.76-.58ZM124.19,118.08c-.97,2.91-2.85,6.08-5.68,9.16-.18.2-.34.42-.47.64-2.17,3.59-4.69,6.27-7.21,8.02-2.11-5.01-3.78-10.74-5.06-17.71,7.05-.72,13.01-.72,18.42-.11ZM137.63,110.13c2.05-5.04,4.91-10.26,8.93-16.1,5.5,4.48,9.73,8.69,13.1,12.94-2.74,1.37-6.3,2.29-10.48,2.47-.27.01-.53.05-.8.11-4.07,1-7.74,1.12-10.75.58ZM216.67,146.57c-4.48,5.5-8.69,9.72-12.95,13.1-1.37-2.74-2.28-6.31-2.47-10.49,0-.26-.05-.53-.11-.78-1-4.08-1.11-7.75-.57-10.77,5.04,2.05,10.26,4.92,16.1,8.94ZM224.89,142.46c-.96-.7-1.85-1.27-2.79-1.92,7.14-3.78,13.03-5.33,21.22-3.9l2.71.41c3.56.53,7.13,1.14,9.57,2.69-.15.85-.03,1.7.36,2.48-1.91,2.17-5.16,3.75-8.44,5.25-.85.39-1.69.78-2.49,1.17-7.46,3.65-13.54,3.81-21.45,2.2.71-.89,1.4-1.68,2.12-2.63.67-.87.95-1.96.81-3.05-.16-1.08-.74-2.04-1.62-2.69ZM243.5,208.76c-1.34-2.63-3.07-5-4.58-7.04l-1.51-2.07c-6.94-9.83-14.95-13.57-26.31-16.53-.91-3.59-1.96-6.92-3.15-9.97,1.15.45,2.3,1.2,3.46,2.27,1.65,1.51,4.22,1.41,5.74-.24.98-1.06,1.21-2.5.85-3.8.94-.97,1.43-2.33,1.08-3.74-.54-2.17-2.74-3.5-4.91-2.96-1.53.39-2.9.49-4.13.33,2.52-2.09,5.03-4.52,7.55-7.22,11.39,2.86,20.21,3.42,31.02-1.86l2.32-1.1c2.31-1.06,4.97-2.32,7.4-3.98.34,6.59-1.61,14.28-3.21,20.45l-.51,1.98c-.24.94-.07,1.87.3,2.69l-30.79-7.89c-1.08-.28-2.18-.08-3.07.45-.9.53-1.59,1.39-1.87,2.48-.06.22-.01.45-.03.67-.09.21-.23.38-.29.6-.55,2.17.76,4.38,2.92,4.93l30.79,7.88c-.72.53-1.31,1.27-1.56,2.21l-.49,1.96c-1.56,6.22-3.49,13.86-7.01,19.5ZM179.9,255.45c.92-2.8,1.39-5.71,1.76-8.23l.4-2.52c2.04-11.85-.98-20.16-6.92-30.3,1.88-3.18,3.5-6.27,4.81-9.27.49,1.14.78,2.48.84,4.05.1,2.24,1.99,3.98,4.22,3.88,1.45-.06,2.63-.91,3.3-2.08,1.35-.03,2.65-.65,3.41-1.89,1.15-1.91.53-4.4-1.39-5.56-1.35-.82-2.39-1.71-3.15-2.69,3.27.29,6.75.35,10.44.23,6.05,10.07,11.87,16.71,23.26,20.62l2.39.87c2.39.88,5.15,1.88,8.04,2.44-4.43,4.88-11.23,8.92-16.71,12.17l-1.77,1.04c-.83.49-1.37,1.27-1.68,2.11l-16.21-27.35c-1.14-1.92-3.63-2.56-5.56-1.42-.2.12-.32.3-.5.45-.21.08-.43.1-.64.22-1.92,1.14-2.55,3.63-1.41,5.56l16.2,27.35c-.89-.13-1.83-.03-2.67.47l-1.75,1.04c-5.46,3.25-12.31,7.29-18.74,8.82ZM101.93,243.52c2.63-1.34,5.01-3.07,7.05-4.59l2.06-1.51c9.83-6.94,13.57-14.96,16.54-26.31,3.59-.92,6.92-1.96,9.96-3.15-.45,1.15-1.2,2.3-2.27,3.46-1.52,1.65-1.41,4.22.24,5.73,1.06.98,2.5,1.2,3.8.86.97.94,2.34,1.43,3.75,1.08,2.17-.53,3.5-2.74,2.96-4.91-.39-1.54-.49-2.9-.33-4.13,2.09,2.51,4.52,5.02,7.23,7.55-2.86,11.38-3.43,20.21,1.85,31.02l1.1,2.32c1.07,2.32,2.34,5,4.01,7.44-6.6.33-14.33-1.65-20.49-3.26l-1.97-.5c-.94-.24-1.87-.08-2.69.3l7.88-30.8c.55-2.17-.75-4.37-2.92-4.93-.23-.05-.45,0-.68-.03-.21-.09-.38-.24-.6-.3-1.09-.28-2.18-.09-3.07.44-.89.53-1.59,1.4-1.87,2.48l-7.88,30.8c-.53-.73-1.27-1.32-2.21-1.56l-1.97-.5c-6.18-1.56-13.86-3.53-19.49-7ZM55.23,179.92c2.81.91,5.72,1.37,8.24,1.75l2.52.39c11.86,2.04,20.17-.98,30.3-6.91,3.18,1.87,6.27,3.5,9.27,4.8-1.14.49-2.47.78-4.05.85-2.24.09-3.97,1.98-3.88,4.22.06,1.45.91,2.63,2.09,3.3.01,1.35.64,2.67,1.88,3.42,1.92,1.16,4.41.53,5.57-1.38.82-1.35,1.71-2.4,2.69-3.15-.29,3.25-.36,6.75-.24,10.44-10.06,6.04-16.71,11.87-20.62,23.25l-.86,2.41c-.89,2.39-1.88,5.16-2.43,8.07-4.89-4.43-8.96-11.25-12.18-16.75l-1.04-1.75c-.5-.85-1.26-1.39-2.11-1.7l27.35-16.2c1.92-1.14,2.56-3.63,1.42-5.56-.11-.2-.3-.32-.45-.49-.09-.22-.11-.44-.22-.64-1.14-1.93-3.63-2.56-5.56-1.42l-27.34,16.21c.14-.89.03-1.83-.47-2.66l-1.04-1.76c-3.27-5.46-7.3-12.3-8.83-18.72ZM67.18,101.93c1.34,2.63,3.07,5,4.58,7.05l1.51,2.07c6.94,9.83,14.95,13.56,26.31,16.54.92,3.58,1.96,6.92,3.16,9.96-1.16-.45-2.31-1.2-3.46-2.27-1.64-1.52-4.22-1.41-5.73.24-.97,1.06-1.21,2.47-.87,3.75-.95.97-1.41,2.39-1.06,3.8.54,2.18,2.74,3.5,4.91,2.96,1.53-.38,2.9-.48,4.13-.32-2.52,2.09-5.03,4.52-7.56,7.22-11.38-2.86-20.2-3.42-31.02,1.87l-2.32,1.08c-1.82.84-3.86,1.78-5.83,2.95-.54.32-1.05.71-1.58,1.07-.35-6.6,1.61-14.31,3.22-20.49l.51-1.96c.24-.95.07-1.87-.3-2.69l30.79,7.88c2.17.55,4.38-.75,4.94-2.92.05-.22.01-.44.03-.67.09-.21.23-.38.29-.61.56-2.17-.75-4.38-2.92-4.93l-30.8-7.88c.72-.53,1.31-1.27,1.56-2.21l.5-1.98c1.56-6.17,3.55-13.86,7-19.48ZM130.77,55.24c-.91,2.8-1.37,5.71-1.75,8.23l-.39,2.53c-2.05,11.86.98,20.16,6.9,30.29-1.87,3.18-3.5,6.27-4.8,9.28-.49-1.14-.78-2.48-.85-4.05-.09-2.25-1.98-3.98-4.22-3.89-.7.03-1.34.23-1.9.56-.6.36-1.08.87-1.43,1.48-.69.01-1.38.19-1.98.54-.55.33-1.04.8-1.4,1.4-1.16,1.91-.54,4.4,1.38,5.57,1.35.81,2.4,1.71,3.15,2.68-3.26-.3-6.75-.36-10.44-.24-6.04-10.07-11.87-16.71-23.25-20.61l-2.41-.87c-2.39-.88-5.16-1.86-8.05-2.42,4.43-4.89,11.25-8.95,16.74-12.19l1.75-1.02c.84-.5,1.38-1.27,1.69-2.11l16.21,27.34c1.14,1.93,3.63,2.56,5.55,1.42.2-.12.32-.3.5-.45.21-.08.43-.11.64-.22,1.93-1.14,2.56-3.63,1.42-5.56l-16.2-27.35c.89.14,1.82.03,2.66-.46l1.74-1.04c5.46-3.27,12.31-7.3,18.74-8.83ZM208.78,67.21c-.57.28-1.16.55-1.7.87-1.98,1.17-3.78,2.5-5.37,3.69l-2.08,1.51c-9.82,6.94-13.57,14.95-16.53,26.31-3.59.92-6.92,1.96-9.97,3.16.45-1.16,1.21-2.31,2.27-3.47,1.52-1.64,1.41-4.22-.24-5.73-1.08-.99-2.53-1.25-3.84-.89-.97-.91-2.33-1.38-3.71-1.04-2.19.55-3.5,2.75-2.97,4.92.38,1.53.49,2.9.33,4.13-2.09-2.52-4.51-5.03-7.22-7.56,2.86-11.39,3.42-20.2-1.86-31.02l-1.09-2.32c-1.07-2.31-2.32-4.96-3.98-7.39,6.6-.34,14.29,1.59,20.46,3.21l1.96.51c.94.23,1.87.07,2.68-.31l-7.88,30.8c-.55,2.17.76,4.38,2.92,4.93.23.07.45.03.67.05.21.09.38.23.6.28,2.17.55,4.38-.75,4.94-2.92l7.88-30.79c.54.72,1.27,1.32,2.21,1.56l1.98.5c6.19,1.56,13.89,3.55,19.51,7.02ZM224.98,79.34c4.91,4.43,8.97,11.25,12.2,16.75l1.03,1.75c.49.83,1.27,1.37,2.11,1.68l-27.34,16.21c-1.93,1.14-2.56,3.63-1.42,5.56.12.2.3.32.45.5.07.21.1.43.22.63,1.14,1.93,3.63,2.56,5.56,1.42l27.35-16.21c-.14.89-.03,1.83.47,2.67l1.03,1.74c3.27,5.48,7.31,12.31,8.84,18.74-2.81-.91-5.71-1.37-8.24-1.75l-2.52-.4c-11.85-2.04-20.16.98-30.29,6.92-3.19-1.89-6.27-3.51-9.28-4.81,1.14-.49,2.48-.78,4.05-.85,2.25-.1,3.99-1.98,3.89-4.22-.06-1.45-.91-2.63-2.08-3.3-.03-1.35-.65-2.66-1.89-3.41-1.91-1.16-4.4-.54-5.56,1.39-.81,1.35-1.71,2.4-2.69,3.15.29-3.26.35-6.75.23-10.44,10.08-6.04,16.71-11.87,20.62-23.26l.87-2.4c.89-2.4,1.87-5.17,2.42-8.07Z"/>
  </g>
</svg>