<?xml version="1.0" encoding="UTF-8"?>
<svg id="Layer_2" data-name="Layer 2" xmlns="http://www.w3.org/2000/svg" viewBox="0 0 199.52 199.52">
  <defs>
    <style>
      .cls-1 {
        fill: #fff;
      }
    </style>
  </defs>
  <g id="Layer_1-2" data-name="Layer 1">
    <g>
      <path class="cls-1" d="M108.31,124.7c3.66-.7,6.88-2.31,9.34-4.66,2.64-2.14,4.63-5.14,5.8-8.69,2.12-3.13,3.26-6.6,3.31-10.04.37-3.15-.34-6.73-2.05-10.1-.66-3.42-2.11-6.47-4.22-8.86-.18-.2-.36-.39-.55-.58-1.96-2.48-4.99-4.51-8.59-5.69-3.13-2.12-6.6-3.26-10.05-3.32-3.15-.37-6.72.35-10.1,2.05-3.71.72-6.98,2.36-9.45,4.76-2.48,1.97-4.51,4.99-5.69,8.59-2.12,3.14-3.26,6.6-3.31,10.05-.37,3.15.34,6.73,2.05,10.1.72,3.71,2.36,6.97,4.76,9.45,1.96,2.46,4.99,4.51,8.59,5.68,3.14,2.12,6.6,3.27,10.05,3.32,3.15.37,6.72-.33,10.09-2.05ZM113.69,115.77c-1.73,1.68-4.09,2.81-6.83,3.28-.3.05-.6.16-.88.3-2.46,1.31-5.01,1.87-7.4,1.6-2.69-.05-5.16-.91-7.44-2.52-.25-.18-.54-.32-.84-.41-2.66-.81-4.89-2.26-6.37-4.1-1.87-1.98-3-4.3-3.47-7.04-.05-.31-.16-.61-.3-.89-1.31-2.45-1.86-5.01-1.6-7.41.05-2.69.92-5.16,2.52-7.43.18-.26.32-.53.41-.83.81-2.67,2.23-4.87,4.11-6.37,1.94-1.87,4.3-3,7.04-3.47.3-.05.6-.16.88-.3,2.46-1.31,5.02-1.87,7.41-1.6,2.69.05,5.16.92,7.44,2.53.25.18.53.32.83.41,2.67.81,4.87,2.25,6.37,4.11,1.88,1.96,3,4.3,3.47,7.04.05.3.15.6.3.88,1.31,2.46,1.86,5.01,1.59,7.41-.05,2.69-.92,5.16-2.52,7.43-.18.26-.32.54-.41.84-.81,2.67-2.23,4.86-4.11,6.37-.07.06-.14.12-.21.19Z"/>
      <path class="cls-1" d="M165.85,174.68s.1-.05.15-.09c1.2-1.06,1.32-2.9.26-4.11-.64-.72-1.2-1.56-1.77-2.4-.29-.42-.6-.85-.9-1.28.12-.01.25-.03.37-.04,1.59-.24,2.69-1.73,2.46-3.31-.09-.58-.34-1.09-.7-1.5-.64-.72-1.6-1.11-2.61-.96-.98.15-1.96.26-2.94.39-.52.06-1.03.14-1.55.2-.02-.02-.03-.05-.03-.05l-.49-.55c2.88-.39,5.72-1.24,7.01-1.91,1.42-.76,1.96-2.52,1.22-3.94-.11-.21-.24-.4-.39-.57-.87-.99-2.33-1.29-3.55-.65-1.79.95-7.1,1.81-8.34,1.37-.37-.14-.74-.19-1.13-.18l-3.55-4.02c1.26-.43,4.57-.37,6.28-.33,2.23.05,4.15.09,5.56-.26,1.56-.4,2.49-1.99,2.09-3.55-.12-.46-.34-.87-.64-1.2-.7-.8-1.81-1.18-2.91-.9-.62.16-2.47.12-3.97.09-3.94-.09-7.97-.16-10.34,1.7l-2.06-2.33c-.41-.47-.94-.71-1.5-.85-.12-.35-.31-.69-.57-.98-.55-.63-1.14-1.37-1.76-2.17,7.16,2.28,15.79,2.27,21.59.06,3.03-1.16,5.93-2.65,8.87-4.54.91-.59,1.41-1.62,1.32-2.69-.3-3.49-.91-6.7-1.85-9.8-1.1-3.62-3.5-7.6-6.6-11.12-1.97-2.23-4.23-4.25-6.62-5.9.97,0,1.9.01,2.71.06.39.03.77-.03,1.12-.15.45.35.97.62,1.59.66l3.11.2c-.02,3.01,2.5,6.15,4.99,9.21.95,1.16,2.12,2.59,2.37,3.19.64,1.48,2.35,2.15,3.83,1.52,1.48-.64,2.15-2.35,1.52-3.83-.58-1.33-1.79-2.82-3.2-4.55-1.06-1.31-3.17-3.9-3.61-5.16l5.31.33c.24.31.53.59.9.79,1.13.72,3.68,5.43,4.03,7.43.28,1.58,1.79,2.64,3.37,2.36,1.58-.28,2.64-1.79,2.36-3.37-.25-1.43-1.31-4.2-2.77-6.72l.69.04h.09c.27.44.53.9.8,1.35.5.85,1.01,1.69,1.49,2.54.79,1.4,2.56,1.89,3.96,1.11,1.4-.79,1.89-2.56,1.11-3.97-.06-.12-.14-.22-.2-.33.53-.02,1.06-.03,1.57-.07,1-.06,2.02-.13,2.97-.07,1.61.09,2.99-1.12,3.09-2.72,0-.07-.02-.12-.02-.18,0-.06.04-.1.04-.16.05-.81-.23-1.55-.72-2.11-.49-.56-1.2-.93-2-.98-.95-.06-1.94-.25-2.93-.44-.51-.09-1.04-.18-1.56-.26.07-.1.16-.2.23-.3.83-1.12.74-2.65-.15-3.65-.14-.16-.28-.29-.45-.42-1.29-.96-3.12-.69-4.07.6-.58.78-1.19,1.56-1.79,2.32-.33.43-.64.85-.97,1.27l-.09-.03-.7-.04c1.76-2.31,3.17-4.93,3.59-6.32.31-1.01.05-2.05-.6-2.79-.34-.39-.78-.69-1.32-.85-1.53-.47-3.17.39-3.64,1.92-.6,1.94-3.73,6.31-4.93,6.87-.35.17-.66.41-.92.68l-5.38-.35c.6-1.2,3-3.5,4.23-4.67,1.62-1.54,3.01-2.87,3.74-4.11.66-1.12.49-2.49-.32-3.41-.2-.22-.43-.42-.7-.58-1.38-.81-3.17-.35-3.99,1.04-.32.55-1.66,1.83-2.75,2.86-2.85,2.72-5.74,5.52-6.1,8.51l-3.11-.2c-.62-.03-1.17.16-1.66.46-.33-.16-.7-.27-1.1-.29-.83-.05-1.79-.16-2.78-.29,6.69-3.45,12.77-9.56,15.31-15.22,1.33-2.96,2.33-6.06,3.07-9.49.2-.91-.05-1.85-.66-2.54-.09-.11-.2-.21-.31-.3-2.68-2.25-5.37-4.09-8.24-5.61-5.48-2.92-14.04-4-21.43-2.63.7-.71,1.39-1.37,2.02-1.93.3-.26.52-.57.68-.91.57-.07,1.14-.25,1.59-.66l2.34-2.06c2.1,2.14,6.12,2.57,10.04,2.98,1.48.15,3.33.34,3.93.58,1.5.6,3.19-.14,3.78-1.63.42-1.06.18-2.21-.52-3-.3-.34-.66-.61-1.11-.78-1.35-.53-3.27-.73-5.49-.95-1.68-.18-4.99-.52-6.2-1.1l3.99-3.52c.39.05.79.04,1.2-.08,1.31-.28,6.45,1.24,8.11,2.4,1.31.93,3.13.61,4.05-.71.78-1.12.66-2.61-.2-3.59-.15-.17-.32-.32-.52-.47-1.19-.83-3.9-2.03-6.71-2.78l.52-.46.06-.08c.51.14,1.01.28,1.53.41.95.24,1.91.47,2.85.74,1.55.43,3.15-.47,3.59-2.02.28-.99,0-2-.62-2.71-.37-.41-.84-.72-1.4-.87-.12-.03-.24-.07-.37-.1.36-.39.72-.76,1.06-1.16.66-.75,1.33-1.52,2.05-2.14,1.2-1.06,1.32-2.9.26-4.11-.04-.05-.09-.07-.14-.1,0,0-.05-.11-.09-.16-1.06-1.2-2.9-1.32-4.11-.26-.72.64-1.56,1.2-2.39,1.77-.43.3-.85.6-1.28.91-.02-.13-.03-.25-.06-.38-.23-1.58-1.7-2.69-3.31-2.45-1.58.23-2.69,1.71-2.45,3.3.15.97.26,1.94.38,2.92.07.53.14,1.05.18,1.6l-.05.02-.53.47c-.39-2.88-1.24-5.72-1.92-7.01-.11-.21-.24-.4-.39-.57-.87-.99-2.33-1.29-3.54-.65-1.43.75-1.97,2.51-1.22,3.93.94,1.8,1.82,7.1,1.37,8.35-.14.37-.19.75-.17,1.12l-4.02,3.55c-.43-1.25-.37-4.57-.34-6.27.05-2.23.1-4.15-.26-5.56-.11-.46-.34-.86-.64-1.19-.7-.8-1.81-1.18-2.91-.9-1.56.4-2.49,1.99-2.09,3.55.16.63.12,2.48.09,3.98-.09,3.94-.17,7.96,1.7,10.33l-2.34,2.06c-.46.41-.71.95-.85,1.5-.35.12-.68.3-.98.57-.63.55-1.37,1.14-2.17,1.76,2.28-7.17,2.27-15.79.06-21.6-1.16-3.03-2.64-5.93-4.54-8.87-.08-.12-.16-.24-.26-.35-.61-.69-1.52-1.06-2.44-.97-3.48.3-6.69.91-9.79,1.86-5.93,1.81-12.76,7.09-17.02,13.29,0-1,.01-1.96.07-2.79.03-.4-.03-.78-.16-1.13.35-.45.62-.97.66-1.59l.2-3.11c3.01.03,6.15-2.5,9.2-4.99,1.16-.94,2.6-2.11,3.19-2.37,1.48-.64,2.16-2.35,1.52-3.82-.13-.29-.29-.55-.49-.77-.81-.92-2.14-1.27-3.33-.74-1.33.57-2.83,1.79-4.56,3.19-1.31,1.07-3.9,3.17-5.16,3.61l.34-5.3c.31-.24.59-.54.79-.91.73-1.12,5.43-3.68,7.43-4.03,1.58-.28,2.64-1.79,2.36-3.37-.1-.55-.35-1.04-.68-1.42-.65-.73-1.65-1.12-2.69-.94-1.43.25-4.2,1.32-6.71,2.77l.04-.7v-.09c.45-.27.91-.53,1.37-.81.84-.5,1.68-1,2.53-1.48,1.39-.79,1.89-2.56,1.11-3.97-.11-.18-.23-.35-.36-.5-.89-1.01-2.4-1.29-3.61-.6-.11.05-.22.13-.33.19-.01-.53-.03-1.06-.06-1.58-.06-1-.13-2-.08-2.96.05-.8-.22-1.55-.72-2.1-.49-.56-1.2-.93-2-.98-.06,0-.11.02-.17.02-.06,0-.1-.04-.17-.04-1.6-.1-2.98,1.12-3.09,2.72-.06.96-.26,1.95-.44,2.94-.09.51-.17,1.03-.26,1.55-.11-.08-.2-.16-.3-.24-1.3-.96-3.12-.68-4.07.61-.96,1.29-.69,3.11.61,4.07.78.58,1.56,1.19,2.33,1.8.42.32.84.64,1.25.99l-.02.05-.04.69c-2.32-1.76-4.93-3.16-6.32-3.59-1.53-.47-3.17.39-3.64,1.92-.48,1.54.39,3.17,1.92,3.65,1.93.6,6.29,3.73,6.87,4.93.17.35.4.66.68.92l-.33,5.38c-1.2-.6-3.5-3-4.68-4.23-1.54-1.61-2.87-3-4.11-3.74-1.39-.82-3.17-.36-3.99,1.02-.82,1.39-.36,3.17,1.03,3.99.55.32,1.84,1.67,2.86,2.75,2.73,2.86,5.53,5.75,8.52,6.1l-.2,3.11c-.04.62.16,1.17.45,1.66-.16.33-.26.7-.29,1.1-.05.81-.15,1.73-.27,2.7-1.35-2.58-3.07-5.07-5.03-7.3-3.1-3.52-6.75-6.39-10.2-7.94-2.96-1.33-6.06-2.33-9.49-3.07-1.06-.22-2.14.15-2.84.97-2.25,2.67-4.08,5.37-5.61,8.24-2.92,5.47-4.01,14.03-2.63,21.43-.71-.71-1.38-1.39-1.93-2.02-.26-.3-.58-.53-.91-.69-.07-.57-.25-1.13-.66-1.59l-2.06-2.34c2.14-2.11,2.58-6.12,2.98-10.05.16-1.48.35-3.32.58-3.92.41-1.06.18-2.2-.53-3-.29-.33-.67-.6-1.11-.78-1.5-.6-3.19.14-3.78,1.64-.53,1.35-.73,3.26-.95,5.47-.18,1.68-.51,4.99-1.1,6.21l-3.52-3.99c.05-.39.04-.8-.07-1.2-.28-1.31,1.24-6.45,2.4-8.11.79-1.12.67-2.61-.2-3.59-.15-.17-.32-.32-.51-.46-1.32-.92-3.14-.6-4.06.72-.83,1.19-2.03,3.9-2.78,6.71l-.47-.52s-.07-.06-.07-.06c.14-.51.27-1,.4-1.51.24-.96.48-1.92.74-2.87.28-.99,0-2-.62-2.71-.36-.41-.83-.72-1.39-.88-1.55-.43-3.15.48-3.59,2.02-.03.12-.06.24-.09.36-.39-.36-.77-.71-1.16-1.05-.76-.67-1.52-1.33-2.15-2.06-1.06-1.2-2.9-1.32-4.11-.26-.05.04-.06.1-.11.14-.04.03-.1.04-.15.09-1.2,1.06-1.32,2.9-.26,4.11.64.72,1.2,1.56,1.77,2.39.28.43.6.85.91,1.28-.12.01-.26.03-.38.05-1.58.24-2.68,1.72-2.45,3.31.24,1.59,1.72,2.69,3.31,2.46.97-.15,1.95-.27,2.93-.39.52-.06,1.03-.14,1.58-.18,0,0,0,.03.03.05l.46.53c-2.88.39-5.72,1.24-7.01,1.93-1.42.74-1.97,2.51-1.22,3.93.76,1.42,2.52,1.96,3.93,1.22,1.8-.95,7.1-1.82,8.35-1.37.37.13.75.19,1.13.17l3.55,4.02c-1.25.44-4.57.38-6.27.34-2.23-.05-4.15-.09-5.56.26-1.56.4-2.49,1.98-2.09,3.55.4,1.55,1.98,2.49,3.55,2.09.62-.16,2.48-.12,3.97-.08,3.94.09,7.98.16,10.34-1.71l2.06,2.34c.41.46.95.71,1.5.85.12.35.3.69.57.99.55.62,1.14,1.37,1.76,2.17-7.17-2.29-15.79-2.27-21.59-.06-3.04,1.16-5.94,2.64-8.88,4.54-.9.58-1.41,1.62-1.31,2.69.3,3.48.91,6.69,1.85,9.8,1.81,5.93,7.09,12.75,13.29,17.02-1,0-1.96-.01-2.79-.07-.39-.02-.77.03-1.12.16-.45-.35-.97-.62-1.59-.66l-3.11-.2c.02-3.01-2.5-6.15-4.99-9.21-.94-1.16-2.11-2.6-2.37-3.19-.13-.29-.3-.55-.49-.77-.82-.92-2.16-1.26-3.34-.75-1.48.64-2.15,2.35-1.52,3.83.58,1.33,1.79,2.82,3.2,4.55,1.07,1.31,3.17,3.9,3.61,5.16l-5.31-.34c-.24-.31-.53-.59-.9-.79-1.14-.73-3.68-5.44-4.03-7.43-.09-.55-.34-1.03-.68-1.41-.65-.74-1.65-1.12-2.69-.94-1.58.28-2.63,1.79-2.36,3.37.25,1.43,1.31,4.2,2.77,6.72l-.7-.05s-.09.01-.09.01c-.27-.45-.53-.91-.8-1.37-.51-.85-1.01-1.68-1.49-2.54-.1-.18-.22-.35-.35-.5-.89-1.01-2.4-1.29-3.61-.6-1.4.78-1.89,2.56-1.11,3.96.07.11.14.22.2.33-.52.02-1.05.03-1.56.06-1.01.06-2.02.14-2.98.07-1.6-.09-2.98,1.12-3.09,2.73,0,.05.03.11.02.17s-.04.11-.04.17c-.1,1.6,1.12,2.98,2.72,3.09.95.05,1.95.25,2.94.43.51.09,1.03.18,1.56.26-.08.1-.16.2-.24.3-.96,1.29-.69,3.12.6,4.07,1.29.96,3.11.69,4.07-.6.59-.78,1.2-1.56,1.8-2.33.33-.42.64-.84,1-1.26,0,0,.03.02.06.02l.7.05c-1.76,2.31-3.16,4.92-3.59,6.31-.47,1.54.39,3.17,1.91,3.64,1.54.48,3.17-.38,3.65-1.91.6-1.94,3.73-6.31,4.93-6.87.35-.17.66-.4.92-.68l5.38.34c-.6,1.2-3,3.5-4.23,4.67-1.62,1.54-3,2.88-3.74,4.12-.82,1.38-.37,3.17,1.03,3.99,1.38.82,3.17.36,3.98-1.03.33-.55,1.67-1.83,2.75-2.87,2.86-2.72,5.75-5.52,6.1-8.51l3.11.19c.62.04,1.16-.16,1.66-.46.34.17.7.27,1.1.3.83.05,1.79.16,2.78.28-6.68,3.45-12.77,9.57-15.31,15.22-1.33,2.96-2.33,6.07-3.07,9.49-.23,1.06.15,2.14.97,2.84,2.68,2.25,5.37,4.09,8.24,5.62,5.48,2.91,14.04,4,21.44,2.63-.71.7-1.39,1.37-2.02,1.93-.3.26-.52.57-.69.9-.57.07-1.13.25-1.59.66l-2.34,2.06c-2.11-2.14-6.12-2.57-10.04-2.97-1.49-.15-3.34-.34-3.93-.58-1.5-.59-3.19.14-3.78,1.64-.6,1.5.14,3.19,1.63,3.78,1.35.53,3.27.73,5.49.95,1.68.18,4.99.52,6.2,1.1l-4.01,3.54c-.38-.05-.78-.05-1.18.06-1.3.28-6.45-1.24-8.11-2.41-1.32-.91-3.13-.6-4.06.72-.91,1.31-.6,3.11.72,4.05,1.19.83,3.9,2.04,6.71,2.78l-.52.47s-.05.07-.05.07c-.51-.13-1.01-.28-1.54-.4-.95-.24-1.9-.48-2.85-.74-1.55-.43-3.15.47-3.59,2.02-.43,1.56.48,3.16,2.02,3.59.12.04.24.07.37.1-.35.39-.72.77-1.06,1.15-.66.76-1.33,1.52-2.05,2.16-1.2,1.06-1.32,2.9-.26,4.11.04.04.09.06.14.1.03.05.04.1.08.15,1.06,1.2,2.91,1.32,4.11.26.72-.64,1.56-1.2,2.4-1.77.43-.29.85-.6,1.27-.91.02.13.03.26.05.38.24,1.59,1.71,2.69,3.31,2.46,1.58-.24,2.69-1.72,2.45-3.31-.14-.97-.26-1.94-.38-2.92-.07-.53-.14-1.04-.18-1.59,0,0,.03,0,.05-.03l.53-.46c.39,2.88,1.24,5.71,1.92,7,.76,1.43,2.52,1.97,3.94,1.22,1.42-.76,1.96-2.52,1.22-3.94-.95-1.79-1.82-7.1-1.38-8.35.12-.35.08-.69.08-1.04l4.11-3.63c.44,1.25.38,4.57.34,6.27-.05,2.23-.1,4.16.26,5.56.4,1.56,1.98,2.5,3.54,2.09,1.56-.4,2.5-1.99,2.09-3.55-.16-.62-.12-2.48-.08-3.97.09-3.94.17-7.98-1.7-10.34l2.33-2.06c.46-.41.71-.94.85-1.5.35-.12.69-.3.99-.57.62-.55,1.37-1.15,2.17-1.77-2.28,7.17-2.27,15.8-.06,21.6,1.15,3.04,2.64,5.94,4.53,8.88.59.89,1.62,1.41,2.7,1.32,3.48-.3,6.69-.91,9.79-1.86,5.94-1.81,12.76-7.09,17.02-13.3,0,1-.01,1.96-.07,2.79-.02.39.04.78.16,1.12-.36.45-.62.98-.66,1.59l-.2,3.11c-3-.02-6.15,2.5-9.2,4.99-1.16.94-2.6,2.12-3.19,2.37-1.48.64-2.15,2.35-1.52,3.82.64,1.48,2.35,2.15,3.83,1.52,1.33-.57,2.82-1.79,4.55-3.2,1.31-1.07,3.9-3.17,5.16-3.61l-.33,5.3c-.31.24-.59.54-.79.91-.72,1.12-5.43,3.68-7.43,4.04-1.58.28-2.64,1.79-2.35,3.37.28,1.58,1.78,2.64,3.37,2.35,1.43-.25,4.2-1.32,6.71-2.77l-.04.7s.01.05.01.09c-.46.27-.91.53-1.37.8-.84.51-1.68,1.01-2.53,1.5-1.4.78-1.9,2.56-1.11,3.97.78,1.39,2.56,1.89,3.97,1.1.12-.06.22-.13.33-.2.01.53.03,1.06.06,1.58.06,1.01.13,2.01.07,2.96-.09,1.6,1.12,2.99,2.73,3.09.06,0,.11-.01.17-.02,0,0,.11.04.17.05,1.6.09,2.99-1.12,3.08-2.73.06-.95.26-1.95.44-2.94.09-.51.18-1.03.26-1.54.11.07.2.16.3.23,1.29.96,3.12.69,4.07-.6.83-1.12.74-2.65-.15-3.66-.14-.15-.29-.29-.45-.42-.78-.58-1.56-1.18-2.33-1.79-.41-.32-.84-.64-1.25-.99,0,0,.02-.03.02-.06l.05-.7c2.31,1.77,4.92,3.17,6.31,3.6,1.53.47,3.17-.39,3.64-1.92.31-1,.05-2.05-.6-2.79-.34-.39-.78-.69-1.31-.85-1.94-.6-6.31-3.73-6.87-4.93-.17-.36-.4-.67-.68-.92l.34-5.38c1.2.6,3.5,3,4.67,4.22,1.54,1.61,2.87,3.01,4.11,3.75,1.39.81,3.17.36,3.99-1.03.66-1.12.48-2.48-.32-3.4-.2-.22-.43-.43-.7-.58-.55-.33-1.83-1.67-2.87-2.75-2.72-2.86-5.52-5.75-8.51-6.1l.2-3.12c.04-.62-.16-1.16-.45-1.66.16-.33.26-.7.29-1.1.05-.83.16-1.79.29-2.77,3.45,6.68,9.57,12.77,15.22,15.31,2.97,1.33,6.07,2.33,9.49,3.07,1.06.22,2.14-.15,2.84-.97,2.25-2.68,4.09-5.37,5.62-8.24,2.91-5.48,4-14.04,2.63-21.44.71.71,1.38,1.4,1.93,2.02.26.29.57.52.91.68.06.57.24,1.13.65,1.6l2.06,2.33c-2.14,2.12-2.58,6.12-2.98,10.04-.15,1.49-.34,3.34-.58,3.93-.59,1.5.15,3.19,1.64,3.78,1.5.59,3.19-.14,3.78-1.64.53-1.35.73-3.26.96-5.48.17-1.68.51-4.99,1.09-6.2l3.52,3.99c-.05.39-.03.8.08,1.2.28,1.31-1.25,6.45-2.41,8.11-.91,1.31-.6,3.11.72,4.05,1.32.92,3.14.6,4.06-.72.83-1.2,2.03-3.9,2.78-6.72l.47.53s.05.03.05.03c-.12.53-.26,1.04-.38,1.55-.24.95-.48,1.91-.75,2.86-.43,1.55.47,3.15,2.02,3.59,1.55.43,3.15-.47,3.59-2.02.04-.13.07-.25.09-.37.39.35.77.72,1.16,1.06.76.66,1.52,1.33,2.15,2.05,1.06,1.2,2.91,1.32,4.11.26.05-.04.07-.09.11-.14ZM135.79,117.4c-.35.7-.39,1.52-.13,2.27.66,1.84,1.2,3.76,1.57,5.58-1.15.06-2.35.09-3.58.11-2.44.05-4.96.09-7.46.47-.95.15-1.67.75-2.09,1.54-.83.31-1.52.96-1.79,1.88-.69,2.42-1.05,4.92-1.4,7.33-.17,1.22-.35,2.41-.55,3.54-1.77-.6-3.59-1.36-5.34-2.25-.7-.36-1.52-.41-2.26-.16-.75.25-1.36.8-1.7,1.51-.83,1.77-1.8,3.5-2.84,5.05-.86-.76-1.72-1.59-2.61-2.45-1.75-1.69-3.57-3.44-5.6-4.93-.76-.56-1.7-.65-2.54-.4-.81-.37-1.78-.39-2.62.07-2.21,1.23-4.23,2.74-6.18,4.2-.99.74-1.95,1.46-2.89,2.11-.83-1.67-1.58-3.51-2.19-5.37-.24-.75-.78-1.37-1.49-1.71-.71-.35-1.52-.39-2.27-.13-1.84.66-3.75,1.2-5.58,1.56-.06-1.14-.08-2.33-.11-3.57-.04-2.44-.09-4.97-.47-7.46-.16-.94-.76-1.67-1.55-2.08-.31-.83-.96-1.53-1.87-1.79-2.43-.69-4.93-1.05-7.35-1.4-1.21-.18-2.4-.35-3.53-.55.6-1.77,1.36-3.59,2.25-5.34.35-.7.41-1.52.16-2.27-.26-.74-.81-1.35-1.51-1.68-1.77-.83-3.5-1.81-5.05-2.84.76-.85,1.6-1.71,2.45-2.61,1.69-1.75,3.44-3.57,4.93-5.6.58-.78.68-1.74.41-2.59.35-.81.39-1.74-.07-2.57-1.23-2.21-2.74-4.22-4.2-6.18-.74-.99-1.45-1.94-2.1-2.9,1.66-.83,3.5-1.58,5.36-2.18.75-.24,1.37-.78,1.72-1.49.35-.71.39-1.53.12-2.27-.66-1.84-1.2-3.76-1.56-5.58,1.14-.07,2.35-.09,3.58-.11,2.44-.05,4.96-.09,7.45-.47.95-.14,1.67-.76,2.09-1.54.83-.32,1.52-.96,1.79-1.88.69-2.43,1.06-4.93,1.4-7.34.18-1.22.35-2.4.55-3.53,1.77.6,3.59,1.36,5.34,2.25.7.36,1.52.41,2.27.16.74-.26,1.35-.8,1.68-1.51.84-1.78,1.81-3.5,2.84-5.05.86.76,1.72,1.6,2.61,2.45,1.76,1.69,3.57,3.44,5.6,4.94.77.56,1.72.65,2.56.39.82.37,1.77.4,2.6-.07,2.21-1.22,4.23-2.74,6.18-4.2.98-.74,1.94-1.45,2.88-2.1.83,1.66,1.58,3.5,2.19,5.37.24.74.78,1.36,1.48,1.71.71.35,1.53.39,2.27.12,1.85-.66,3.75-1.19,5.58-1.56.06,1.15.09,2.34.11,3.57.04,2.44.09,4.97.47,7.46.14.95.75,1.67,1.54,2.09.32.83.96,1.53,1.89,1.79,2.42.7,4.92,1.06,7.33,1.4,1.22.18,2.4.35,3.53.55-.6,1.77-1.36,3.6-2.25,5.34-.36.7-.42,1.52-.16,2.27s.8,1.35,1.52,1.68c1.77.84,3.5,1.81,5.05,2.84-.76.86-1.6,1.72-2.44,2.61-1.7,1.75-3.44,3.57-4.94,5.61-.57.77-.65,1.71-.39,2.56-.37.81-.41,1.76.06,2.6,1.22,2.2,2.74,4.22,4.2,6.17.74.99,1.45,1.95,2.1,2.9-1.66.83-3.5,1.58-5.37,2.19-.74.24-1.36.78-1.71,1.49ZM102.25,146.85c0-.09-.05-.18-.06-.26,1.55,1.48,3.15,2.98,4.87,4.24,1.25.91,2.99.68,3.97-.53.62-.76,1.22-1.6,1.81-2.48,0,.1-.02.2,0,.3.29,1.58,1.81,2.63,3.39,2.33.65,0,1.18-.2,1.7-.6,1.42-.75,1.94-2.5,1.19-3.92-.03-.06-.08-.11-.12-.17.97.31,1.94.6,2.86.82,1.51.35,3.02-.53,3.45-2.02.6-2.05.94-4.21,1.25-6.33.05.08.05.17.12.25,4.28,5.74,3.9,18.28.58,24.52-1.08,2.02-2.33,3.94-3.82,5.85-2.34-.6-4.52-1.35-6.6-2.29-6.45-2.89-14.45-12.56-14.58-19.72ZM68.22,134.82c.07-.06.09-.16.15-.23.04,2.15.11,4.34.44,6.44.24,1.53,1.64,2.61,3.18,2.44.97-.11,1.99-.28,3.03-.47-.06.07-.15.11-.2.19-.92,1.32-.6,3.13.73,4.05.46.47.99.71,1.66.79,1.54.48,3.12-.38,3.6-1.91.03-.08,0-.17,0-.25.47.92.95,1.81,1.45,2.63.82,1.29,2.52,1.76,3.88,1.01,1.87-1.03,3.64-2.32,5.36-3.6-.02.09-.08.16-.09.26-1.02,7.09-10.16,15.68-16.93,17.75-2.18.66-4.43,1.14-6.83,1.43-1.24-2.08-2.25-4.15-3.06-6.28-2.51-6.61-1.33-19.1,3.64-24.26ZM52.67,102.25c.09,0,.18-.05.26-.05-1.48,1.54-2.98,3.13-4.24,4.86-.91,1.25-.67,2.99.52,3.97.77.62,1.62,1.24,2.51,1.84-.12,0-.22-.05-.33-.03-1.58.28-2.63,1.81-2.33,3.39,0,.67.2,1.2.62,1.72.74,1.43,2.48,1.93,3.9,1.18.07-.03.1-.09.16-.13-.31.97-.6,1.94-.82,2.86-.35,1.51.53,3.02,2.02,3.46,2.05.6,4.21.93,6.33,1.24-.07.05-.17.07-.24.12-5.74,4.29-18.28,3.9-24.53.58-2.02-1.08-3.94-2.33-5.85-3.82.6-2.35,1.35-4.52,2.27-6.6,2.9-6.45,12.57-14.45,19.73-14.58ZM64.7,68.22c.07.07.16.09.23.15-2.14.04-4.33.11-6.44.45-1.52.24-2.6,1.63-2.44,3.17.1.96.27,1.98.47,2.99-.07-.05-.12-.12-.18-.16-1.32-.92-3.14-.6-4.06.72-.45.45-.7.99-.78,1.64-.49,1.53.38,3.12,1.91,3.61.08.02.16,0,.24.02-.91.47-1.81.95-2.61,1.45-1.32.82-1.76,2.52-1.01,3.88,1.02,1.87,2.31,3.64,3.6,5.37-.09-.03-.17-.08-.26-.09-7.09-1.03-15.68-10.17-17.75-16.94-.67-2.19-1.14-4.43-1.44-6.83,2.08-1.23,4.15-2.24,6.29-3.05,6.6-2.52,19.09-1.33,24.26,3.63ZM97.26,52.67c0,.09.05.18.06.26-1.55-1.48-3.14-2.98-4.86-4.24-1.25-.91-3-.68-3.97.52-.62.76-1.22,1.6-1.81,2.48,0-.1.03-.2,0-.3-.1-.53-.34-1.01-.68-1.39-.66-.74-1.67-1.13-2.71-.94-.64,0-1.19.21-1.7.6-1.42.74-1.94,2.48-1.2,3.9.04.07.11.12.15.19-.97-.32-1.95-.61-2.88-.83-1.51-.36-3.02.53-3.46,2.02-.6,2.04-.93,4.2-1.24,6.33-.05-.08-.06-.18-.12-.25-4.28-5.74-3.9-18.28-.58-24.52,1.08-2.02,2.34-3.94,3.82-5.85,2.35.6,4.52,1.35,6.6,2.28,6.45,2.9,14.45,12.56,14.58,19.72ZM131.3,64.7c-.07.07-.1.16-.16.23-.04-2.14-.11-4.34-.44-6.44-.09-.57-.34-1.06-.69-1.46-.6-.69-1.52-1.08-2.49-.97-.97.1-2,.28-3.02.47.06-.07.14-.12.2-.2.79-1.12.67-2.61-.2-3.59-.16-.18-.32-.32-.52-.47-.47-.46-1.01-.71-1.66-.78-1.54-.47-3.12.41-3.59,1.94-.02.07,0,.14-.02.2-.47-.91-.95-1.81-1.45-2.61-.83-1.31-2.52-1.76-3.88-1.01-1.87,1.02-3.64,2.31-5.36,3.6.02-.09.08-.16.09-.26,1.02-7.08,10.17-15.68,16.93-17.75,2.19-.66,4.43-1.14,6.83-1.43,1.24,2.08,2.25,4.14,3.05,6.28,2.52,6.61,1.34,19.09-3.63,24.26ZM146.85,97.26c-.09,0-.18.05-.27.06,1.49-1.55,2.99-3.14,4.24-4.86.91-1.26.68-2.99-.52-3.97-.76-.62-1.6-1.22-2.47-1.81.09,0,.17.02.26,0,1.58-.27,2.65-1.78,2.37-3.36,0-.66-.21-1.21-.61-1.73-.11-.21-.24-.4-.39-.57-.87-.98-2.31-1.26-3.53-.62-.07.04-.12.11-.18.15.31-.97.61-1.96.83-2.88.22-.95-.06-1.91-.66-2.59-.35-.4-.81-.71-1.37-.87-2.05-.59-4.21-.93-6.33-1.24.08-.05.18-.06.25-.12,5.74-4.28,18.28-3.9,24.52-.58,2.02,1.07,3.94,2.33,5.85,3.81-.6,2.35-1.34,4.52-2.27,6.6-2.9,6.45-12.56,14.45-19.73,14.58ZM134.82,131.3c-.07-.07-.16-.09-.23-.15,2.14-.05,4.34-.11,6.43-.45,1.54-.24,2.61-1.64,2.44-3.17-.1-.97-.27-2-.47-3.03.07.06.12.15.2.2,1.32.91,3.13.59,4.05-.73.45-.45.69-.97.78-1.61.31-1,.06-2.03-.59-2.77-.34-.38-.78-.68-1.32-.85-.09-.03-.17,0-.26-.03.92-.47,1.82-.95,2.64-1.46,1.31-.82,1.76-2.52,1.01-3.87-1.03-1.87-2.32-3.64-3.6-5.37.09.03.16.08.26.09,7.08,1.03,15.68,10.16,17.75,16.93.66,2.19,1.14,4.43,1.44,6.83-2.08,1.24-4.15,2.24-6.29,3.06-6.6,2.52-19.09,1.33-24.26-3.63Z"/>
    </g>
  </g>
</svg>