<?xml version="1.0" encoding="UTF-8"?>
<svg id="Layer_2" data-name="Layer 2" xmlns="http://www.w3.org/2000/svg" viewBox="0 0 133.49 133.49">
  <defs>
    <style>
      .cls-1 {
        fill: #fff;
      }
    </style>
  </defs>
  <g id="Layer_1-2" data-name="Layer 1">
    <path class="cls-1" d="M110.06,15.85c-.99-.5-2.17-.29-2.93.45-.2.2-.38.43-.51.7-.31.62-.68,1.3-1.06,2.02-1.75,3.24-3.71,6.92-3.86,10.23,0,.01,0,.03,0,.03l-1.72,1.68c.98-4.15,1.6-8.34,1.24-12.92-.11-1.41-1.34-2.46-2.75-2.35-.62.05-1.17.32-1.58.71-.53.51-.84,1.25-.78,2.05.48,6.1-1.14,11.79-2.85,17.82l-.47,1.64-3.88,3.75c-.15-1.49-.23-3.15-.27-4.13-.04-.87-.07-1.66-.13-2.27-.12-1.41-.22-2.86-.31-4.33-.11-1.79-.26-3.58-.43-5.37.08-.06.17-.09.24-.16.51-.49,1.03-.97,1.56-1.46,1.92-1.81,3.92-3.66,5.46-5.91.8-1.17.5-2.77-.67-3.57-1.02-.7-2.37-.56-3.23.27-.12.12-.24.25-.33.4-.87,1.27-1.99,2.44-3.21,3.62.02-1.71.12-3.32.45-4.82.3-1.38-.57-2.75-1.95-3.06-.87-.2-1.75.08-2.34.66-.35.34-.61.77-.73,1.29-.59,2.66-.58,5.39-.58,8.02,0,.71,0,1.43,0,2.13,0,.09.04.18.05.28-1.42,1.1-2.83,2.22-4.21,3.36-1.14.93-2.26,1.85-3.38,2.73-.48.38-1.08.89-1.75,1.45-.74.64-2.01,1.71-3.21,2.62l.09-5.39.89-1.47c3.23-5.36,6.29-10.41,11.07-14.23,1.1-.9,1.29-2.5.41-3.61s-2.5-1.29-3.6-.41c-3.58,2.86-6.22,6.16-8.59,9.72l.04-2.39.04-.03c2.32-2.37,3.66-6.33,4.84-9.81.26-.77.51-1.5.75-2.15.49-1.33-.19-2.8-1.52-3.29-.96-.35-1.99-.1-2.67.56-.27.26-.49.58-.62.95-.26.7-.52,1.47-.79,2.27-.4,1.18-.85,2.47-1.33,3.69-.34-.18-.72-.3-1.13-.31h-.07s-.05,0-.07,0c-.41,0-.79.11-1.14.28-.45-1.24-.85-2.54-1.2-3.73-.24-.82-.48-1.6-.71-2.3-.45-1.35-1.89-2.07-3.24-1.63-.38.12-.7.33-.97.6-.68.66-.98,1.68-.66,2.65.22.66.44,1.39.68,2.17,1.06,3.53,2.27,7.52,4.5,9.97l.05.03-.04,2.38c-2.25-3.63-4.77-7.03-8.26-10.01-1.01-.87-2.5-.8-3.44.11-.06.05-.12.12-.17.18-.92,1.08-.79,2.7.28,3.61,4.66,3.98,7.54,9.15,10.58,14.62l.83,1.49-.09,5.4c-1.16-.95-2.4-2.06-3.12-2.73-.65-.59-1.23-1.12-1.7-1.52-1.09-.91-2.19-1.88-3.28-2.85-1.35-1.18-2.72-2.34-4.1-3.49.01-.09.06-.18.06-.28.01-.71.03-1.42.06-2.14.09-2.63.19-5.36-.31-8.04-.26-1.39-1.6-2.31-2.99-2.05-.51.1-.96.35-1.31.68-.6.58-.91,1.44-.74,2.31.28,1.52.32,3.14.28,4.83-1.18-1.22-2.26-2.43-3.08-3.72-.76-1.19-2.34-1.55-3.54-.79-.15.09-.28.21-.41.32-.86.83-1.04,2.17-.38,3.21,1.47,2.3,3.4,4.23,5.26,6.09.51.51,1.01,1.01,1.5,1.52.07.07.15.1.23.17-.22,1.78-.43,3.58-.6,5.36-.15,1.45-.29,2.9-.46,4.31-.07.62-.14,1.4-.2,2.27-.08.97-.21,2.63-.42,4.11l-3.75-3.88-.41-1.66c-1.51-6.08-2.93-11.82-2.25-17.9.16-1.41-.85-2.68-2.26-2.84-1.4-.16-2.67.85-2.84,2.26-.51,4.56-.04,8.77.8,12.95l-1.66-1.73v-.03c-.03-3.32-1.87-7.06-3.5-10.35-.36-.73-.7-1.42-.99-2.06-.6-1.29-2.12-1.85-3.4-1.25-.26.12-.51.29-.71.48-.76.74-1.01,1.91-.54,2.92.31.67.67,1.4,1.05,2.17.55,1.11,1.15,2.33,1.67,3.54-.37.12-.72.29-1.04.6l-.03.04s-.04.02-.05.04c-.3.28-.49.63-.62.99-1.19-.56-2.4-1.2-3.49-1.79-.75-.41-1.47-.78-2.12-1.12-1-.51-2.17-.29-2.94.45-.2.19-.37.42-.51.69-.63,1.27-.13,2.8,1.14,3.44.62.31,1.3.68,2.01,1.06,3.25,1.75,6.92,3.71,10.24,3.87h.05s1.66,1.71,1.66,1.71c-4.15-.98-8.34-1.6-12.91-1.24-.62.05-1.16.31-1.58.71-.53.51-.83,1.25-.77,2.04.11,1.41,1.35,2.47,2.75,2.36,6.1-.49,11.79,1.13,17.81,2.84l1.65.47,3.76,3.88c-1.49.15-3.16.23-4.14.27-.87.04-1.66.08-2.27.14-1.41.12-2.86.21-4.32.3-1.79.12-3.59.26-5.39.43-.06-.08-.09-.17-.16-.24-.49-.51-.98-1.03-1.47-1.55-1.8-1.94-3.66-3.92-5.91-5.47-1.02-.7-2.37-.55-3.23.27-.12.12-.24.25-.33.4-.81,1.17-.5,2.77.66,3.57,1.27.87,2.44,1.99,3.62,3.21-1.7-.03-3.32-.12-4.82-.45-.87-.2-1.74.08-2.34.66-.34.33-.6.77-.72,1.28-.31,1.39.56,2.75,1.94,3.07,2.66.59,5.39.59,8.02.58.72,0,1.43,0,2.13.01.1,0,.19-.04.28-.05,1.1,1.43,2.23,2.85,3.37,4.24.93,1.12,1.85,2.24,2.72,3.35.39.49.89,1.08,1.46,1.75.63.74,1.7,2.01,2.61,3.21l-5.39-.09-1.47-.89c-5.36-3.23-10.43-6.28-14.24-11.07-.88-1.1-2.5-1.29-3.61-.41l-.18.16c-.94.91-1.06,2.4-.22,3.44,2.86,3.59,6.17,6.22,9.72,8.59l-2.38-.04s-.02-.03-.03-.05c-2.37-2.31-6.32-3.65-9.8-4.84-.76-.26-1.5-.51-2.15-.75-.95-.35-1.98-.09-2.67.57-.27.26-.49.58-.63.95-.49,1.33.2,2.8,1.52,3.29.69.26,1.47.52,2.28.8,1.17.4,2.46.84,3.68,1.33-.18.34-.3.71-.31,1.15,0,0,.01.02.01.04,0,0-.01.05-.01.07,0,.41.1.78.27,1.14-1.24.44-2.54.84-3.73,1.2-.82.25-1.6.48-2.29.72-.38.12-.71.32-.98.59-.68.66-.97,1.68-.65,2.65.44,1.35,1.89,2.08,3.23,1.63.66-.22,1.4-.44,2.17-.67,3.53-1.06,7.52-2.27,9.97-4.51l.03-.04,2.39.04c-3.63,2.25-7.02,4.77-10.01,8.25-.92,1.08-.79,2.7.28,3.62,1.08.91,2.67.78,3.61-.29,3.97-4.65,9.13-7.53,14.6-10.58l1.5-.84,5.41.09c-.95,1.16-2.08,2.4-2.74,3.12-.58.65-1.12,1.22-1.51,1.69-.92,1.09-1.88,2.19-2.85,3.29-1.18,1.34-2.35,2.71-3.5,4.09-.09-.01-.18-.05-.28-.06-.7,0-1.41-.03-2.12-.06-2.64-.09-5.37-.19-8.05.31-.51.09-.96.34-1.31.68-.6.58-.91,1.43-.74,2.31.26,1.39,1.6,2.31,2.99,2.05,1.51-.28,3.13-.32,4.83-.28-1.22,1.18-2.43,2.26-3.72,3.09-.16.1-.29.2-.41.32-.86.83-1.04,2.17-.38,3.21.76,1.2,2.35,1.55,3.54.79,2.3-1.46,4.22-3.4,6.09-5.26.5-.51,1.01-1.01,1.52-1.5.07-.07.1-.16.16-.24,1.79.22,3.58.43,5.37.61,1.46.14,2.9.28,4.31.45.61.07,1.39.14,2.27.2.97.08,2.63.22,4.11.43l-3.88,3.74-1.65.41c-6.08,1.51-11.82,2.93-17.9,2.25-.79-.09-1.54.19-2.07.7-.41.4-.7.94-.77,1.56-.16,1.41.86,2.68,2.26,2.84,4.56.51,8.77.04,12.95-.8l-1.71,1.66s-.03,0-.03,0c-3.33.03-7.07,1.88-10.37,3.51-.72.36-1.41.7-2.05.99-.27.13-.51.29-.71.49-.76.73-1.01,1.9-.55,2.92.59,1.29,2.12,1.85,3.4,1.26.68-.31,1.41-.68,2.17-1.06,1.12-.55,2.33-1.15,3.55-1.66.12.37.29.72.58,1.01.02.02.04.03.04.03l.06.07c.29.29.63.48.99.61-.56,1.19-1.2,2.4-1.79,3.49-.41.75-.79,1.47-1.12,2.12-.63,1.27-.13,2.81,1.14,3.44,1.27.64,2.81.13,3.44-1.14.31-.62.68-1.3,1.06-2.01,1.75-3.24,3.72-6.92,3.87-10.24v-.05s1.71-1.66,1.71-1.66c-.97,4.15-1.6,8.34-1.24,12.92.12,1.41,1.35,2.46,2.76,2.35,1.41-.11,2.46-1.34,2.35-2.75-.48-6.1,1.14-11.79,2.85-17.81l.46-1.65,3.89-3.76c.15,1.5.22,3.16.27,4.14.04.87.07,1.66.13,2.27.12,1.41.22,2.86.31,4.31.11,1.79.26,3.59.42,5.39-.07.06-.17.09-.24.16-.51.49-1.03.97-1.56,1.46-.55.51-1.1,1.03-1.65,1.56-1.37,1.33-2.71,2.74-3.81,4.35-.8,1.16-.5,2.76.67,3.57,1.16.8,2.76.51,3.56-.67.87-1.27,1.99-2.44,3.21-3.61-.03,1.69-.12,3.32-.45,4.81-.31,1.39.56,2.75,1.94,3.06,1.38.31,2.75-.56,3.06-1.94.6-2.66.59-5.39.59-8.03,0-.71,0-1.42,0-2.12,0-.1-.04-.18-.05-.28,1.43-1.1,2.84-2.23,4.24-3.37,1.12-.93,2.24-1.84,3.36-2.71.48-.39,1.08-.89,1.75-1.46.74-.64,2-1.71,3.21-2.62l-.09,5.4-.89,1.46c-3.23,5.36-6.29,10.43-11.07,14.24-1.12.91-1.29,2.5-.41,3.61.88,1.11,2.5,1.29,3.6.41,3.59-2.86,6.22-6.17,8.59-9.72l-.04,2.37-.04.04c-2.32,2.37-3.66,6.32-4.84,9.81-.26.76-.5,1.5-.74,2.15-.49,1.33.19,2.8,1.52,3.29,1.33.49,2.8-.2,3.29-1.52.26-.7.52-1.47.79-2.28.4-1.18.84-2.46,1.33-3.69.35.18.71.3,1.13.31,0,0,.04,0,.07-.01l.07.02c.41,0,.79-.11,1.14-.28.45,1.24.84,2.54,1.2,3.73.25.83.49,1.6.72,2.31.45,1.34,1.89,2.07,3.24,1.63,1.33-.45,2.08-1.89,1.62-3.24-.22-.66-.43-1.4-.67-2.17-1.06-3.53-2.27-7.52-4.51-9.98l-.03-.02.04-2.38c2.25,3.63,4.77,7.02,8.26,10.01,1.08.92,2.67.79,3.61-.28.92-1.08.79-2.7-.28-3.61-4.66-3.98-7.53-9.14-10.58-14.61l-.83-1.5.09-5.41c1.16.95,2.39,2.08,3.12,2.73.65.59,1.23,1.12,1.7,1.52,1.08.91,2.17,1.87,3.26,2.83,1.35,1.19,2.73,2.37,4.12,3.52-.01.09-.06.18-.06.28-.01.7-.04,1.41-.07,2.13-.09,2.63-.18,5.37.32,8.04.26,1.39,1.6,2.31,2.99,2.05,1.39-.26,2.31-1.6,2.05-2.99-.28-1.51-.32-3.13-.29-4.83,1.18,1.22,2.27,2.43,3.09,3.73.76,1.19,2.34,1.55,3.54.78,1.2-.76,1.55-2.35.78-3.54-1.46-2.3-3.39-4.22-5.26-6.09-.51-.5-1.01-1.01-1.5-1.52-.07-.07-.16-.09-.23-.16.22-1.79.43-3.59.6-5.38.15-1.45.28-2.89.45-4.29.07-.62.14-1.39.21-2.27.07-.97.21-2.63.42-4.11l3.75,3.88.41,1.66c1.5,6.08,2.92,11.81,2.23,17.9-.16,1.41.85,2.67,2.26,2.84,1.41.16,2.68-.86,2.84-2.26.51-4.56.04-8.76-.79-12.95l1.66,1.72v.05c.03,3.32,1.87,7.06,3.5,10.37.35.72.7,1.41.99,2.04.6,1.28,2.12,1.84,3.4,1.25s1.85-2.12,1.25-3.4c-.31-.67-.67-1.4-1.05-2.17-.55-1.12-1.15-2.34-1.67-3.55.37-.12.72-.29,1.02-.58,0,0,.02-.04.03-.06l.06-.03c.3-.28.49-.63.62-.99,1.18.56,2.39,1.2,3.48,1.79.76.41,1.48.79,2.14,1.12,1.27.64,2.8.13,3.44-1.14.64-1.27.13-2.81-1.14-3.44-.62-.31-1.3-.68-2.02-1.06-3.24-1.74-6.92-3.71-10.22-3.86h-.05s-1.66-1.71-1.66-1.71c4.15.98,8.34,1.6,12.92,1.24,1.41-.11,2.47-1.35,2.35-2.76-.11-1.41-1.35-2.46-2.76-2.35-6.1.48-11.79-1.14-17.81-2.85l-1.64-.46-3.76-3.88c1.49-.15,3.15-.23,4.13-.28.87-.04,1.66-.07,2.27-.13,1.42-.12,2.86-.21,4.32-.3,1.79-.12,3.59-.26,5.38-.43.06.07.08.17.15.24.49.51.98,1.02,1.47,1.55,1.8,1.93,3.66,3.92,5.9,5.46,1.17.81,2.77.51,3.57-.67.81-1.16.5-2.76-.66-3.56-1.27-.87-2.44-1.99-3.62-3.21,1.7.03,3.32.12,4.82.45,1.38.3,2.75-.57,3.06-1.95.31-1.38-.56-2.75-1.95-3.06-2.66-.59-5.39-.59-8.02-.58-.72,0-1.43,0-2.13-.01-.09,0-.18.04-.28.05-1.1-1.42-2.22-2.84-3.35-4.22-.93-1.14-1.86-2.26-2.74-3.38-.38-.49-.89-1.09-1.46-1.75-.63-.74-1.71-2.01-2.61-3.21l5.39.09,1.46.89c5.36,3.23,10.43,6.29,14.24,11.08.88,1.1,2.5,1.29,3.6.41,1.12-.91,1.29-2.5.41-3.61-2.86-3.59-6.17-6.22-9.72-8.59l2.39.04.03.04c2.37,2.32,6.32,3.66,9.81,4.84.76.26,1.5.51,2.14.74,1.33.49,2.8-.19,3.3-1.52.49-1.33-.19-2.8-1.52-3.3-.69-.26-1.46-.51-2.27-.79-1.18-.39-2.47-.84-3.69-1.33.18-.34.3-.71.31-1.12,0-.03-.01-.05-.01-.09v-.05c.02-.41-.09-.78-.26-1.14,1.23-.44,2.54-.84,3.72-1.2.83-.24,1.6-.48,2.31-.72,1.34-.44,2.08-1.89,1.63-3.23-.44-1.35-1.89-2.08-3.24-1.63-.66.22-1.39.44-2.17.67-3.53,1.07-7.53,2.27-9.98,4.52l-.03.03-2.37-.04c3.63-2.25,7.03-4.77,10.01-8.25.92-1.08.79-2.7-.28-3.61-1.08-.92-2.69-.79-3.61.28-3.98,4.66-9.14,7.54-14.61,10.58l-1.49.84-5.41-.09c.95-1.16,2.07-2.4,2.73-3.11.6-.65,1.12-1.23,1.52-1.71.91-1.08,1.87-2.17,2.83-3.26,1.18-1.35,2.36-2.73,3.52-4.12.09.01.18.06.28.06.7.01,1.41.04,2.13.07,2.64.09,5.36.18,8.04-.32,1.39-.26,2.31-1.6,2.05-2.99-.26-1.39-1.6-2.31-2.99-2.04-1.52.28-3.14.32-4.83.28,1.22-1.18,2.43-2.26,3.72-3.09,1.21-.76,1.55-2.35.79-3.55-.76-1.19-2.35-1.54-3.54-.78-1.64,1.05-3.1,2.33-4.48,3.66-.55.53-1.08,1.07-1.61,1.6-.51.51-1.01,1.01-1.52,1.51-.07.07-.1.16-.16.23-1.79-.23-3.59-.43-5.37-.61-1.45-.15-2.9-.28-4.3-.45-.61-.07-1.39-.14-2.27-.21-.97-.07-2.63-.21-4.12-.42l3.88-3.75,1.67-.41c6.07-1.51,11.81-2.93,17.89-2.24,1.41.16,2.68-.85,2.84-2.26.16-1.41-.85-2.68-2.26-2.84-4.55-.51-8.76-.04-12.95.8l1.72-1.66h.05c3.32-.03,7.06-1.88,10.36-3.51.72-.36,1.41-.7,2.04-.99,1.29-.59,1.85-2.12,1.25-3.4-.6-1.29-2.11-1.85-3.4-1.26-.66.31-1.39.67-2.16,1.05-1.12.55-2.34,1.15-3.55,1.67-.12-.37-.29-.72-.6-1.04,0,0-.02,0-.04-.02,0,0-.02-.04-.03-.06-.29-.3-.64-.49-1-.61.56-1.19,1.2-2.39,1.79-3.48.41-.76.79-1.48,1.13-2.14.63-1.27.12-2.8-1.14-3.44ZM66.85,64.61c.31,0,.61-.06.89-.16.12.27.27.54.49.76.02.01.05.02.06.04.02.01.04.06.04.06.22.22.47.39.74.51-.11.28-.19.57-.19.89,0,.02,0,.04,0,.09v.05c-.02.32.05.61.15.89-.27.12-.53.27-.78.51,0,0,0,.02-.02.04-.02.01-.05.02-.05.02-.24.24-.41.49-.53.76-.28-.11-.58-.19-.91-.2,0,0-.02.01-.05.01h-.07c-.31-.02-.61.05-.89.15-.11-.28-.27-.53-.5-.78l-.04-.03s-.03-.04-.03-.04c-.23-.24-.49-.41-.76-.53.11-.28.18-.57.19-.89,0,0-.01-.05-.01-.07l.02-.07c0-.32-.07-.62-.17-.89.27-.12.54-.27.76-.49l.04-.06s.06-.03.06-.03c.22-.22.39-.48.51-.75.28.11.57.19.89.2h.07s.07,0,.07,0ZM94.1,64.58l-20.95-.36,15.07-14.56c1.98.74,4.72,1.04,8.08,1.3.8.07,1.52.13,2.07.19,1.45.18,2.92.32,4.41.47.61.06,1.24.12,1.87.19-.42.47-.83.94-1.24,1.41-.99,1.12-1.96,2.23-2.9,3.34-.36.43-.85.97-1.39,1.56-2.27,2.49-4.07,4.57-5.01,6.47ZM87.61,84.54l-14.55-15.05,20.96.35c.87,1.92,2.6,4.07,4.78,6.64.52.61.99,1.16,1.34,1.6.9,1.15,1.85,2.3,2.8,3.46.39.47.78.95,1.17,1.43-.62.04-1.24.07-1.87.12-1.49.09-2.97.19-4.43.31-.55.05-1.28.08-2.08.12-3.38.15-6.13.33-8.13,1.01ZM68.91,94.1l.36-20.96,14.56,15.07c-.74,1.98-1.03,4.72-1.3,8.09-.07.79-.13,1.52-.19,2.07-.17,1.44-.32,2.92-.46,4.4-.07.62-.13,1.25-.19,1.87-.47-.41-.95-.83-1.41-1.24-1.12-.99-2.23-1.97-3.34-2.9-.43-.37-.96-.85-1.56-1.39-2.49-2.27-4.57-4.07-6.47-5.01ZM48.94,87.62l15.07-14.56-.36,20.96c-1.92.87-4.07,2.61-6.64,4.79-.61.52-1.16.99-1.6,1.33-1.14.9-2.28,1.83-3.44,2.78-.48.4-.97.8-1.45,1.2-.05-.63-.09-1.26-.12-1.88-.1-1.49-.2-2.97-.32-4.41-.05-.56-.08-1.28-.12-2.08-.16-3.37-.36-6.12-1.03-8.13ZM39.39,68.91l20.96.35-15.07,14.57c-1.98-.74-4.72-1.04-8.08-1.31-.8-.06-1.52-.12-2.08-.19-1.44-.17-2.92-.32-4.41-.46-.62-.06-1.24-.12-1.86-.19.41-.47.82-.93,1.22-1.39.99-1.12,1.98-2.25,2.92-3.36.37-.43.85-.95,1.38-1.54,2.28-2.5,4.08-4.58,5.02-6.48ZM45.87,48.94l14.56,15.06-20.96-.35c-.87-1.92-2.6-4.07-4.78-6.64-.52-.61-.99-1.16-1.34-1.6-.89-1.14-1.83-2.29-2.78-3.44-.39-.49-.8-.97-1.19-1.46.62-.04,1.24-.08,1.88-.12,1.49-.09,2.96-.19,4.41-.31.56-.05,1.29-.08,2.09-.12,3.37-.16,6.12-.35,8.12-1.02ZM64.58,39.39l-.36,20.95-14.57-15.06c.74-1.98,1.04-4.72,1.31-8.09.07-.8.12-1.52.19-2.07.17-1.45.32-2.93.47-4.42.05-.62.12-1.24.18-1.85.47.41.93.82,1.39,1.22,1.13.99,2.25,1.98,3.36,2.92.43.36.96.85,1.56,1.39,2.49,2.27,4.57,4.07,6.47,5.01ZM84.55,45.87l-15.07,14.57.36-20.96c1.92-.87,4.07-2.61,6.64-4.8.6-.51,1.15-.98,1.59-1.33,1.15-.91,2.3-1.85,3.46-2.8.48-.39.95-.78,1.43-1.18.04.62.08,1.24.12,1.87.09,1.49.19,2.97.32,4.43.05.56.07,1.28.12,2.08.16,3.37.36,6.12,1.03,8.12Z"/>
  </g>
</svg>