<?xml version="1.0" encoding="UTF-8"?>
<svg id="Layer_2" data-name="Layer 2" xmlns="http://www.w3.org/2000/svg" viewBox="0 0 172.41 73.7">
  <defs>
    <style>
      .cls-1 {
        fill: #aa3030;
      }
    </style>
  </defs>
  <g id="PATTERN">
    <g>
      <g>
        <g>
          <path class="cls-1" d="M46.31,69.27c-.36.01-.73.03-1.09.07-1.08.09-2.13.26-3.16.5-.34.08-.69.17-1.02.26-1.01.28-1.99.62-2.95,1.04-.31.12-.63.27-.95.42-.95.46-1.86.98-2.73,1.55-.3.2-.59.39-.87.6-.06-.17-.14-.32-.21-.48-.07-.17-.16-.32-.24-.48-.11-.23-.24-.45-.37-.65-.11-.19-.24-.37-.36-.56-.04-.04-.07-.09-.09-.13-.15-.18-.28-.36-.43-.53-.11-.15-.24-.29-.37-.44-.11-.13-.25-.27-.37-.39-.12-.14-.26-.26-.39-.37-.15-.13-.29-.26-.45-.38-.38-.32-.8-.61-1.23-.87-.21-.14-.43-.26-.65-.37-.22-.12-.45-.23-.68-.33-.21-.09-.41-.18-.61-.25-.05-.02-.1-.04-.15-.05-.16-.06-.31-.1-.46-.16-.13-.04-.26-.08-.39-.11-.23-.06-.45-.11-.68-.17-.22-.04-.45-.08-.68-.11-.04-.01-.07-.01-.11-.01-.1-.02-.22-.03-.33-.04-.11-.01-.23-.02-.34-.03-.26-.02-.53-.03-.8-.03s-.54.01-.8.03c-.11.01-.23.02-.34.03-.11.01-.23.02-.33.04-.04,0-.07,0-.11.01-.23.03-.46.07-.68.11-.23.05-.45.1-.68.17-.13.03-.26.07-.39.11-.15.04-.29.09-.45.16-.05.01-.1.03-.16.05-.21.07-.41.16-.61.25-.23.1-.46.21-.68.33-.23.11-.45.24-.65.37-.43.27-.84.56-1.23.87-.01.01-.03.02-.04.03-.18.16-.35.31-.52.47-.19.17-.36.34-.53.53-.08.08-.17.18-.24.26-.08.09-.17.19-.24.27,0,.01-.01.02-.02.03-.16.2-.31.39-.46.6-.15.21-.28.42-.42.63-.14.21-.26.43-.37.65-.18.3-.32.62-.46.95-.28-.21-.57-.42-.87-.6-.87-.57-1.78-1.09-2.72-1.55-.31-.15-.62-.28-.93-.42-.96-.42-1.94-.76-2.96-1.04-.33-.09-.68-.18-1.02-.26-1.03-.24-2.08-.41-3.16-.5-.36-.04-.73-.06-1.09-.07.12-.34.26-.69.42-1.02,3.77-8.82,12.55-15.02,22.74-15.02s18.97,6.19,22.76,15.01c.15.34.28.69.4,1.03ZM36.69,70.63c-2.62-4.8-7.7-8.05-13.53-8.05s-10.91,3.25-13.52,8.05c.93.46,1.84.97,2.71,1.53,2.09-3.84,6.15-6.46,10.81-6.46s8.74,2.62,10.81,6.47c.87-.57,1.78-1.08,2.72-1.54ZM40.6,69.16c-3.23-6.36-9.85-10.73-17.45-10.73s-14.21,4.37-17.44,10.73c1.02.28,2.01.63,2.97,1.05,2.77-5.15,8.22-8.66,14.47-8.66s11.7,3.5,14.48,8.65c.96-.41,1.95-.76,2.97-1.04ZM44.81,68.33c-3.7-8.28-12.02-14.06-21.66-14.06s-17.95,5.79-21.65,14.06c1.09.11,2.15.29,3.19.55,3.35-6.8,10.37-11.5,18.46-11.5s15.1,4.69,18.47,11.5c1.04-.26,2.1-.44,3.19-.55Z"/>
          <path class="cls-1" d="M71.55,51.51c-.36.01-.73.03-1.09.07-1.08.09-2.13.26-3.16.5-.34.08-.69.17-1.02.26-1.01.28-1.99.62-2.95,1.04-.31.12-.63.27-.95.42-.95.46-1.86.98-2.73,1.55-.3.2-.59.39-.87.6-.06-.17-.13-.32-.21-.48-.07-.17-.16-.32-.24-.48-.11-.23-.24-.45-.37-.65-.11-.19-.24-.37-.36-.56-.04-.04-.07-.09-.09-.14-.15-.18-.28-.36-.43-.53-.11-.15-.24-.29-.37-.44-.11-.13-.25-.27-.37-.39-.12-.13-.26-.26-.39-.37-.15-.13-.29-.26-.45-.38-.38-.32-.8-.61-1.23-.87-.21-.13-.43-.26-.65-.37-.22-.12-.45-.23-.68-.33-.21-.09-.41-.18-.61-.25-.05-.02-.1-.04-.15-.05-.16-.06-.31-.1-.46-.16-.13-.04-.26-.08-.39-.11-.23-.06-.45-.11-.68-.17-.22-.04-.45-.08-.68-.11-.04-.01-.07-.01-.11-.01-.1-.02-.22-.03-.33-.04-.11-.01-.23-.02-.34-.03-.26-.02-.53-.03-.8-.03s-.54.01-.8.03c-.11.01-.23.02-.34.03-.11.01-.23.02-.33.04-.04,0-.07,0-.11.01-.23.03-.46.07-.68.11-.23.05-.45.1-.67.17-.14.03-.26.07-.39.11-.15.04-.29.09-.45.16-.05.01-.1.03-.16.05-.21.07-.41.16-.61.25-.23.1-.46.21-.68.33-.23.11-.45.24-.65.37-.43.27-.84.56-1.23.87-.01.01-.03.02-.04.03-.18.16-.35.31-.52.47-.19.17-.36.34-.53.53-.08.08-.17.18-.24.26-.08.09-.17.19-.24.27,0,.01-.01.02-.02.03-.16.2-.31.39-.46.6-.15.21-.28.42-.42.63-.13.21-.26.43-.37.65-.18.3-.32.62-.46.95-.28-.21-.57-.42-.87-.6-.87-.57-1.78-1.09-2.72-1.55-.31-.15-.62-.28-.93-.42-.96-.42-1.94-.76-2.96-1.04-.33-.09-.68-.18-1.02-.26-1.03-.24-2.08-.41-3.16-.5-.36-.04-.73-.06-1.09-.07.12-.34.26-.69.42-1.02,3.77-8.82,12.55-15.02,22.74-15.02s18.97,6.19,22.76,15.01c.15.34.28.69.4,1.03ZM61.92,52.87c-2.62-4.8-7.7-8.05-13.53-8.05s-10.91,3.25-13.52,8.05c.93.46,1.84.97,2.71,1.53,2.09-3.84,6.15-6.46,10.81-6.46s8.74,2.62,10.81,6.47c.87-.57,1.78-1.08,2.72-1.54ZM65.83,51.4c-3.23-6.36-9.85-10.73-17.45-10.73s-14.21,4.37-17.44,10.73c1.02.28,2.01.63,2.97,1.05,2.77-5.15,8.22-8.66,14.47-8.66s11.7,3.5,14.48,8.65c.96-.41,1.95-.76,2.97-1.04ZM70.04,50.58c-3.7-8.28-12.02-14.06-21.66-14.06s-17.95,5.79-21.65,14.06c1.09.11,2.15.29,3.19.55,3.35-6.8,10.37-11.5,18.46-11.5s15.1,4.69,18.47,11.5c1.04-.26,2.1-.44,3.19-.55Z"/>
        </g>
        <g>
          <path class="cls-1" d="M96.75,69.27c-.36.01-.73.03-1.09.07-1.08.09-2.13.26-3.16.5-.34.08-.69.17-1.02.26-1.01.28-1.99.62-2.95,1.04-.31.12-.63.27-.95.42-.95.46-1.86.98-2.73,1.55-.3.2-.59.39-.87.6-.06-.17-.14-.32-.21-.48-.07-.17-.16-.32-.24-.48-.11-.23-.24-.45-.37-.65-.11-.19-.24-.37-.36-.56-.04-.04-.07-.09-.09-.13-.15-.18-.28-.36-.43-.53-.11-.15-.24-.29-.37-.44-.11-.13-.25-.27-.37-.39-.12-.14-.26-.26-.39-.37-.15-.13-.29-.26-.45-.38-.38-.32-.8-.61-1.23-.87-.21-.14-.43-.26-.65-.37-.22-.12-.45-.23-.68-.33-.21-.09-.41-.18-.61-.25-.05-.02-.1-.04-.15-.05-.16-.06-.31-.1-.46-.16-.13-.04-.26-.08-.39-.11-.23-.06-.45-.11-.68-.17-.22-.04-.45-.08-.68-.11-.04-.01-.07-.01-.11-.01-.1-.02-.22-.03-.33-.04-.11-.01-.23-.02-.34-.03-.26-.02-.53-.03-.8-.03s-.54.01-.8.03c-.11.01-.23.02-.34.03-.11.01-.23.02-.33.04-.04,0-.07,0-.11.01-.23.03-.46.07-.68.11-.23.05-.45.1-.68.17-.13.03-.26.07-.39.11-.15.04-.29.09-.45.16-.05.01-.1.03-.16.05-.21.07-.41.16-.61.25-.23.1-.46.21-.68.33-.23.11-.45.24-.65.37-.43.27-.84.56-1.23.87-.01.01-.03.02-.04.03-.18.16-.35.31-.52.47-.19.17-.36.34-.53.53-.08.08-.17.18-.24.26-.08.09-.17.19-.24.27,0,.01-.01.02-.02.03-.16.2-.31.39-.46.6-.15.21-.28.42-.42.63-.14.21-.26.43-.37.65-.18.3-.32.62-.46.95-.28-.21-.57-.42-.87-.6-.87-.57-1.78-1.09-2.72-1.55-.31-.15-.62-.28-.93-.42-.96-.42-1.94-.76-2.96-1.04-.33-.09-.68-.18-1.02-.26-1.03-.24-2.08-.41-3.16-.5-.36-.04-.73-.06-1.09-.07.12-.34.26-.69.42-1.02,3.77-8.82,12.55-15.02,22.74-15.02s18.97,6.19,22.76,15.01c.15.34.28.69.4,1.03ZM87.12,70.63c-2.62-4.8-7.7-8.05-13.53-8.05s-10.91,3.25-13.52,8.05c.93.46,1.84.97,2.71,1.53,2.09-3.84,6.15-6.46,10.81-6.46s8.74,2.62,10.81,6.47c.87-.57,1.78-1.08,2.72-1.54ZM91.03,69.16c-3.23-6.36-9.85-10.73-17.45-10.73s-14.21,4.37-17.44,10.73c1.02.28,2.01.63,2.97,1.05,2.77-5.15,8.22-8.66,14.47-8.66s11.7,3.5,14.48,8.65c.96-.41,1.95-.76,2.97-1.04ZM95.24,68.33c-3.7-8.28-12.02-14.06-21.66-14.06s-17.95,5.79-21.65,14.06c1.09.11,2.15.29,3.19.55,3.35-6.8,10.37-11.5,18.46-11.5s15.1,4.69,18.47,11.5c1.04-.26,2.1-.44,3.19-.55Z"/>
          <path class="cls-1" d="M121.98,51.51c-.36.01-.73.03-1.09.07-1.08.09-2.13.26-3.16.5-.34.08-.69.17-1.02.26-1.01.28-1.99.62-2.95,1.04-.31.12-.63.27-.95.42-.95.46-1.86.98-2.73,1.55-.3.2-.59.39-.87.6-.06-.17-.13-.32-.21-.48-.07-.17-.16-.32-.24-.48-.11-.23-.24-.45-.37-.65-.11-.19-.24-.37-.36-.56-.04-.04-.07-.09-.09-.14-.15-.18-.28-.36-.43-.53-.11-.15-.24-.29-.37-.44-.11-.13-.25-.27-.37-.39-.12-.13-.26-.26-.39-.37-.15-.13-.29-.26-.45-.38-.38-.32-.8-.61-1.23-.87-.21-.13-.43-.26-.65-.37-.22-.12-.45-.23-.68-.33-.21-.09-.41-.18-.61-.25-.05-.02-.1-.04-.15-.05-.16-.06-.31-.1-.46-.16-.13-.04-.26-.08-.39-.11-.23-.06-.45-.11-.68-.17-.22-.04-.45-.08-.68-.11-.04-.01-.07-.01-.11-.01-.1-.02-.22-.03-.33-.04-.11-.01-.23-.02-.34-.03-.26-.02-.53-.03-.8-.03s-.54.01-.8.03c-.11.01-.23.02-.34.03-.11.01-.23.02-.33.04-.04,0-.07,0-.11.01-.23.03-.46.07-.68.11-.23.05-.45.1-.67.17-.14.03-.26.07-.39.11-.15.04-.29.09-.45.16-.05.01-.1.03-.16.05-.21.07-.41.16-.61.25-.23.1-.46.21-.68.33-.23.11-.45.24-.65.37-.43.27-.84.56-1.23.87-.01.01-.03.02-.04.03-.18.16-.35.31-.52.47-.19.17-.36.34-.53.53-.08.08-.17.18-.24.26-.08.09-.17.19-.24.27,0,.01-.01.02-.02.03-.16.2-.31.39-.46.6-.15.21-.28.42-.42.63-.13.21-.26.43-.37.65-.18.3-.32.62-.46.95-.28-.21-.57-.42-.87-.6-.87-.57-1.78-1.09-2.72-1.55-.31-.15-.62-.28-.93-.42-.96-.42-1.94-.76-2.96-1.04-.33-.09-.68-.18-1.02-.26-1.03-.24-2.08-.41-3.16-.5-.36-.04-.73-.06-1.09-.07.12-.34.26-.69.42-1.02,3.77-8.82,12.55-15.02,22.74-15.02s18.97,6.19,22.76,15.01c.15.34.28.69.41,1.03ZM112.35,52.87c-2.62-4.8-7.7-8.05-13.53-8.05s-10.91,3.25-13.52,8.05c.93.46,1.84.97,2.71,1.53,2.09-3.84,6.15-6.46,10.81-6.46s8.74,2.62,10.81,6.47c.87-.57,1.78-1.08,2.72-1.54ZM116.27,51.4c-3.23-6.36-9.85-10.73-17.45-10.73s-14.21,4.37-17.44,10.73c1.02.28,2.01.63,2.97,1.05,2.77-5.15,8.22-8.66,14.47-8.66s11.7,3.5,14.48,8.65c.96-.41,1.95-.76,2.97-1.04ZM120.47,50.58c-3.7-8.28-12.02-14.06-21.66-14.06s-17.95,5.79-21.65,14.06c1.09.11,2.15.29,3.19.55,3.35-6.8,10.37-11.5,18.46-11.5s15.1,4.69,18.47,11.5c1.04-.26,2.1-.44,3.19-.55Z"/>
        </g>
        <g>
          <path class="cls-1" d="M147.18,69.27c-.36.01-.73.03-1.09.07-1.08.09-2.13.26-3.16.5-.34.08-.69.17-1.02.26-1.01.28-1.99.62-2.95,1.04-.31.12-.63.27-.95.42-.95.46-1.86.98-2.73,1.55-.3.2-.59.39-.87.6-.06-.17-.14-.32-.21-.48-.07-.17-.16-.32-.24-.48-.11-.23-.24-.45-.37-.65-.11-.19-.24-.37-.36-.56-.04-.04-.07-.09-.09-.13-.15-.18-.28-.36-.43-.53-.11-.15-.24-.29-.37-.44-.11-.13-.25-.27-.37-.39-.12-.14-.26-.26-.39-.37-.15-.13-.29-.26-.45-.38-.38-.32-.8-.61-1.23-.87-.21-.14-.43-.26-.65-.37-.22-.12-.45-.23-.68-.33-.21-.09-.4-.18-.61-.25-.05-.02-.1-.04-.15-.05-.16-.06-.31-.1-.46-.16-.13-.04-.26-.08-.39-.11-.23-.06-.45-.11-.68-.17-.22-.04-.45-.08-.68-.11-.04-.01-.07-.01-.11-.01-.1-.02-.22-.03-.33-.04-.11-.01-.23-.02-.34-.03-.26-.02-.53-.03-.8-.03s-.54.01-.8.03c-.11.01-.23.02-.34.03-.11.01-.23.02-.33.04-.04,0-.07,0-.11.01-.23.03-.46.07-.68.11-.23.05-.45.1-.68.17-.13.03-.26.07-.39.11-.15.04-.29.09-.45.16-.05.01-.1.03-.16.05-.21.07-.41.16-.61.25-.23.1-.46.21-.68.33-.23.11-.45.24-.65.37-.43.27-.84.56-1.23.87-.01.01-.03.02-.04.03-.18.16-.35.31-.52.47-.19.17-.36.34-.53.53-.08.08-.17.18-.24.26-.08.09-.17.19-.24.27,0,.01-.01.02-.02.03-.16.2-.31.39-.46.6-.15.21-.28.42-.42.63-.13.21-.26.43-.37.65-.18.3-.32.62-.46.95-.28-.21-.57-.42-.87-.6-.87-.57-1.78-1.09-2.72-1.55-.31-.15-.62-.28-.93-.42-.96-.42-1.94-.76-2.96-1.04-.33-.09-.68-.18-1.02-.26-1.03-.24-2.08-.41-3.16-.5-.36-.04-.73-.06-1.09-.07.12-.34.26-.69.42-1.02,3.77-8.82,12.55-15.02,22.74-15.02s18.97,6.19,22.76,15.01c.15.34.28.69.4,1.03ZM137.55,70.63c-2.62-4.8-7.7-8.05-13.53-8.05s-10.91,3.25-13.52,8.05c.93.46,1.84.97,2.71,1.53,2.09-3.84,6.15-6.46,10.81-6.46s8.74,2.62,10.81,6.47c.87-.57,1.78-1.08,2.72-1.54ZM141.46,69.16c-3.23-6.36-9.85-10.73-17.45-10.73s-14.21,4.37-17.44,10.73c1.02.28,2.01.63,2.97,1.05,2.77-5.15,8.22-8.66,14.47-8.66s11.7,3.5,14.48,8.65c.96-.41,1.95-.76,2.97-1.04ZM145.67,68.33c-3.7-8.28-12.02-14.06-21.66-14.06s-17.95,5.79-21.65,14.06c1.09.11,2.15.29,3.19.55,3.35-6.8,10.37-11.5,18.46-11.5s15.1,4.69,18.47,11.5c1.04-.26,2.1-.44,3.19-.55Z"/>
          <path class="cls-1" d="M172.41,51.51c-.36.01-.73.03-1.09.07-1.08.09-2.13.26-3.16.5-.34.08-.69.17-1.02.26-1.01.28-1.99.62-2.95,1.04-.31.12-.63.27-.95.42-.95.46-1.86.98-2.73,1.55-.3.2-.59.39-.87.6-.06-.17-.13-.32-.21-.48-.07-.17-.16-.32-.24-.48-.11-.23-.24-.45-.37-.65-.11-.19-.24-.37-.36-.56-.04-.04-.07-.09-.09-.14-.15-.18-.28-.36-.43-.53-.11-.15-.24-.29-.37-.44-.11-.13-.25-.27-.37-.39-.12-.13-.26-.26-.39-.37-.15-.13-.29-.26-.45-.38-.38-.32-.8-.61-1.23-.87-.21-.13-.43-.26-.65-.37-.22-.12-.45-.23-.68-.33-.21-.09-.41-.18-.61-.25-.05-.02-.1-.04-.15-.05-.16-.06-.31-.1-.46-.16-.13-.04-.26-.08-.39-.11-.23-.06-.45-.11-.68-.17-.22-.04-.45-.08-.68-.11-.04-.01-.07-.01-.11-.01-.1-.02-.22-.03-.33-.04-.11-.01-.23-.02-.34-.03-.26-.02-.53-.03-.8-.03s-.54.01-.8.03c-.11.01-.23.02-.34.03-.11.01-.23.02-.33.04-.04,0-.07,0-.11.01-.23.03-.46.07-.68.11-.23.05-.45.1-.67.17-.14.03-.26.07-.39.11-.15.04-.29.09-.45.16-.05.01-.1.03-.16.05-.21.07-.41.16-.61.25-.23.1-.46.21-.68.33-.23.11-.45.24-.65.37-.43.27-.84.56-1.23.87-.01.01-.03.02-.04.03-.18.16-.35.31-.52.47-.19.17-.36.34-.53.53-.08.08-.17.18-.24.26-.08.09-.17.19-.24.27,0,.01-.01.02-.02.03-.16.2-.31.39-.46.6-.15.21-.28.42-.42.63-.13.21-.26.43-.37.65-.18.3-.32.62-.46.95-.28-.21-.57-.42-.87-.6-.87-.57-1.78-1.09-2.72-1.55-.31-.15-.62-.28-.93-.42-.96-.42-1.94-.76-2.96-1.04-.33-.09-.68-.18-1.02-.26-1.03-.24-2.08-.41-3.16-.5-.36-.04-.73-.06-1.09-.07.12-.34.26-.69.42-1.02,3.77-8.82,12.55-15.02,22.74-15.02s18.97,6.19,22.76,15.01c.15.34.28.69.41,1.03ZM162.78,52.87c-2.62-4.8-7.7-8.05-13.53-8.05s-10.91,3.25-13.52,8.05c.93.46,1.84.97,2.71,1.53,2.09-3.84,6.15-6.46,10.81-6.46s8.74,2.62,10.81,6.47c.87-.57,1.78-1.08,2.72-1.54ZM166.7,51.4c-3.23-6.36-9.85-10.73-17.45-10.73s-14.21,4.37-17.44,10.73c1.02.28,2.01.63,2.97,1.05,2.77-5.15,8.22-8.66,14.47-8.66s11.7,3.5,14.48,8.65c.96-.41,1.95-.76,2.97-1.04ZM170.91,50.58c-3.7-8.28-12.02-14.06-21.66-14.06s-17.95,5.79-21.65,14.06c1.09.11,2.15.29,3.19.55,3.35-6.8,10.37-11.5,18.46-11.5s15.1,4.69,18.47,11.5c1.04-.26,2.1-.44,3.19-.55Z"/>
        </g>
      </g>
      <g>
        <g>
          <path class="cls-1" d="M46.31,33.79c-.36.01-.73.03-1.09.07-1.08.09-2.13.26-3.16.5-.34.08-.69.17-1.02.26-1.01.28-1.99.62-2.95,1.04-.31.12-.63.27-.95.42-.95.46-1.86.98-2.73,1.55-.3.2-.59.39-.87.6-.06-.17-.14-.32-.21-.48-.07-.17-.16-.32-.24-.48-.11-.23-.24-.45-.37-.65-.11-.19-.24-.37-.36-.56-.04-.04-.07-.09-.09-.14-.15-.18-.28-.36-.43-.53-.11-.15-.24-.29-.37-.44-.11-.13-.25-.27-.37-.39-.12-.13-.26-.26-.39-.37-.15-.13-.29-.26-.45-.38-.38-.32-.8-.61-1.23-.87-.21-.13-.43-.26-.65-.37-.22-.12-.45-.23-.68-.33-.21-.09-.41-.18-.61-.25-.05-.02-.1-.04-.15-.05-.16-.06-.31-.1-.46-.16-.13-.04-.26-.08-.39-.11-.23-.06-.45-.11-.68-.17-.22-.04-.45-.08-.68-.11-.04-.01-.07-.01-.11-.01-.1-.02-.22-.03-.33-.04-.11-.01-.23-.02-.34-.03-.26-.02-.53-.03-.8-.03s-.54.01-.8.03c-.11.01-.23.02-.34.03-.11.01-.23.02-.33.04-.04,0-.07,0-.11.01-.23.03-.46.07-.68.11-.23.05-.45.1-.68.17-.13.03-.26.07-.39.11-.15.04-.29.09-.45.16-.05.01-.1.03-.16.05-.21.07-.41.16-.61.25-.23.1-.46.21-.68.33-.23.11-.45.24-.65.37-.43.27-.84.56-1.23.87-.01.01-.03.02-.04.03-.18.16-.35.31-.52.47-.19.17-.36.34-.53.53-.08.08-.17.18-.24.26-.08.09-.17.19-.24.27,0,.01-.01.02-.02.03-.16.2-.31.39-.46.6s-.28.42-.42.63c-.14.21-.26.43-.37.65-.18.3-.32.62-.46.95-.28-.21-.57-.42-.87-.6-.87-.57-1.78-1.09-2.72-1.55-.31-.15-.62-.28-.93-.42-.96-.42-1.94-.76-2.96-1.04-.33-.09-.68-.18-1.02-.26-1.03-.24-2.08-.41-3.16-.5-.36-.04-.73-.06-1.09-.07.12-.34.26-.69.42-1.02,3.77-8.82,12.55-15.02,22.74-15.02s18.97,6.19,22.76,15.01c.15.34.28.69.4,1.03ZM36.69,35.16c-2.62-4.8-7.7-8.05-13.53-8.05s-10.91,3.25-13.52,8.05c.93.46,1.84.97,2.71,1.53,2.09-3.84,6.15-6.46,10.81-6.46s8.74,2.62,10.81,6.47c.87-.57,1.78-1.08,2.72-1.54ZM40.6,33.68c-3.23-6.36-9.85-10.73-17.45-10.73s-14.21,4.37-17.44,10.73c1.02.28,2.01.63,2.97,1.05,2.77-5.15,8.22-8.66,14.47-8.66s11.7,3.5,14.48,8.65c.96-.41,1.95-.76,2.97-1.04ZM44.81,32.86c-3.7-8.28-12.02-14.06-21.66-14.06S5.2,24.58,1.51,32.86c1.09.11,2.15.29,3.19.55,3.35-6.8,10.37-11.5,18.46-11.5s15.1,4.69,18.47,11.5c1.04-.26,2.1-.44,3.19-.55Z"/>
          <path class="cls-1" d="M71.55,16.04c-.36.01-.73.03-1.09.07-1.08.09-2.13.26-3.16.5-.34.08-.69.17-1.02.26-1.01.28-1.99.62-2.95,1.04-.31.12-.63.27-.95.42-.95.46-1.86.98-2.73,1.55-.3.2-.59.39-.87.6-.06-.17-.13-.32-.21-.48-.07-.17-.16-.32-.24-.48-.11-.23-.24-.45-.37-.65-.11-.19-.24-.37-.36-.56-.04-.04-.07-.09-.09-.13-.15-.18-.28-.36-.43-.53-.11-.15-.24-.29-.37-.44-.11-.13-.25-.27-.37-.39-.12-.14-.26-.26-.39-.37-.15-.13-.29-.26-.45-.38-.38-.32-.8-.61-1.23-.87-.21-.14-.43-.26-.65-.37-.22-.12-.45-.23-.68-.33-.21-.09-.41-.18-.61-.25-.05-.02-.1-.04-.15-.05-.16-.06-.31-.1-.46-.16-.13-.04-.26-.08-.39-.11-.23-.06-.45-.11-.68-.17-.22-.04-.45-.08-.68-.11-.04-.01-.07-.01-.11-.01-.1-.02-.22-.03-.33-.04-.11-.01-.23-.02-.34-.03-.26-.02-.53-.03-.8-.03s-.54.01-.8.03c-.11.01-.23.02-.34.03-.11.01-.23.02-.33.04-.04,0-.07,0-.11.01-.23.03-.46.07-.68.11-.23.05-.45.1-.67.17-.14.03-.26.07-.39.11-.15.04-.29.09-.45.16-.05.01-.1.03-.16.05-.21.07-.41.16-.61.25-.23.1-.46.21-.68.33-.23.11-.45.24-.65.37-.43.27-.84.56-1.23.87-.01.01-.03.02-.04.03-.18.16-.35.31-.52.47-.19.17-.36.34-.53.53-.08.08-.17.18-.24.26-.08.09-.17.19-.24.27,0,.01-.01.02-.02.03-.16.2-.31.39-.46.6-.15.21-.28.42-.42.63-.13.21-.26.43-.37.65-.18.3-.32.62-.46.95-.28-.21-.57-.42-.87-.6-.87-.57-1.78-1.09-2.72-1.55-.31-.15-.62-.28-.93-.42-.96-.42-1.94-.76-2.96-1.04-.33-.09-.68-.18-1.02-.26-1.03-.24-2.08-.41-3.16-.5-.36-.04-.73-.06-1.09-.07.12-.34.26-.69.42-1.02C29.42,6.2,38.2,0,48.39,0s18.97,6.19,22.76,15.01c.15.34.28.69.4,1.03ZM61.92,17.4c-2.62-4.8-7.7-8.05-13.53-8.05s-10.91,3.25-13.52,8.05c.93.46,1.84.97,2.71,1.53,2.09-3.84,6.15-6.46,10.81-6.46s8.74,2.62,10.81,6.47c.87-.57,1.78-1.08,2.72-1.54ZM65.83,15.92c-3.23-6.36-9.85-10.73-17.45-10.73s-14.21,4.37-17.44,10.73c1.02.28,2.01.63,2.97,1.05,2.77-5.15,8.22-8.66,14.47-8.66s11.7,3.5,14.48,8.65c.96-.41,1.95-.76,2.97-1.04ZM70.04,15.1c-3.7-8.28-12.02-14.06-21.66-14.06s-17.95,5.79-21.65,14.06c1.09.11,2.15.29,3.19.55,3.35-6.8,10.37-11.5,18.46-11.5s15.1,4.69,18.47,11.5c1.04-.26,2.1-.44,3.19-.55Z"/>
        </g>
        <g>
          <path class="cls-1" d="M96.75,33.79c-.36.01-.73.03-1.09.07-1.08.09-2.13.26-3.16.5-.34.08-.69.17-1.02.26-1.01.28-1.99.62-2.95,1.04-.31.12-.63.27-.95.42-.95.46-1.86.98-2.73,1.55-.3.2-.59.39-.87.6-.06-.17-.14-.32-.21-.48-.07-.17-.16-.32-.24-.48-.11-.23-.24-.45-.37-.65-.11-.19-.24-.37-.36-.56-.04-.04-.07-.09-.09-.14-.15-.18-.28-.36-.43-.53-.11-.15-.24-.29-.37-.44-.11-.13-.25-.27-.37-.39-.12-.13-.26-.26-.39-.37-.15-.13-.29-.26-.45-.38-.38-.32-.8-.61-1.23-.87-.21-.13-.43-.26-.65-.37-.22-.12-.45-.23-.68-.33-.21-.09-.41-.18-.61-.25-.05-.02-.1-.04-.15-.05-.16-.06-.31-.1-.46-.16-.13-.04-.26-.08-.39-.11-.23-.06-.45-.11-.68-.17-.22-.04-.45-.08-.68-.11-.04-.01-.07-.01-.11-.01-.1-.02-.22-.03-.33-.04-.11-.01-.23-.02-.34-.03-.26-.02-.53-.03-.8-.03s-.54.01-.8.03c-.11.01-.23.02-.34.03-.11.01-.23.02-.33.04-.04,0-.07,0-.11.01-.23.03-.46.07-.68.11-.23.05-.45.1-.68.17-.13.03-.26.07-.39.11-.15.04-.29.09-.45.16-.05.01-.1.03-.16.05-.21.07-.41.16-.61.25-.23.1-.46.21-.68.33-.23.11-.45.24-.65.37-.43.27-.84.56-1.23.87-.01.01-.03.02-.04.03-.18.16-.35.31-.52.47-.19.17-.36.34-.53.53-.08.08-.17.18-.24.26-.08.09-.17.19-.24.27,0,.01-.01.02-.02.03-.16.2-.31.39-.46.6s-.28.42-.42.63c-.14.21-.26.43-.37.65-.18.3-.32.62-.46.95-.28-.21-.57-.42-.87-.6-.87-.57-1.78-1.09-2.72-1.55-.31-.15-.62-.28-.93-.42-.96-.42-1.94-.76-2.96-1.04-.33-.09-.68-.18-1.02-.26-1.03-.24-2.08-.41-3.16-.5-.36-.04-.73-.06-1.09-.07.12-.34.26-.69.42-1.02,3.77-8.82,12.55-15.02,22.74-15.02s18.97,6.19,22.76,15.01c.15.34.28.69.4,1.03ZM87.12,35.16c-2.62-4.8-7.7-8.05-13.53-8.05s-10.91,3.25-13.52,8.05c.93.46,1.84.97,2.71,1.53,2.09-3.84,6.15-6.46,10.81-6.46s8.74,2.62,10.81,6.47c.87-.57,1.78-1.08,2.72-1.54ZM91.03,33.68c-3.23-6.36-9.85-10.73-17.45-10.73s-14.21,4.37-17.44,10.73c1.02.28,2.01.63,2.97,1.05,2.77-5.15,8.22-8.66,14.47-8.66s11.7,3.5,14.48,8.65c.96-.41,1.95-.76,2.97-1.04ZM95.24,32.86c-3.7-8.28-12.02-14.06-21.66-14.06s-17.95,5.79-21.65,14.06c1.09.11,2.15.29,3.19.55,3.35-6.8,10.37-11.5,18.46-11.5s15.1,4.69,18.47,11.5c1.04-.26,2.1-.44,3.19-.55Z"/>
          <path class="cls-1" d="M121.98,16.04c-.36.01-.73.03-1.09.07-1.08.09-2.13.26-3.16.5-.34.08-.69.17-1.02.26-1.01.28-1.99.62-2.95,1.04-.31.12-.63.27-.95.42-.95.46-1.86.98-2.73,1.55-.3.2-.59.39-.87.6-.06-.17-.13-.32-.21-.48-.07-.17-.16-.32-.24-.48-.11-.23-.24-.45-.37-.65-.11-.19-.24-.37-.36-.56-.04-.04-.07-.09-.09-.13-.15-.18-.28-.36-.43-.53-.11-.15-.24-.29-.37-.44-.11-.13-.25-.27-.37-.39-.12-.14-.26-.26-.39-.37-.15-.13-.29-.26-.45-.38-.38-.32-.8-.61-1.23-.87-.21-.14-.43-.26-.65-.37-.22-.12-.45-.23-.68-.33-.21-.09-.41-.18-.61-.25-.05-.02-.1-.04-.15-.05-.16-.06-.31-.1-.46-.16-.13-.04-.26-.08-.39-.11-.23-.06-.45-.11-.68-.17-.22-.04-.45-.08-.68-.11-.04-.01-.07-.01-.11-.01-.1-.02-.22-.03-.33-.04-.11-.01-.23-.02-.34-.03-.26-.02-.53-.03-.8-.03s-.54.01-.8.03c-.11.01-.23.02-.34.03-.11.01-.23.02-.33.04-.04,0-.07,0-.11.01-.23.03-.46.07-.68.11-.23.05-.45.1-.67.17-.14.03-.26.07-.39.11-.15.04-.29.09-.45.16-.05.01-.1.03-.16.05-.21.07-.41.16-.61.25-.23.1-.46.21-.68.33-.23.11-.45.24-.65.37-.43.27-.84.56-1.23.87-.01.01-.03.02-.04.03-.18.16-.35.31-.52.47-.19.17-.36.34-.53.53-.08.08-.17.18-.24.26-.08.09-.17.19-.24.27,0,.01-.01.02-.02.03-.16.2-.31.39-.46.6-.15.21-.28.42-.42.63-.13.21-.26.43-.37.65-.18.3-.32.62-.46.95-.28-.21-.57-.42-.87-.6-.87-.57-1.78-1.09-2.72-1.55-.31-.15-.62-.28-.93-.42-.96-.42-1.94-.76-2.96-1.04-.33-.09-.68-.18-1.02-.26-1.03-.24-2.08-.41-3.16-.5-.36-.04-.73-.06-1.09-.07.12-.34.26-.69.42-1.02,3.77-8.82,12.55-15.02,22.74-15.02s18.97,6.19,22.76,15.01c.15.34.28.69.41,1.03ZM112.35,17.4c-2.62-4.8-7.7-8.05-13.53-8.05s-10.91,3.25-13.52,8.05c.93.46,1.84.97,2.71,1.53,2.09-3.84,6.15-6.46,10.81-6.46s8.74,2.62,10.81,6.47c.87-.57,1.78-1.08,2.72-1.54ZM116.27,15.92c-3.23-6.36-9.85-10.73-17.45-10.73s-14.21,4.37-17.44,10.73c1.02.28,2.01.63,2.97,1.05,2.77-5.15,8.22-8.66,14.47-8.66s11.7,3.5,14.48,8.65c.96-.41,1.95-.76,2.97-1.04ZM120.47,15.1c-3.7-8.28-12.02-14.06-21.66-14.06s-17.95,5.79-21.65,14.06c1.09.11,2.15.29,3.19.55,3.35-6.8,10.37-11.5,18.46-11.5s15.1,4.69,18.47,11.5c1.04-.26,2.1-.44,3.19-.55Z"/>
        </g>
        <g>
          <path class="cls-1" d="M147.18,33.79c-.36.01-.73.03-1.09.07-1.08.09-2.13.26-3.16.5-.34.08-.69.17-1.02.26-1.01.28-1.99.62-2.95,1.04-.31.12-.63.27-.95.42-.95.46-1.86.98-2.73,1.55-.3.2-.59.39-.87.6-.06-.17-.14-.32-.21-.48-.07-.17-.16-.32-.24-.48-.11-.23-.24-.45-.37-.65-.11-.19-.24-.37-.36-.56-.04-.04-.07-.09-.09-.14-.15-.18-.28-.36-.43-.53-.11-.15-.24-.29-.37-.44-.11-.13-.25-.27-.37-.39-.12-.13-.26-.26-.39-.37-.15-.13-.29-.26-.45-.38-.38-.32-.8-.61-1.23-.87-.21-.13-.43-.26-.65-.37-.22-.12-.45-.23-.68-.33-.21-.09-.4-.18-.61-.25-.05-.02-.1-.04-.15-.05-.16-.06-.31-.1-.46-.16-.13-.04-.26-.08-.39-.11-.23-.06-.45-.11-.68-.17-.22-.04-.45-.08-.68-.11-.04-.01-.07-.01-.11-.01-.1-.02-.22-.03-.33-.04-.11-.01-.23-.02-.34-.03-.26-.02-.53-.03-.8-.03s-.54.01-.8.03c-.11.01-.23.02-.34.03-.11.01-.23.02-.33.04-.04,0-.07,0-.11.01-.23.03-.46.07-.68.11-.23.05-.45.1-.68.17-.13.03-.26.07-.39.11-.15.04-.29.09-.45.16-.05.01-.1.03-.16.05-.21.07-.41.16-.61.25-.23.1-.46.21-.68.33-.23.11-.45.24-.65.37-.43.27-.84.56-1.23.87-.01.01-.03.02-.04.03-.18.16-.35.31-.52.47-.19.17-.36.34-.53.53-.08.08-.17.18-.24.26-.08.09-.17.19-.24.27,0,.01-.01.02-.02.03-.16.2-.31.39-.46.6s-.28.42-.42.63c-.13.21-.26.43-.37.65-.18.3-.32.62-.46.95-.28-.21-.57-.42-.87-.6-.87-.57-1.78-1.09-2.72-1.55-.31-.15-.62-.28-.93-.42-.96-.42-1.94-.76-2.96-1.04-.33-.09-.68-.18-1.02-.26-1.03-.24-2.08-.41-3.16-.5-.36-.04-.73-.06-1.09-.07.12-.34.26-.69.42-1.02,3.77-8.82,12.55-15.02,22.74-15.02s18.97,6.19,22.76,15.01c.15.34.28.69.4,1.03ZM137.55,35.16c-2.62-4.8-7.7-8.05-13.53-8.05s-10.91,3.25-13.52,8.05c.93.46,1.84.97,2.71,1.53,2.09-3.84,6.15-6.46,10.81-6.46s8.74,2.62,10.81,6.47c.87-.57,1.78-1.08,2.72-1.54ZM141.46,33.68c-3.23-6.36-9.85-10.73-17.45-10.73s-14.21,4.37-17.44,10.73c1.02.28,2.01.63,2.97,1.05,2.77-5.15,8.22-8.66,14.47-8.66s11.7,3.5,14.48,8.65c.96-.41,1.95-.76,2.97-1.04ZM145.67,32.86c-3.7-8.28-12.02-14.06-21.66-14.06s-17.95,5.79-21.65,14.06c1.09.11,2.15.29,3.19.55,3.35-6.8,10.37-11.5,18.46-11.5s15.1,4.69,18.47,11.5c1.04-.26,2.1-.44,3.19-.55Z"/>
          <path class="cls-1" d="M172.41,16.04c-.36.01-.73.03-1.09.07-1.08.09-2.13.26-3.16.5-.34.08-.69.17-1.02.26-1.01.28-1.99.62-2.95,1.04-.31.12-.63.27-.95.42-.95.46-1.86.98-2.73,1.55-.3.2-.59.39-.87.6-.06-.17-.13-.32-.21-.48-.07-.17-.16-.32-.24-.48-.11-.23-.24-.45-.37-.65-.11-.19-.24-.37-.36-.56-.04-.04-.07-.09-.09-.13-.15-.18-.28-.36-.43-.53-.11-.15-.24-.29-.37-.44-.11-.13-.25-.27-.37-.39-.12-.14-.26-.26-.39-.37-.15-.13-.29-.26-.45-.38-.38-.32-.8-.61-1.23-.87-.21-.14-.43-.26-.65-.37-.22-.12-.45-.23-.68-.33-.21-.09-.41-.18-.61-.25-.05-.02-.1-.04-.15-.05-.16-.06-.31-.1-.46-.16-.13-.04-.26-.08-.39-.11-.23-.06-.45-.11-.68-.17-.22-.04-.45-.08-.68-.11-.04-.01-.07-.01-.11-.01-.1-.02-.22-.03-.33-.04-.11-.01-.23-.02-.34-.03-.26-.02-.53-.03-.8-.03s-.54.01-.8.03c-.11.01-.23.02-.34.03-.11.01-.23.02-.33.04-.04,0-.07,0-.11.01-.23.03-.46.07-.68.11-.23.05-.45.1-.67.17-.14.03-.26.07-.39.11-.15.04-.29.09-.45.16-.05.01-.1.03-.16.05-.21.07-.41.16-.61.25-.23.1-.46.21-.68.33-.23.11-.45.24-.65.37-.43.27-.84.56-1.23.87-.01.01-.03.02-.04.03-.18.16-.35.31-.52.47-.19.17-.36.34-.53.53-.08.08-.17.18-.24.26-.08.09-.17.19-.24.27,0,.01-.01.02-.02.03-.16.2-.31.39-.46.6-.15.21-.28.42-.42.63-.13.21-.26.43-.37.65-.18.3-.32.62-.46.95-.28-.21-.57-.42-.87-.6-.87-.57-1.78-1.09-2.72-1.55-.31-.15-.62-.28-.93-.42-.96-.42-1.94-.76-2.96-1.04-.33-.09-.68-.18-1.02-.26-1.03-.24-2.08-.41-3.16-.5-.36-.04-.73-.06-1.09-.07.12-.34.26-.69.42-1.02,3.77-8.82,12.55-15.02,22.74-15.02s18.97,6.19,22.76,15.01c.15.34.28.69.41,1.03ZM162.78,17.4c-2.62-4.8-7.7-8.05-13.53-8.05s-10.91,3.25-13.52,8.05c.93.46,1.84.97,2.71,1.53,2.09-3.84,6.15-6.46,10.81-6.46s8.74,2.62,10.81,6.47c.87-.57,1.78-1.08,2.72-1.54ZM166.7,15.92c-3.23-6.36-9.85-10.73-17.45-10.73s-14.21,4.37-17.44,10.73c1.02.28,2.01.63,2.97,1.05,2.77-5.15,8.22-8.66,14.47-8.66s11.7,3.5,14.48,8.65c.96-.41,1.95-.76,2.97-1.04ZM170.91,15.1c-3.7-8.28-12.02-14.06-21.66-14.06s-17.95,5.79-21.65,14.06c1.09.11,2.15.29,3.19.55,3.35-6.8,10.37-11.5,18.46-11.5s15.1,4.69,18.47,11.5c1.04-.26,2.1-.44,3.19-.55Z"/>
        </g>
      </g>
    </g>
  </g>
</svg>