<?xml version="1.0" encoding="UTF-8"?>
<svg id="Layer_2" data-name="Layer 2" xmlns="http://www.w3.org/2000/svg" viewBox="0 0 142.4 142.49">
  <defs>
    <style>
      .cls-1 {
        fill: #f4d271;
      }
    </style>
  </defs>
  <g id="PATTERN">
    <path class="cls-1" d="M142.4,76.05l-.02.27c-.02.25-.04.5-.06.75l-.02.23h-.23c-3.11.01-5.21.2-6.5,1.1,1.27.88,3.35,1.08,6.23,1.1h.28s-.03.28-.03.28c-.03.25-.06.5-.1.75l-.03.22h-.22c-2.59-.01-5.26-.13-6.99-1.45-.42.65-.62,1.5-.62,2.57,0,.95.16,1.99.48,3.11,2.21.74,4.26,1.95,5.78,3.39l.11.1-.04.14c-.07.28-.14.55-.21.83l-.11.43-.31-.32c-.68-.71-1.39-1.24-1.86-1.56-.85-.58-1.82-1.1-2.84-1.51.41,1.02.93,2,1.51,2.84.45.66,1.39,1.89,2.68,2.77l.15.1-.05.17c-.04.14-.09.27-.14.41-.04.1-.07.21-.11.31l-.1.31-.27-.18c-2.2-1.44-4.13-4.15-5.18-7.27-1.12-.32-2.17-.48-3.11-.48-1.07,0-1.91.2-2.57.62,1.45,1.91,1.45,4.98,1.45,7.69s0,5.78-1.45,7.69c.65.41,1.5.62,2.57.62.94,0,1.99-.16,3.11-.48.94-2.8,2.57-5.27,4.48-6.79l.68-.54-.29.82c-.19.52-.38,1.04-.58,1.55l-.05.08c-.57.6-.98,1.16-1.23,1.52-.58.84-1.09,1.81-1.5,2.83.1-.04.19-.09.29-.13l.86-.39-.28.61c-.06.14-.13.28-.19.42-.09.2-.18.4-.27.59l-.04.09-.2.08c-.23.09-.46.18-.69.26-.21.75-.36,1.49-.43,2.2l-.03.09c-.19.35-.38.69-.58,1.04l-.62,1.09-.06-1c0-.1-.02-.2-.02-.31,0-.84.12-1.75.34-2.71-.96.23-1.88.34-2.71.34-1.43,0-2.57-.32-3.47-.98-.9.66-2.03.98-3.47.98-.84,0-1.75-.12-2.71-.34.23.96.34,1.87.34,2.71,0,1.43-.32,2.57-.98,3.47.66.9.98,2.03.98,3.47,0,.84-.12,1.75-.34,2.71.96-.23,1.87-.34,2.71-.34,1.2,0,2.2.23,3.04.7l.26.15-.37.46c-.1.12-.19.24-.29.36l-.13.15-.18-.09c-.63-.32-1.39-.48-2.33-.48s-1.99.16-3.11.48c-.95,2.81-3.08,6.4-6.14,7.83.7.33,1.41.82,2.1,1.44l.22.2-.23.18c-.11.09-.22.17-.33.26l-.42.33-.16-.14c-1.04-.9-2.11-1.44-3.19-1.6.14,1,.6,1.98,1.37,2.94l.16.2-.21.16c-.11.08-.23.17-.35.25l-.45.32-.15-.19c-.43-.54-.79-1.1-1.06-1.67-1.43,3.06-5.02,5.19-7.83,6.13-.12.41-.21.83-.3,1.28l-.02.12-.43.22c-.17.09-.34.18-.51.26l-.42.21.07-.47c.06-.4.14-.82.23-1.23-.96.23-1.88.34-2.71.34-1.43,0-2.57-.32-3.47-.98-.9.66-2.03.98-3.47.98-.84,0-1.75-.12-2.71-.34.23.96.34,1.88.34,2.71,0,1.42-.32,2.55-.96,3.45l.15.16-.42.12c-.32.08-.65.16-.98.23-.19.04-.38.08-.57.13l-1.6.38,1.41-.83c.08-.05.16-.1.23-.15-1.46-1.01-3.97-1.1-6.83-1.1s-5.37.09-6.83,1.1c1.46,1.01,3.97,1.1,6.83,1.1.67,0,1.3,0,1.9-.03l.05.5c-1.73.28-3.58.5-5.49.66-1.87-.17-3.19-.6-4.16-1.33-.24.38-.41.83-.51,1.37l-.04.2h-.53c-.14.02-.29.02-.43.02h-.29s.05-.29.05-.29c.14-.86.43-1.6.87-2.21-.66-.9-.98-2.03-.98-3.47,0-.84.12-1.75.34-2.71-.96.23-1.88.34-2.71.34-1.43,0-2.57-.32-3.47-.98-.9.66-2.03.98-3.47.98-.84,0-1.75-.12-2.71-.34.23.96.34,1.87.34,2.71,0,1.44-.32,2.57-.98,3.47.23.32.43.68.57,1.07l.16.41-.58-.1c-.25-.04-.49-.09-.73-.13l-.12-.02-.06-.11c-.04-.07-.08-.15-.12-.22-.08.06-.16.12-.25.18l-.09.06-.1-.02c-.29-.06-.57-.12-.85-.18l-1.03-.23.72-.31c.28-.12.52-.25.74-.4-1.46-1.01-3.97-1.1-6.83-1.1-.36,0-.7,0-1.04,0h-.04s-.45-.15-.45-.15c-.54-.18-1.08-.35-1.61-.55l-1.1-.4,1.17-.08c.98-.07,1.97-.07,3.08-.07,2.72,0,5.78,0,7.69,1.45.42-.65.62-1.5.62-2.57,0-.95-.16-1.99-.48-3.11-2.81-.95-6.4-3.08-7.83-6.13-1.43,3.06-5.02,5.19-7.83,6.13-.23.8-.38,1.58-.44,2.3l-.03.35-.32-.15c-.11-.05-.22-.1-.33-.15-.13-.06-.26-.12-.39-.18l-.16-.08.02-.18c.06-.51.15-1.03.27-1.53-.96.23-1.88.34-2.72.34-.05,0-.1,0-.15,0l-.2-.04c-.77-.41-1.52-.84-2.21-1.25l.24-.44c.62.32,1.38.48,2.32.48s1.99-.16,3.11-.48c.95-2.81,3.08-6.4,6.13-7.83-3.06-1.43-5.19-5.02-6.13-7.83-1.12-.32-2.17-.48-3.11-.48-1.07,0-1.91.2-2.57.62,1.45,1.91,1.45,4.98,1.45,7.69s0,6.02-1.62,7.91l-.03-.02-.12.2c-.65-.38-1.3-.78-1.93-1.18l-.06-.04-.03-.07c-.9-1.89-.9-4.5-.9-6.8,0-2.72,0-5.78,1.45-7.69-.65-.41-1.5-.62-2.57-.62-.94,0-1.99.16-3.11.48-.96,2.85-2.7,5.43-4.68,6.93l-.17.13-.15-.14c-.11-.1-.21-.2-.32-.3l-.44-.42.24-.18c1.21-.88,2.09-2.03,2.5-2.64.58-.85,1.1-1.82,1.51-2.84-1.02.41-2,.93-2.84,1.51-.62.42-1.78,1.31-2.67,2.54l-.17.24-.21-.21c-.1-.1-.2-.21-.3-.31l-.37-.38.13-.17c1.49-2,4.08-3.75,6.95-4.71.32-1.12.48-2.16.48-3.11,0-1.07-.2-1.91-.62-2.57-1.91,1.45-4.98,1.45-7.69,1.45s-5.67,0-7.58-1.35l-.06-.07c-.61-.93-1.19-1.87-1.73-2.78l-.03-.08c-.11-.52-.16-1.02-.16-1.54,0-.84.12-1.75.34-2.72-.74.18-1.47.28-2.18.33h-.16s-.23-.45-.23-.45c-.07-.14-.15-.29-.22-.43l-.17-.35h.39c.92-.02,1.91-.18,2.97-.48.95-2.81,3.08-6.4,6.13-7.83-3.06-1.43-5.19-5.02-6.13-7.83-1.12-.32-2.17-.48-3.11-.48-1.07,0-1.91.2-2.57.62,1.45,1.91,1.45,4.98,1.45,7.69,0,1.49,0,3.17-.26,4.67l-.15.85-.33-.8c-.17-.4-.32-.8-.48-1.21l-.13-.34v-.06c.07-.83.1-1.79.1-3.12,0-2.87-.09-5.37-1.1-6.83-.44.64-.73,1.5-.9,2.68l-.17,1.21-.32-1.18c-.15-.54-.28-1.09-.41-1.64l-.02-.07.02-.07c.22-.69.52-1.29.89-1.79-.37-.23-.8-.4-1.3-.5l-.16-.03-.03-.16c-.03-.15-.05-.29-.08-.44-.02-.12-.04-.23-.06-.34l-.07-.35.35.05c.88.13,1.64.43,2.25.88.9-.66,2.03-.98,3.47-.98.84,0,1.75.12,2.71.34-.23-.96-.34-1.87-.34-2.71,0-1.43.32-2.57.98-3.47-.66-.9-.98-2.03-.98-3.47,0-.84.12-1.75.34-2.71-.96.23-1.87.34-2.71.34-1.43,0-2.57-.32-3.47-.98-.9.66-2.03.98-3.47.98H.09l-.07-.25v-.33c-.01-.14-.02-.28-.02-.42v-.25s.34,0,.34,0c1.07,0,1.91-.2,2.57-.62-1.45-1.91-1.45-4.98-1.45-7.69s0-5.78,1.45-7.69c-.24-.15-.5-.27-.79-.36l-.22-.07.12-.53c.03-.14.06-.29.1-.43l.06-.26.25.08c.51.16.97.39,1.37.68.9-.66,2.03-.98,3.47-.98.84,0,1.75.12,2.71.34-.23-.96-.34-1.87-.34-2.71,0-1.43.32-2.57.98-3.47-.66-.9-.98-2.03-.98-3.47,0-.84.12-1.75.34-2.71-1.12.27-2.2.39-3.1.33l-.51-.03.29-.64c.06-.14.12-.28.19-.42l.07-.15h.25s.06.01.09.01c.94,0,1.99-.16,3.11-.48.95-2.81,3.08-6.4,6.13-7.83-1.05-.5-2.07-1.29-3.03-2.38l-.13-.15.3-.41c.08-.12.17-.24.25-.35l.19-.25.2.24c.93,1.07,2.4,2.37,4.23,2.63-.28-1.94-1.71-3.48-2.9-4.45l-.19-.16.34-.44c.09-.11.17-.22.26-.33l.16-.19.19.16c1.3,1.06,2.24,2.2,2.81,3.4,1.43-3.06,5.02-5.19,7.83-6.13.32-1.12.48-2.16.48-3.11,0-1.07-.2-1.91-.62-2.57-.84.64-1.97,1.05-3.44,1.26l-.8.11.59-.54c.25-.23.51-.45.77-.68l.48-.38c.62-.17,1.13-.39,1.54-.67-.06-.04-.12-.08-.17-.11l-.3-.18.27-.22c.12-.1.23-.19.35-.28l.4-.32.15.11c.05.04.1.08.15.12.13-.21.24-.42.32-.67l.02-.07.38-.3c.21-.17.42-.33.63-.5l.5-.38-.1.62c-.14.86-.43,1.59-.87,2.19.66.9.98,2.03.98,3.47,0,.84-.12,1.75-.34,2.71.96-.23,1.88-.34,2.71-.34,1.43,0,2.57.32,3.47.98.9-.66,2.03-.98,3.47-.98.84,0,1.75.12,2.71.34-.23-.96-.34-1.87-.34-2.71,0-1.43.32-2.57.98-3.47-.66-.9-.98-2.03-.98-3.47,0-.84.12-1.75.34-2.71-.96.23-1.88.34-2.71.34-1.21,0-2.2-.23-3.04-.7l-.38-.21.37-.22c.17-.1.33-.19.5-.29l.38-.22.11.05c1.24.5,3.09.46,5.16-.14.38-1.12.89-2.23,1.53-3.29l.04-.07.07-.03c.4-.17.79-.35,1.19-.51l.8-.33-.62.87c-.58.85-1.1,1.82-1.51,2.84,1.02-.41,2-.93,2.84-1.51.88-.6,2.49-1.87,3.31-3.59l.05-.1.21-.07c.24-.08.48-.16.71-.23l.19-.51.15.4c.17-.05.34-.11.51-.16l.23-.07.08.22c.73,1.97,2.51,3.41,3.51,4.09.85.58,1.82,1.09,2.84,1.51-.41-1.02-.93-2-1.51-2.84-.52-.76-1.62-2.17-3.12-3.05l-.52-.3.95-.25c.2-.05.39-.11.59-.16l.11-.03.09.07c2.08,1.47,3.92,4.12,4.91,7.09,1.12.32,2.17.48,3.11.48,1.07,0,1.91-.2,2.57-.62-1.45-1.91-1.45-4.98-1.45-7.69V.39s.22-.02.22-.02c.11-.01.22-.03.33-.04.14-.02.28-.04.43-.05l.28-.03v.28c0,.28,0,.57,0,.87,0,2.87.09,5.37,1.1,6.83,1.01-1.46,1.1-3.97,1.1-6.83,0-.37,0-.72,0-1.07V.08s.23-.02.23-.02c.11,0,.22-.02.33-.03.14-.01.28-.02.42-.03h.26s0,.25,0,.25c0,.38,0,.76,0,1.13,0,2.72,0,5.78-1.45,7.69.65.42,1.5.62,2.57.62.95,0,1.99-.16,3.11-.48.95-2.81,3.08-6.4,6.14-7.83-.41-.2-.84-.46-1.29-.78l-.73-.52,1.45.11c.38.03.76.05,1.13.09l.07.02c.46.2.9.33,1.34.4l-.03-.25.61.08c.19.02.38.05.57.07l.24.03v.04s.07-.01.11-.02h.04s.04,0,.04,0c.46.07.92.15,1.38.23l1.06.18-.66.3c3.07,1.42,5.21,5.02,6.16,7.84,1.12.32,2.17.48,3.11.48,1.07,0,1.91-.2,2.57-.62-1.1-1.45-1.33-3.49-1.41-5.14l-.02-.37.63.21c.16.05.33.11.49.17l.16.05v.16c.13,1.92.45,3.19,1.04,4.04.49-.71.8-1.71.95-3.12l.04-.33.56.22c.16.06.32.13.48.19l.18.07-.02.19c-.2,1.56-.62,2.75-1.28,3.63.65.42,1.5.62,2.57.62.95,0,1.99-.16,3.11-.48.15-.43.33-.89.55-1.4l.11-.24.39.2c.18.09.35.18.52.27l.2.11-.09.21c-.04.1-.09.2-.14.3,0,0,0,0,0,0,.12-.05.23-.11.35-.16l.32-.15.11.06c.16.09.32.18.48.27l.74.41-.43.21c-.73.36-1.44.66-2.12.89-.32,1.12-.48,2.17-.48,3.11,0,1.07.2,1.91.62,2.57,1.91-1.45,4.98-1.45,7.69-1.45.95,0,1.89,0,2.81.06h.08s.06.05.06.05c.37.28.73.57,1.1.86l.69.55-.87-.11c-1.21-.15-2.63-.16-3.86-.16-2.87,0-5.37.09-6.83,1.1,1.46,1.01,3.97,1.1,6.83,1.1,2.21,0,4.49-.05,6.02-.67l.14-.06.34.29c.13.12.27.23.4.35l.28.25-.34.16c-1.89.92-4.52.92-6.84.92-2.72,0-5.78,0-7.69-1.45-.42.65-.62,1.5-.62,2.57,0,.95.16,1.99.48,3.11,2.81.95,6.4,3.08,7.83,6.13,1.43-3.06,5.02-5.19,7.83-6.13.32-1.12.48-2.17.48-3.11,0-.21-.01-.4-.03-.59l-.05-.65.69.66c.19.18.37.35.56.53l.08.08v.11c-.01.81-.13,1.68-.34,2.59.88-.21,1.73-.32,2.53-.34h.11s.32.34.32.34c.16.17.32.34.47.51l.41.46-.7-.05c-1-.07-2.24.09-3.54.46-.95,2.81-3.08,6.4-6.13,7.83,3.06,1.43,5.19,5.02,6.13,7.83,1.12.32,2.17.48,3.11.48,1.07,0,1.91-.2,2.57-.62-1.45-1.91-1.45-4.98-1.45-7.69,0-2.26,0-4.82.86-6.7l.16-.36.42.5c.13.15.25.3.38.46l.09.11-.05.13c-.51,1.38-.61,3.27-.61,5.87,0,2.87.09,5.37,1.1,6.83,1.01-1.46,1.1-3.97,1.1-6.83,0-1.09-.01-2.35-.12-3.44l-.08-.89.53.71c.18.24.36.5.53.75l.35.5v.07c.03.76.03,1.52.03,2.3,0,2.72,0,5.78-1.45,7.69.65.42,1.5.62,2.57.62.94,0,1.99-.16,3.11-.48.15-.46.35-.95.6-1.5l.21-.47.28.53c.14.26.27.53.41.8l.05.1h0s.1.2.1.2c.05.1.1.2.15.3.06.12.13.25.19.37l.12.24-.25.1c-.29.11-.58.23-.86.33-.32,1.12-.48,2.17-.48,3.11,0,1.07.2,1.91.62,2.57.73-.56,1.68-.94,2.87-1.16l.2-.04.2.51c.05.14.11.27.16.41l.1.28-.3.05c-1.02.17-1.8.45-2.38.85.72.5,1.73.8,3.16.96l.16.02.16.47c.05.16.11.32.16.47l.11.36-.37-.03c-1.9-.17-3.25-.6-4.24-1.34-.42.65-.62,1.5-.62,2.57,0,.95.16,1.99.48,3.11,2.81.95,5.37,2.66,6.87,4.6l.06.17c.11.65.22,1.29.32,1.95l.15,1.05v-.09s.13.96.13.96l-.02-.04.1.98c.05.46.08.93.12,1.4l.04.59-.03.06c-1.49,3.02-4.95,5.07-7.74,6.01-.32,1.12-.48,2.17-.48,3.11,0,1.07.2,1.91.62,2.57,1.75-1.33,4.4-1.45,7.42-1.45h.27ZM44.21,129.06c-.58.85-1.1,1.82-1.51,2.84,1.02-.41,2-.93,2.84-1.51,1.29-.88,3.44-2.69,3.79-5.12-2.44.35-4.25,2.5-5.13,3.79ZM19.21,108.09c-2.87,0-5.37.09-6.83,1.1,1.46,1.01,3.97,1.1,6.83,1.1s5.37-.09,6.83-1.1c-1.46-1.01-3.97-1.1-6.83-1.1ZM3.81,56.16c-1.01,1.46-1.1,3.97-1.1,6.83s.09,5.37,1.1,6.83c1.01-1.46,1.1-3.97,1.1-6.83s-.09-5.37-1.1-6.83ZM13.4,36.66h0c-.58.85-1.1,1.82-1.51,2.84,1.02-.41,2-.93,2.84-1.51,1.29-.88,3.44-2.69,3.79-5.13-2.44.35-4.25,2.5-5.13,3.79ZM127.01,86.96c-1.01,1.46-1.1,3.97-1.1,6.83s.09,5.37,1.1,6.83c1.01-1.46,1.1-3.97,1.1-6.83s-.09-5.37-1.1-6.83ZM104.3,131.91c1.02-.41,2-.93,2.84-1.51,1.29-.88,3.44-2.69,3.79-5.12-2.44.35-4.25,2.5-5.13,3.79-.58.85-1.1,1.82-1.51,2.84ZM102.79,132.43c.95-2.81,3.08-6.4,6.13-7.83-3.06-1.43-5.19-5.02-6.13-7.83-1.12-.32-2.17-.48-3.11-.48-1.07,0-1.91.2-2.57.62,1.45,1.91,1.45,4.98,1.45,7.69s0,5.78-1.45,7.69c.65.41,1.5.62,2.57.62.95,0,1.99-.16,3.11-.48ZM4.71,70.69c.65.41,1.5.62,2.57.62.94,0,1.99-.16,3.11-.48.95-2.81,3.08-6.4,6.13-7.83-3.06-1.43-5.19-5.02-6.13-7.83-1.12-.32-2.16-.48-3.11-.48-1.07,0-1.91.2-2.57.62,1.45,1.91,1.45,4.98,1.45,7.69s0,5.78-1.45,7.69ZM26.52,24.88c-1.02.41-2,.93-2.84,1.51-1.29.88-3.44,2.69-3.79,5.13,2.44-.35,4.25-2.5,5.12-3.79.58-.85,1.1-1.82,1.51-2.84ZM72.98,10.22c-.32,1.12-.48,2.17-.48,3.11,0,1.07.2,1.91.62,2.57,1.91-1.45,4.98-1.45,7.69-1.45s5.78,0,7.69,1.45c.42-.65.62-1.5.62-2.57,0-.94-.16-1.99-.48-3.11-2.81-.95-6.4-3.08-7.83-6.13-1.43,3.06-5.02,5.19-7.83,6.13ZM50.01,17.9c2.87,0,5.37-.09,6.83-1.1-1.46-1.01-3.97-1.1-6.83-1.1s-5.37.09-6.83,1.1c1.46,1.01,3.97,1.1,6.83,1.1ZM73.97,16.8c1.46,1.01,3.97,1.1,6.83,1.1s5.37-.09,6.83-1.1c-1.46-1.01-3.97-1.1-6.83-1.1s-5.37.09-6.83,1.1ZM73.11,17.7c-.42.65-.62,1.5-.62,2.57,0,.95.16,1.99.48,3.11,2.81.95,6.4,3.08,7.83,6.13,1.43-3.06,5.02-5.19,7.83-6.13.32-1.12.48-2.17.48-3.11,0-1.07-.2-1.91-.62-2.57-1.91,1.45-4.98,1.45-7.69,1.45s-5.78,0-7.69-1.45ZM118.92,101.11c-.41-1.02-.93-2-1.51-2.84-.88-1.29-2.69-3.44-5.12-3.79.35,2.44,2.5,4.25,3.79,5.12.85.58,1.82,1.1,2.84,1.51ZM88.12,131.91c-.41-1.02-.93-2-1.51-2.84-.88-1.29-2.69-3.44-5.13-3.79.35,2.44,2.5,4.25,3.79,5.12.85.58,1.82,1.1,2.84,1.51ZM75,129.06c-.58.85-1.1,1.82-1.51,2.84,1.02-.41,2-.93,2.84-1.51,1.29-.88,3.44-2.69,3.79-5.12-2.44.35-4.25,2.5-5.13,3.79ZM43.17,109.2c1.46,1.01,3.97,1.1,6.83,1.1s5.37-.09,6.83-1.1c-1.46-1.01-3.97-1.1-6.83-1.1s-5.37.09-6.83,1.1ZM44.21,27.73h0c.88,1.29,2.69,3.44,5.13,3.79-.35-2.44-2.5-4.25-3.79-5.13-.85-.58-1.82-1.1-2.84-1.51.41,1.02.93,2,1.51,2.84ZM111.61,48.7c2.87,0,5.37-.09,6.83-1.1-1.47-1.01-3.97-1.1-6.83-1.1s-5.37.09-6.83,1.1c1.46,1.01,3.97,1.1,6.83,1.1ZM112.29,93.12c2.44-.35,4.25-2.5,5.12-3.79.58-.85,1.1-1.82,1.51-2.84-1.02.41-2,.93-2.84,1.51-1.29.88-3.44,2.69-3.79,5.12ZM105.8,98.26c-.58.85-1.1,1.82-1.51,2.84,1.02-.41,2-.93,2.84-1.51,1.29-.88,3.44-2.69,3.79-5.12-2.44.35-4.25,2.5-5.13,3.79ZM81.49,123.92c2.44-.35,4.25-2.5,5.13-3.79.58-.85,1.1-1.82,1.51-2.84-1.02.41-2,.93-2.84,1.51-1.29.88-3.44,2.69-3.79,5.12ZM26.52,55.68c-1.02.41-2,.93-2.84,1.51-1.29.88-3.44,2.69-3.79,5.13,2.44-.35,4.25-2.5,5.12-3.79.58-.85,1.1-1.82,1.51-2.84ZM25.01,67.46c-.88-1.29-2.69-3.44-5.12-3.79.35,2.44,2.5,4.25,3.79,5.12.85.58,1.82,1.1,2.84,1.51-.41-1.02-.93-2-1.51-2.84ZM49.33,32.87c-2.44.35-4.25,2.5-5.13,3.79-.58.85-1.1,1.82-1.51,2.84,1.02-.41,2-.93,2.84-1.51,1.29-.88,3.44-2.69,3.79-5.13ZM44.21,98.26c-.58.85-1.1,1.82-1.51,2.84,1.02-.41,2-.93,2.84-1.51,1.29-.88,3.44-2.69,3.79-5.12-2.44.35-4.25,2.5-5.13,3.79ZM75,27.73h0c.88,1.29,2.69,3.44,5.13,3.79-.35-2.44-2.5-4.25-3.79-5.13-.85-.58-1.82-1.1-2.84-1.51.41,1.02.93,2,1.51,2.84ZM86.61,27.73c.58-.85,1.1-1.82,1.51-2.84-1.02.41-1.99.93-2.84,1.51-1.29.88-3.44,2.69-3.79,5.13,2.44-.35,4.25-2.5,5.13-3.79ZM117.41,58.53c.58-.85,1.1-1.82,1.51-2.84-1.02.41-2,.93-2.84,1.51-1.29.88-3.44,2.69-3.79,5.13,2.44-.35,4.25-2.5,5.12-3.79ZM118.92,70.31c-.41-1.02-.93-2-1.51-2.84-.88-1.29-2.69-3.44-5.12-3.79.35,2.44,2.5,4.25,3.79,5.12.85.58,1.82,1.1,2.84,1.51ZM118.44,78.4c-1.47-1.01-3.97-1.1-6.83-1.1s-5.37.09-6.83,1.1c1.46,1.01,3.97,1.1,6.83,1.1s5.37-.09,6.83-1.1ZM87.64,109.2c-1.46-1.01-3.97-1.1-6.83-1.1s-5.37.09-6.83,1.1c1.46,1.01,3.97,1.1,6.83,1.1s5.37-.09,6.83-1.1ZM88.5,108.29c.42-.65.62-1.5.62-2.57,0-.94-.16-1.99-.48-3.11-2.81-.95-6.4-3.08-7.83-6.13-1.43,3.06-5.02,5.19-7.83,6.13-.32,1.12-.48,2.17-.48,3.11,0,1.07.2,1.91.62,2.57,1.91-1.45,4.98-1.45,7.69-1.45s5.78,0,7.69,1.45ZM50.69,94.47c.35,2.44,2.5,4.25,3.79,5.12.85.58,1.82,1.1,2.84,1.51-.41-1.02-.93-2-1.51-2.84-.88-1.29-2.69-3.44-5.13-3.79ZM42.7,86.48c.41,1.02.93,2,1.51,2.84.88,1.29,2.69,3.44,5.13,3.79-.35-2.44-2.5-4.25-3.79-5.12-.85-.58-1.82-1.1-2.84-1.51ZM80.13,32.87c-2.44.35-4.25,2.5-5.13,3.79-.58.85-1.1,1.82-1.51,2.84,1.02-.41,2-.93,2.84-1.51,1.29-.88,3.44-2.69,3.79-5.13ZM88.12,39.51c-.41-1.02-.93-2-1.51-2.84-.88-1.29-2.69-3.44-5.13-3.79.35,2.44,2.5,4.25,3.79,5.13.85.58,1.82,1.1,2.84,1.51ZM110.93,62.32c-.35-2.44-2.5-4.25-3.79-5.13-.85-.58-1.82-1.1-2.84-1.51.41,1.02.93,2,1.51,2.84.88,1.29,2.69,3.44,5.13,3.79ZM47.32,63c-3.06-1.43-5.19-5.02-6.13-7.83-1.12-.32-2.17-.48-3.11-.48-1.07,0-1.91.2-2.57.62,1.45,1.91,1.45,4.98,1.45,7.69s0,5.78-1.45,7.69c.65.41,1.5.62,2.57.62.94,0,1.99-.16,3.11-.48.95-2.81,3.08-6.4,6.13-7.83ZM88.12,101.11c-.41-1.02-.93-2-1.51-2.84-.88-1.29-2.69-3.44-5.13-3.79.35,2.44,2.5,4.25,3.79,5.12.85.58,1.82,1.1,2.84,1.51ZM75,98.26c-.58.85-1.1,1.82-1.51,2.84,1.02-.41,2-.93,2.84-1.51,1.29-.88,3.44-2.69,3.79-5.12-2.44.35-4.25,2.5-5.13,3.79ZM42.7,55.68c.41,1.02.93,2,1.51,2.84.88,1.29,2.69,3.44,5.13,3.79-.35-2.44-2.5-4.25-3.79-5.13-.85-.58-1.82-1.09-2.84-1.51ZM80.81,48.7c2.87,0,5.37-.09,6.83-1.1-1.46-1.01-3.97-1.1-6.83-1.1s-5.37.09-6.83,1.1c1.46,1.01,3.97,1.1,6.83,1.1ZM73.11,48.5c-.42.65-.62,1.5-.62,2.57,0,.94.16,1.99.48,3.11,2.81.95,6.4,3.08,7.83,6.13,1.43-3.06,5.02-5.19,7.83-6.13.32-1.12.48-2.17.48-3.11,0-1.07-.2-1.91-.62-2.57-1.91,1.45-4.98,1.45-7.69,1.45s-5.78,0-7.69-1.45ZM81.49,93.12c2.44-.35,4.25-2.5,5.13-3.79.58-.85,1.1-1.82,1.51-2.84-1.02.41-2,.93-2.84,1.51-1.29.88-3.44,2.69-3.79,5.12ZM73.5,86.48c.41,1.02.93,2,1.51,2.84.88,1.29,2.69,3.44,5.13,3.79-.35-2.44-2.5-4.25-3.79-5.12-.85-.58-1.82-1.1-2.84-1.51ZM55.81,67.46c-.88-1.29-2.69-3.44-5.13-3.79.35,2.44,2.5,4.25,3.79,5.12.85.58,1.82,1.1,2.84,1.51-.41-1.02-.93-2-1.51-2.84ZM57.32,55.68c-1.02.41-2,.93-2.84,1.51-1.29.88-3.44,2.69-3.79,5.13,2.44-.35,4.25-2.5,5.13-3.79.58-.85,1.1-1.82,1.51-2.84ZM86.61,58.53c.58-.85,1.1-1.82,1.51-2.84-1.02.41-1.99.93-2.84,1.51-1.29.88-3.44,2.69-3.79,5.13,2.44-.35,4.25-2.5,5.13-3.79ZM73.5,55.68c.41,1.02.93,2,1.51,2.84h0c.88,1.29,2.69,3.44,5.13,3.79-.35-2.44-2.5-4.25-3.79-5.13-.85-.58-1.82-1.09-2.84-1.51ZM66.51,63c0-2.87-.09-5.37-1.1-6.83-1.01,1.46-1.1,3.97-1.1,6.83s.09,5.37,1.1,6.83c1.01-1.46,1.1-3.97,1.1-6.83ZM88.12,70.31c-.41-1.02-.93-2-1.51-2.84-.88-1.29-2.69-3.44-5.13-3.79.35,2.44,2.5,4.25,3.79,5.12.85.58,1.82,1.1,2.84,1.51ZM80.81,77.29c-2.87,0-5.37.09-6.83,1.1,1.46,1.01,3.97,1.1,6.83,1.1s5.37-.09,6.83-1.1c-1.46-1.01-3.97-1.1-6.83-1.1ZM88.5,77.49c.42-.65.62-1.5.62-2.57,0-.94-.16-1.99-.48-3.11-2.81-.95-6.4-3.08-7.83-6.13-1.43,3.06-5.02,5.19-7.83,6.13-.32,1.12-.48,2.17-.48,3.11,0,1.07.2,1.91.62,2.57,1.91-1.45,4.98-1.45,7.69-1.45s5.78,0,7.69,1.45ZM80.13,63.67c-2.44.35-4.25,2.5-5.13,3.79-.58.85-1.1,1.82-1.51,2.84,1.02-.41,2-.93,2.84-1.51,1.29-.88,3.44-2.69,3.79-5.12ZM78.12,63c-3.06-1.43-5.19-5.02-6.13-7.83-1.12-.32-2.17-.48-3.11-.48-1.07,0-1.91.2-2.57.62,1.45,1.91,1.45,4.98,1.45,7.69s0,5.78-1.45,7.69c.65.41,1.5.62,2.57.62.94,0,1.99-.16,3.11-.48.95-2.81,3.08-6.4,6.13-7.83ZM58.83,55.17c-.95,2.81-3.08,6.4-6.13,7.83,3.06,1.43,5.19,5.02,6.13,7.83,1.12.32,2.17.48,3.11.48,1.07,0,1.91-.2,2.57-.62-1.45-1.91-1.45-4.98-1.45-7.69s0-5.78,1.45-7.69c-.65-.41-1.5-.62-2.57-.62-.95,0-1.99.16-3.11.48ZM58.59,78.4c.66.9.98,2.03.98,3.47,0,.84-.12,1.75-.34,2.71.96-.23,1.88-.34,2.71-.34,1.43,0,2.57.32,3.47.98.9-.66,2.03-.98,3.47-.98.84,0,1.75.12,2.71.34-.23-.96-.34-1.87-.34-2.71,0-1.43.32-2.57.98-3.47-.66-.9-.98-2.03-.98-3.47,0-.84.12-1.75.34-2.71-.96.23-1.87.34-2.71.34-1.43,0-2.57-.32-3.47-.98-.9.66-2.03.98-3.47.98-.84,0-1.75-.12-2.71-.34.23.96.34,1.87.34,2.71,0,1.43-.32,2.57-.98,3.47ZM72.98,84.97c2.81.95,6.4,3.08,7.83,6.13,1.43-3.06,5.02-5.19,7.83-6.13.32-1.12.48-2.17.48-3.11,0-1.07-.2-1.91-.62-2.57-1.91,1.45-4.98,1.45-7.69,1.45s-5.78,0-7.69-1.45c-.42.65-.62,1.5-.62,2.57,0,.95.16,1.99.48,3.11ZM96.21,69.83c1.02-1.46,1.1-3.97,1.1-6.83s-.09-5.37-1.1-6.83c-1.01,1.46-1.1,3.97-1.1,6.83s.09,5.37,1.1,6.83ZM95.31,55.3c-.65-.41-1.5-.62-2.57-.62-.95,0-1.99.16-3.11.48-.95,2.81-3.08,6.4-6.13,7.83,3.06,1.43,5.19,5.02,6.13,7.83,1.12.32,2.17.48,3.11.48,1.07,0,1.91-.2,2.57-.62-1.45-1.91-1.45-4.98-1.45-7.69s0-5.78,1.45-7.69ZM45.54,68.8c1.29-.88,3.44-2.69,3.79-5.12-2.44.35-4.25,2.5-5.13,3.79-.58.85-1.1,1.82-1.51,2.84,1.02-.41,2-.93,2.84-1.51ZM42.18,71.82c-.32,1.12-.48,2.17-.48,3.11,0,1.07.2,1.91.62,2.57,1.91-1.45,4.98-1.45,7.69-1.45s5.78,0,7.69,1.45c.42-.65.62-1.5.62-2.57,0-.95-.16-1.99-.48-3.11-2.81-.95-6.4-3.08-7.83-6.13-1.43,3.06-5.02,5.19-7.83,6.13ZM43.17,78.4c1.46,1.01,3.97,1.1,6.83,1.1s5.37-.09,6.83-1.1c-1.47-1.01-3.97-1.1-6.83-1.1s-5.37.09-6.83,1.1ZM96.21,85.21c.9-.66,2.03-.98,3.47-.98.84,0,1.75.12,2.71.34-.23-.96-.34-1.87-.34-2.71,0-1.43.32-2.57.98-3.47-.66-.9-.98-2.03-.98-3.47,0-.84.12-1.75.34-2.71-.96.23-1.87.34-2.71.34-1.43,0-2.57-.32-3.47-.98-.9.66-2.03.98-3.47.98-.84,0-1.75-.12-2.71-.34.23.96.34,1.88.34,2.71,0,1.43-.32,2.57-.98,3.47.66.9.98,2.03.98,3.47,0,.84-.12,1.75-.34,2.71.96-.23,1.88-.34,2.71-.34,1.43,0,2.57.32,3.47.98ZM72.23,47.6c-.66-.9-.98-2.03-.98-3.47,0-.84.12-1.75.34-2.71-.96.23-1.88.34-2.71.34-1.43,0-2.57-.32-3.47-.98-.9.66-2.03.98-3.47.98-.84,0-1.75-.12-2.71-.34.23.96.34,1.87.34,2.71,0,1.43-.32,2.57-.98,3.47.66.9.98,2.03.98,3.47,0,.84-.12,1.75-.34,2.71.96-.23,1.88-.34,2.71-.34,1.43,0,2.57.32,3.47.98.9-.66,2.03-.98,3.47-.98.84,0,1.75.12,2.71.34-.23-.96-.34-1.87-.34-2.71,0-1.43.32-2.57.98-3.47ZM65.41,86.96c-1.01,1.46-1.1,3.97-1.1,6.83s.09,5.37,1.1,6.83c1.01-1.46,1.1-3.97,1.1-6.83s-.09-5.37-1.1-6.83ZM66.31,101.49c.65.41,1.5.62,2.57.62.94,0,1.99-.16,3.11-.48.95-2.81,3.08-6.4,6.13-7.83-3.06-1.43-5.19-5.02-6.13-7.83-1.12-.32-2.17-.48-3.11-.48-1.07,0-1.91.2-2.57.62,1.45,1.91,1.45,4.98,1.45,7.69s0,5.78-1.45,7.69ZM83.5,93.8c3.06,1.43,5.19,5.02,6.13,7.83,1.12.32,2.17.48,3.11.48,1.07,0,1.91-.2,2.57-.62-1.45-1.91-1.45-4.98-1.45-7.69s0-5.78,1.45-7.69c-.65-.41-1.5-.62-2.57-.62-.94,0-1.99.16-3.11.48-.95,2.81-3.08,6.4-6.13,7.83ZM95.11,93.8c0,2.87.09,5.37,1.1,6.83,1.01-1.46,1.1-3.97,1.1-6.83s-.09-5.37-1.1-6.83c-1.01,1.46-1.1,3.97-1.1,6.83ZM43.17,47.6c1.46,1.01,3.97,1.1,6.83,1.1s5.37-.09,6.83-1.1c-1.47-1.01-3.97-1.1-6.83-1.1s-5.37.09-6.83,1.1ZM50.69,93.12c2.44-.35,4.25-2.5,5.13-3.79.58-.85,1.1-1.82,1.51-2.84-1.02.41-2,.93-2.84,1.51-1.29.88-3.44,2.69-3.79,5.12ZM110.93,63.67c-2.44.35-4.25,2.5-5.13,3.79-.58.85-1.1,1.82-1.51,2.84,1.02-.41,2-.93,2.84-1.51,1.29-.88,3.44-2.69,3.79-5.12ZM108.92,63c-3.06-1.43-5.19-5.02-6.13-7.83-1.12-.32-2.17-.48-3.11-.48-1.07,0-1.91.2-2.57.62,1.45,1.91,1.45,4.98,1.45,7.69s0,5.78-1.45,7.69c.65.41,1.5.62,2.57.62.94,0,1.99-.16,3.11-.48.95-2.81,3.08-6.4,6.13-7.83ZM88.64,41.02c-2.81-.95-6.4-3.08-7.83-6.13-1.43,3.06-5.02,5.19-7.83,6.13-.32,1.12-.48,2.17-.48,3.11,0,1.07.2,1.91.62,2.57,1.91-1.45,4.98-1.45,7.69-1.45s5.78,0,7.69,1.45c.42-.65.62-1.5.62-2.57,0-.94-.16-1.99-.48-3.11ZM42.31,48.5c-.42.65-.62,1.5-.62,2.57,0,.94.16,1.99.48,3.11,2.81.95,6.4,3.08,7.83,6.13,1.43-3.06,5.02-5.19,7.83-6.13.32-1.12.48-2.16.48-3.11,0-1.07-.2-1.91-.62-2.57-1.91,1.45-4.98,1.45-7.69,1.45s-5.78,0-7.69-1.45ZM34.61,56.16c-1.02,1.46-1.1,3.97-1.1,6.83s.09,5.37,1.1,6.83c1.01-1.46,1.1-3.97,1.1-6.83s-.09-5.37-1.1-6.83ZM42.18,84.97c2.81.95,6.4,3.08,7.83,6.13,1.43-3.06,5.02-5.19,7.83-6.13.32-1.12.48-2.17.48-3.11,0-1.07-.2-1.91-.62-2.57-1.91,1.45-4.98,1.45-7.69,1.45s-5.78,0-7.69-1.45c-.42.65-.62,1.5-.62,2.57,0,.95.16,1.99.48,3.11ZM52.7,93.8c3.06,1.43,5.19,5.02,6.13,7.83,1.12.32,2.17.48,3.11.48,1.07,0,1.91-.2,2.57-.62-1.45-1.91-1.45-4.98-1.45-7.69s0-5.78,1.45-7.69c-.65-.41-1.5-.62-2.57-.62-.94,0-1.99.16-3.11.48-.95,2.81-3.08,6.4-6.13,7.83ZM103.03,47.6c-.66-.9-.98-2.03-.98-3.47,0-.84.12-1.75.34-2.71-.96.23-1.88.34-2.71.34-1.43,0-2.57-.32-3.47-.98-.9.66-2.03.98-3.47.98-.84,0-1.75-.12-2.71-.34.23.96.34,1.87.34,2.71,0,1.43-.32,2.57-.98,3.47.66.9.98,2.03.98,3.47,0,.84-.12,1.75-.34,2.71.96-.23,1.88-.34,2.71-.34,1.43,0,2.57.32,3.47.98.9-.66,2.03-.98,3.47-.98.84,0,1.75.12,2.71.34-.23-.96-.34-1.87-.34-2.71,0-1.43.32-2.57.98-3.47ZM66.51,32.2c0-2.87-.09-5.37-1.1-6.83-1.01,1.46-1.1,3.97-1.1,6.83s.09,5.37,1.1,6.83c1.01-1.46,1.1-3.97,1.1-6.83ZM55.81,36.66c-.88-1.29-2.69-3.44-5.13-3.79.35,2.44,2.5,4.25,3.79,5.13.85.58,1.82,1.1,2.84,1.51-.41-1.02-.93-2-1.51-2.84ZM57.84,41.02c-2.81-.95-6.4-3.08-7.83-6.13-1.43,3.06-5.02,5.19-7.83,6.13-.32,1.12-.48,2.17-.48,3.11,0,1.07.2,1.91.62,2.57,1.91-1.45,4.98-1.45,7.69-1.45s5.78,0,7.69,1.45c.42-.65.62-1.5.62-2.57,0-.95-.16-1.99-.48-3.11ZM28.03,55.17c-.95,2.81-3.08,6.4-6.13,7.83,3.06,1.43,5.19,5.02,6.13,7.83,1.12.32,2.17.48,3.11.48,1.07,0,1.91-.2,2.57-.62-1.45-1.91-1.45-4.98-1.45-7.69s0-5.78,1.45-7.69c-.65-.41-1.5-.62-2.57-.62-.95,0-1.99.16-3.11.48ZM28.43,72.21c.23.96.34,1.88.34,2.71,0,1.43-.32,2.57-.98,3.47.66.9.98,2.03.98,3.47,0,.84-.12,1.75-.34,2.71.96-.23,1.88-.34,2.71-.34,1.43,0,2.57.32,3.47.98.9-.66,2.03-.98,3.47-.98.84,0,1.75.12,2.71.34-.23-.96-.34-1.87-.34-2.71,0-1.43.32-2.57.98-3.47-.66-.9-.98-2.03-.98-3.47,0-.84.12-1.75.34-2.71-.96.23-1.87.34-2.71.34-1.43,0-2.57-.32-3.47-.98-.9.66-2.03.98-3.47.98-.84,0-1.75-.12-2.71-.34ZM34.61,86.96c-1.02,1.46-1.1,3.97-1.1,6.83s.09,5.37,1.1,6.83c1.01-1.46,1.1-3.97,1.1-6.83s-.09-5.37-1.1-6.83ZM72.5,112.66c0,.95.16,1.99.48,3.11,2.81.95,6.4,3.08,7.83,6.13,1.43-3.06,5.02-5.19,7.83-6.13.32-1.12.48-2.17.48-3.11,0-1.07-.2-1.91-.62-2.57-1.91,1.45-4.98,1.45-7.69,1.45s-5.78,0-7.69-1.45c-.42.65-.62,1.5-.62,2.57ZM102.79,101.63c.95-2.81,3.08-6.4,6.13-7.83-3.06-1.43-5.19-5.02-6.13-7.83-1.12-.32-2.17-.48-3.11-.48-1.07,0-1.91.2-2.57.62,1.45,1.91,1.45,4.98,1.45,7.69s0,5.78-1.45,7.69c.65.41,1.5.62,2.57.62.94,0,1.99-.16,3.11-.48ZM105.8,89.33c.88,1.29,2.69,3.44,5.13,3.79-.35-2.44-2.5-4.25-3.79-5.12-.85-.58-1.82-1.1-2.84-1.51.41,1.02.93,2,1.51,2.84ZM103.78,84.97c2.81.95,6.4,3.08,7.83,6.13,1.43-3.06,5.02-5.19,7.83-6.13.32-1.12.48-2.17.48-3.11,0-1.07-.2-1.91-.62-2.57-1.91,1.45-4.98,1.45-7.69,1.45s-5.78,0-7.69-1.45c-.42.65-.62,1.5-.62,2.57,0,.95.16,1.99.48,3.11ZM119.3,77.49c.42-.65.62-1.5.62-2.57,0-.95-.16-1.99-.48-3.11-2.81-.95-6.4-3.08-7.83-6.13-1.43,3.06-5.02,5.19-7.83,6.13-.32,1.12-.48,2.17-.48,3.11,0,1.07.2,1.91.62,2.57,1.91-1.45,4.98-1.45,7.69-1.45s5.78,0,7.69,1.45ZM96.21,39.03c1.01-1.46,1.1-3.97,1.1-6.83s-.09-5.37-1.1-6.83c-1.01,1.46-1.1,3.97-1.1,6.83s.09,5.37,1.1,6.83ZM89.63,24.37c-.95,2.81-3.08,6.4-6.13,7.83,3.06,1.43,5.19,5.02,6.13,7.83,1.12.32,2.17.48,3.11.48,1.07,0,1.91-.2,2.57-.62-1.45-1.91-1.45-4.98-1.45-7.69s0-5.78,1.45-7.69c-.65-.42-1.5-.62-2.57-.62-.94,0-1.99.16-3.11.48ZM78.12,32.2c-3.06-1.43-5.19-5.02-6.13-7.83-1.12-.32-2.17-.48-3.11-.48-1.07,0-1.91.2-2.57.62,1.45,1.91,1.45,4.98,1.45,7.69s0,5.78-1.45,7.69c.65.42,1.5.62,2.57.62.94,0,1.99-.16,3.11-.48.95-2.81,3.08-6.4,6.13-7.83ZM58.83,24.37c-.95,2.81-3.08,6.4-6.13,7.83,3.06,1.43,5.19,5.02,6.13,7.83,1.12.32,2.17.48,3.11.48,1.07,0,1.91-.2,2.57-.62-1.45-1.91-1.45-4.98-1.45-7.69s0-5.78,1.45-7.69c-.65-.42-1.5-.62-2.57-.62-.94,0-1.99.16-3.11.48ZM55.81,27.73c.58-.85,1.1-1.82,1.51-2.84-1.02.41-2,.93-2.84,1.51-1.29.88-3.44,2.69-3.79,5.13,2.44-.35,4.25-2.5,5.13-3.79ZM40.79,41.41c-.96.23-1.88.34-2.71.34-1.43,0-2.57-.32-3.47-.98-.9.66-2.03.98-3.47.98-.84,0-1.75-.12-2.71-.34.23.96.34,1.87.34,2.71,0,1.43-.32,2.57-.98,3.47.66.9.98,2.03.98,3.47,0,.84-.12,1.75-.34,2.71.96-.23,1.88-.34,2.71-.34,1.43,0,2.57.32,3.47.98.9-.66,2.03-.98,3.47-.98.84,0,1.75.12,2.71.34-.23-.96-.34-1.87-.34-2.71,0-1.43.32-2.57.98-3.47-.66-.9-.98-2.03-.98-3.47,0-.84.12-1.75.34-2.71ZM41.19,101.63c.95-2.81,3.08-6.4,6.13-7.83-3.06-1.43-5.19-5.02-6.13-7.83-1.12-.32-2.17-.48-3.11-.48-1.07,0-1.91.2-2.57.62,1.45,1.91,1.45,4.98,1.45,7.69s0,5.78-1.45,7.69c.65.41,1.5.62,2.57.62.94,0,1.99-.16,3.11-.48ZM59.23,115.38c.96-.23,1.87-.34,2.71-.34,1.43,0,2.57.32,3.47.98.9-.66,2.03-.98,3.47-.98.84,0,1.75.12,2.71.34-.23-.96-.34-1.88-.34-2.71,0-1.44.32-2.57.98-3.47-.66-.9-.98-2.03-.98-3.47,0-.84.12-1.75.34-2.71-.96.23-1.87.34-2.71.34-1.43,0-2.57-.32-3.47-.98-.9.66-2.03.98-3.47.98-.84,0-1.75-.12-2.71-.34.23.96.34,1.87.34,2.71,0,1.44-.32,2.57-.98,3.47.66.9.98,2.03.98,3.47,0,.84-.12,1.75-.34,2.71ZM73.5,117.28c.41,1.02.93,2,1.51,2.84.88,1.29,2.69,3.44,5.13,3.79-.35-2.44-2.5-4.25-3.79-5.12-.85-.58-1.82-1.1-2.84-1.51ZM90.03,115.38c.96-.23,1.87-.34,2.71-.34,1.43,0,2.57.32,3.47.98.9-.66,2.03-.98,3.47-.98.84,0,1.75.12,2.71.34-.23-.96-.34-1.88-.34-2.71,0-1.44.32-2.57.98-3.47-.66-.9-.98-2.03-.98-3.47,0-.84.12-1.75.34-2.71-.96.23-1.87.34-2.71.34-1.43,0-2.57-.32-3.47-.98-.9.66-2.03.98-3.47.98-.84,0-1.75-.12-2.71-.34.23.96.34,1.88.34,2.71,0,1.43-.32,2.57-.98,3.47.66.9.98,2.03.98,3.47,0,.84-.12,1.75-.34,2.71ZM120.43,55.17c-.95,2.81-3.08,6.4-6.13,7.83,3.06,1.43,5.19,5.02,6.13,7.83,1.12.32,2.17.48,3.11.48,1.07,0,1.91-.2,2.57-.62-1.45-1.91-1.45-4.98-1.45-7.69s0-5.78,1.45-7.69c-.65-.41-1.5-.62-2.57-.62-.95,0-1.99.16-3.11.48ZM127.01,69.83c1.01-1.46,1.1-3.97,1.1-6.83s-.09-5.37-1.1-6.83c-1.01,1.46-1.1,3.97-1.1,6.83s.09,5.37,1.1,6.83ZM25.01,89.33c.58-.85,1.1-1.82,1.51-2.84-1.02.41-2,.93-2.84,1.51-1.29.88-3.44,2.69-3.79,5.12,2.44-.35,4.25-2.5,5.12-3.79ZM19.89,94.47c.35,2.44,2.5,4.25,3.79,5.12.85.58,1.82,1.1,2.84,1.51-.41-1.02-.93-2-1.51-2.84-.88-1.29-2.69-3.44-5.12-3.79ZM21.9,93.8c3.06,1.43,5.19,5.02,6.13,7.83,1.12.32,2.17.48,3.11.48,1.07,0,1.91-.2,2.57-.62-1.45-1.91-1.45-4.98-1.45-7.69s0-5.78,1.45-7.69c-.65-.41-1.5-.62-2.57-.62-.94,0-1.99.16-3.11.48-.95,2.81-3.08,6.4-6.13,7.83ZM119.92,51.06c0-1.07-.2-1.91-.62-2.57-1.91,1.45-4.98,1.45-7.69,1.45s-5.78,0-7.69-1.45c-.42.65-.62,1.5-.62,2.57,0,.94.16,1.99.48,3.11,2.81.95,6.4,3.08,7.83,6.13,1.43-3.06,5.02-5.19,7.83-6.13.32-1.12.48-2.16.48-3.11ZM12.37,47.6c1.46,1.01,3.97,1.1,6.83,1.1s5.37-.09,6.83-1.1c-1.47-1.01-3.97-1.1-6.83-1.1s-5.37.09-6.83,1.1ZM13.4,67.46c-.58.85-1.1,1.82-1.51,2.84,1.02-.41,2-.93,2.84-1.51,1.29-.88,3.44-2.69,3.79-5.12-2.44.35-4.25,2.5-5.13,3.79ZM11.9,55.68c.41,1.02.93,2,1.51,2.84.88,1.29,2.69,3.44,5.13,3.79-.35-2.44-2.5-4.25-3.79-5.13-.85-.58-1.82-1.09-2.84-1.51ZM12.37,78.4c1.46,1.01,3.97,1.1,6.83,1.1s5.37-.09,6.83-1.1c-1.47-1.01-3.97-1.1-6.83-1.1s-5.37.09-6.83,1.1ZM41.7,105.73c0,1.07.2,1.91.62,2.57,1.91-1.45,4.98-1.45,7.69-1.45s5.78,0,7.69,1.45c.42-.65.62-1.5.62-2.57,0-.95-.16-1.99-.48-3.11-2.81-.95-6.4-3.08-7.83-6.13-1.43,3.06-5.02,5.19-7.83,6.13-.32,1.12-.48,2.17-.48,3.11ZM50.69,123.92c2.44-.35,4.25-2.5,5.13-3.79.58-.85,1.1-1.82,1.51-2.84-1.02.41-2,.93-2.84,1.51-1.29.88-3.44,2.69-3.79,5.12ZM118.44,109.2c-1.46-1.01-3.97-1.1-6.83-1.1s-5.37.09-6.83,1.1c1.46,1.01,3.97,1.1,6.83,1.1s5.37-.09,6.83-1.1ZM133.59,70.83c.95-2.81,3.08-6.4,6.13-7.83-3.06-1.43-5.19-5.02-6.13-7.83-1.12-.32-2.17-.48-3.11-.48-1.07,0-1.91.2-2.57.62,1.45,1.91,1.45,4.98,1.45,7.69s0,5.78-1.45,7.69c.65.41,1.5.62,2.57.62.94,0,1.99-.16,3.11-.48ZM110.93,32.87c-2.44.35-4.25,2.5-5.13,3.79-.58.85-1.1,1.82-1.51,2.84,1.02-.41,2-.93,2.84-1.51,1.29-.88,3.44-2.69,3.79-5.13ZM108.92,32.2c-3.06-1.43-5.19-5.02-6.13-7.83-1.12-.32-2.17-.48-3.11-.48-1.07,0-1.91.2-2.57.62,1.45,1.91,1.45,4.98,1.45,7.69s0,5.78-1.45,7.69c.65.42,1.5.62,2.57.62.94,0,1.99-.16,3.11-.48.95-2.81,3.08-6.4,6.13-7.83ZM25.01,36.66h0c-.88-1.29-2.69-3.44-5.12-3.79.35,2.44,2.5,4.25,3.79,5.13.85.58,1.82,1.1,2.84,1.51-.41-1.02-.93-2-1.51-2.84ZM133.19,41.41c-.96.23-1.88.34-2.71.34-1.43,0-2.57-.32-3.47-.98-.9.66-2.03.98-3.47.98-.84,0-1.75-.12-2.71-.34.23.96.34,1.87.34,2.71,0,1.43-.32,2.57-.98,3.47.66.9.98,2.03.98,3.47,0,.84-.12,1.75-.34,2.71.96-.23,1.88-.34,2.71-.34,1.43,0,2.57.32,3.47.98.9-.66,2.03-.98,3.47-.98.84,0,1.75.12,2.71.34-.23-.96-.34-1.87-.34-2.71,0-1.43.32-2.57.98-3.47-.66-.9-.98-2.03-.98-3.47,0-.84.12-1.75.34-2.71ZM119.92,44.13c0-.95-.16-1.99-.48-3.11-2.81-.95-6.4-3.08-7.83-6.13-1.43,3.06-5.02,5.19-7.83,6.13-.32,1.12-.48,2.17-.48,3.11,0,1.07.2,1.91.62,2.57,1.91-1.45,4.98-1.45,7.69-1.45s5.78,0,7.69,1.45c.42-.65.62-1.5.62-2.57ZM110.93,31.52c-.35-2.44-2.5-4.25-3.79-5.13-.85-.58-1.82-1.1-2.84-1.51.41,1.02.93,2,1.51,2.84.88,1.29,2.69,3.44,5.13,3.79ZM102.39,10.61c-.96.23-1.88.34-2.71.34-1.43,0-2.57-.32-3.47-.98-.9.66-2.03.98-3.47.98-.84,0-1.75-.12-2.71-.34.23.96.34,1.87.34,2.71,0,1.43-.32,2.57-.98,3.47.66.9.98,2.03.98,3.47,0,.84-.12,1.75-.34,2.71.96-.23,1.88-.34,2.71-.34,1.43,0,2.57.32,3.47.98.9-.66,2.03-.98,3.47-.98.84,0,1.75.12,2.71.34-.23-.96-.34-1.87-.34-2.71,0-1.43.32-2.57.98-3.47-.66-.9-.98-2.03-.98-3.47,0-.84.12-1.75.34-2.71ZM71.59,10.61c-.96.23-1.88.34-2.71.34-1.43,0-2.57-.32-3.47-.98-.9.66-2.03.98-3.47.98-.84,0-1.75-.12-2.71-.34.23.96.34,1.87.34,2.71,0,1.44-.32,2.57-.98,3.47.66.9.98,2.03.98,3.47,0,.84-.12,1.75-.34,2.71.96-.23,1.88-.34,2.71-.34,1.43,0,2.57.32,3.47.98.9-.66,2.03-.98,3.47-.98.84,0,1.75.12,2.71.34-.23-.96-.34-1.87-.34-2.71,0-1.43.32-2.57.98-3.47-.66-.9-.98-2.03-.98-3.47,0-.84.12-1.75.34-2.71ZM41.7,20.26c0,.95.16,1.99.48,3.11,2.81.95,6.4,3.08,7.83,6.13,1.43-3.06,5.02-5.19,7.83-6.13.32-1.12.48-2.17.48-3.11,0-1.07-.2-1.91-.62-2.57-1.91,1.45-4.98,1.45-7.69,1.45s-5.78,0-7.69-1.45c-.42.65-.62,1.5-.62,2.57ZM41.19,24.37c-1.12-.32-2.17-.48-3.11-.48-1.07,0-1.91.2-2.57.62,1.45,1.91,1.45,4.98,1.45,7.69s0,5.78-1.45,7.69c.65.42,1.5.62,2.57.62.94,0,1.99-.16,3.11-.48.95-2.81,3.08-6.4,6.13-7.83-3.06-1.43-5.19-5.02-6.13-7.83ZM35.71,32.2c0-2.87-.09-5.37-1.1-6.83-1.02,1.46-1.1,3.97-1.1,6.83s.09,5.37,1.1,6.83c1.01-1.46,1.1-3.97,1.1-6.83ZM33.71,24.5c-.65-.42-1.5-.62-2.57-.62-.94,0-1.99.16-3.11.48-.95,2.81-3.08,6.4-6.13,7.83,3.06,1.43,5.19,5.02,6.13,7.83,1.12.32,2.17.48,3.11.48,1.07,0,1.91-.2,2.57-.62-1.45-1.91-1.45-4.98-1.45-7.69s0-5.78,1.45-7.69ZM27.04,41.02c-2.81-.95-6.4-3.08-7.83-6.13-1.43,3.06-5.02,5.19-7.83,6.13-.32,1.12-.48,2.17-.48,3.11,0,1.07.2,1.91.62,2.57,1.91-1.45,4.98-1.45,7.69-1.45s5.78,0,7.69,1.45c.42-.65.62-1.5.62-2.57,0-.95-.16-1.99-.48-3.11ZM10.9,51.06c0,.94.16,1.99.48,3.11,2.81.95,6.4,3.08,7.83,6.13,1.43-3.06,5.02-5.19,7.83-6.13.32-1.12.48-2.16.48-3.11,0-1.07-.2-1.91-.62-2.57-1.91,1.45-4.98,1.45-7.69,1.45s-5.78,0-7.69-1.45c-.42.65-.62,1.5-.62,2.57ZM10.9,74.93c0,1.07.2,1.91.62,2.57,1.91-1.45,4.98-1.45,7.69-1.45s5.78,0,7.69,1.45c.42-.65.62-1.5.62-2.57,0-.95-.16-1.99-.48-3.11-2.81-.95-6.4-3.08-7.83-6.13-1.43,3.06-5.02,5.19-7.83,6.13-.32,1.12-.48,2.17-.48,3.11ZM10.9,81.86c0,.95.16,1.99.48,3.11,2.81.95,6.4,3.08,7.83,6.13,1.43-3.06,5.02-5.19,7.83-6.13.32-1.12.48-2.16.48-3.11,0-1.07-.2-1.91-.62-2.57-1.91,1.45-4.98,1.45-7.69,1.45s-5.78,0-7.69-1.45c-.42.65-.62,1.5-.62,2.57ZM11.9,86.48c.41,1.02.93,2,1.51,2.84h0c.88,1.29,2.69,3.44,5.13,3.79-.35-2.44-2.5-4.25-3.79-5.12-.85-.58-1.82-1.1-2.84-1.51ZM13.4,98.26c-.58.85-1.1,1.82-1.51,2.84,1.02-.41,2-.93,2.84-1.51,1.29-.88,3.44-2.69,3.79-5.12-2.44.35-4.25,2.5-5.13,3.79ZM28.43,115.38c.96-.23,1.87-.34,2.71-.34,1.43,0,2.57.32,3.47.98.9-.66,2.03-.98,3.47-.98.84,0,1.75.12,2.71.34-.23-.96-.34-1.88-.34-2.71,0-1.44.32-2.57.98-3.47-.66-.9-.98-2.03-.98-3.47,0-.84.12-1.75.34-2.71-.96.23-1.87.34-2.71.34-1.43,0-2.57-.32-3.47-.98-.9.66-2.03.98-3.47.98-.84,0-1.75-.12-2.71-.34.23.96.34,1.88.34,2.71,0,1.43-.32,2.57-.98,3.47.66.9.98,2.03.98,3.47,0,.84-.12,1.75-.34,2.71ZM41.7,112.66c0,.95.16,1.99.48,3.11,2.81.95,6.4,3.08,7.83,6.13,1.43-3.06,5.02-5.19,7.83-6.13.32-1.12.48-2.17.48-3.11,0-1.07-.2-1.91-.62-2.57-1.91,1.45-4.98,1.45-7.69,1.45s-5.78,0-7.69-1.45c-.42.65-.62,1.5-.62,2.57ZM50.69,125.27c.35,2.44,2.5,4.25,3.79,5.12.85.58,1.82,1.1,2.84,1.51-.41-1.02-.93-2-1.51-2.84-.88-1.29-2.69-3.44-5.13-3.79ZM58.83,132.43c1.12.32,2.17.48,3.11.48,1.07,0,1.91-.2,2.57-.62-1.45-1.91-1.45-4.98-1.45-7.69s0-5.78,1.45-7.69c-.65-.41-1.5-.62-2.57-.62-.94,0-1.99.16-3.11.48-.95,2.81-3.08,6.4-6.13,7.83,3.06,1.43,5.19,5.02,6.13,7.83ZM65.41,117.76c-1.02,1.46-1.1,3.97-1.1,6.83s.09,5.37,1.1,6.83c1.01-1.46,1.1-3.97,1.1-6.83s-.09-5.37-1.1-6.83ZM66.31,132.29c.65.41,1.5.62,2.57.62.95,0,1.99-.16,3.11-.48.95-2.81,3.08-6.4,6.13-7.83-3.06-1.43-5.19-5.02-6.13-7.83-1.12-.32-2.17-.48-3.11-.48-1.07,0-1.91.2-2.57.62,1.45,1.91,1.45,4.98,1.45,7.69s0,5.78-1.45,7.69ZM72.5,136.53c0,1.07.2,1.91.62,2.57,1.91-1.45,4.98-1.45,7.69-1.45s5.78,0,7.69,1.45c.42-.65.62-1.5.62-2.57,0-.94-.16-1.99-.48-3.11-2.81-.95-6.4-3.08-7.83-6.13-1.43,3.06-5.02,5.19-7.83,6.13-.32,1.12-.48,2.17-.48,3.11ZM89.63,132.43c1.12.32,2.17.48,3.11.48,1.07,0,1.91-.2,2.57-.62-1.45-1.91-1.45-4.98-1.45-7.69s0-5.78,1.45-7.69c-.65-.41-1.5-.62-2.57-.62-.94,0-1.99.16-3.11.48-.95,2.81-3.08,6.4-6.13,7.83,3.06,1.43,5.19,5.02,6.13,7.83ZM95.11,124.6c0,2.87.09,5.37,1.1,6.83,1.01-1.46,1.1-3.97,1.1-6.83s-.09-5.37-1.1-6.83c-1.01,1.46-1.1,3.97-1.1,6.83ZM105.8,120.13c.88,1.29,2.69,3.44,5.13,3.79-.35-2.44-2.5-4.25-3.79-5.12-.85-.58-1.82-1.1-2.84-1.51.41,1.02.93,2,1.51,2.84ZM103.78,115.78c2.81.95,6.4,3.08,7.83,6.13,1.43-3.06,5.02-5.19,7.83-6.13.32-1.12.48-2.17.48-3.11,0-1.07-.2-1.91-.62-2.57-1.91,1.45-4.98,1.45-7.69,1.45s-5.78,0-7.69-1.45c-.42.65-.62,1.5-.62,2.57,0,.95.16,1.99.48,3.11ZM119.92,105.73c0-.95-.16-1.99-.48-3.11-2.81-.95-6.4-3.08-7.83-6.13-1.43,3.06-5.02,5.19-7.83,6.13-.32,1.12-.48,2.17-.48,3.11,0,1.07.2,1.91.62,2.57,1.91-1.45,4.98-1.45,7.69-1.45s5.78,0,7.69,1.45c.42-.65.62-1.5.62-2.57ZM120.43,101.63c1.12.32,2.17.48,3.11.48,1.07,0,1.91-.2,2.57-.62-1.45-1.91-1.45-4.98-1.45-7.69s0-5.78,1.45-7.69c-.65-.41-1.5-.62-2.57-.62-.94,0-1.99.16-3.11.48-.95,2.81-3.08,6.4-6.13,7.83,3.06,1.43,5.19,5.02,6.13,7.83ZM123.54,84.23c1.43,0,2.57.32,3.47.98.9-.66,2.03-.98,3.47-.98.84,0,1.75.12,2.71.34-.23-.96-.34-1.87-.34-2.71,0-1.43.32-2.57.98-3.47-.66-.9-.98-2.03-.98-3.47,0-.84.12-1.75.34-2.71-.96.23-1.87.34-2.71.34-1.43,0-2.57-.32-3.47-.98-.9.66-2.03.98-3.47.98-.84,0-1.75-.12-2.71-.34.23.96.34,1.87.34,2.71,0,1.43-.32,2.57-.98,3.47.66.9.98,2.03.98,3.47,0,.84-.12,1.75-.34,2.71.96-.23,1.88-.34,2.71-.34ZM117.41,36.66h0c-.88-1.29-2.69-3.44-5.12-3.79.35,2.44,2.5,4.25,3.79,5.13.85.58,1.82,1.1,2.84,1.51-.41-1.02-.93-2-1.51-2.84ZM117.41,27.73c.58-.85,1.1-1.82,1.51-2.84-1.02.41-2,.93-2.84,1.51-1.29.88-3.44,2.69-3.79,5.13,2.44-.35,4.25-2.5,5.12-3.79ZM88.12,8.71c-.41-1.02-.93-2-1.51-2.84-.88-1.29-2.69-3.44-5.13-3.79.35,2.44,2.5,4.25,3.79,5.13.85.58,1.82,1.1,2.84,1.51ZM75,5.86h0c-.58.85-1.1,1.82-1.51,2.84,1.02-.41,2-.93,2.84-1.51,1.29-.88,3.44-2.69,3.79-5.13-2.44.35-4.25,2.5-5.13,3.79ZM57.84,10.22c-2.81-.95-6.4-3.08-7.83-6.13-1.43,3.06-5.02,5.19-7.83,6.13-.32,1.12-.48,2.17-.48,3.11,0,1.07.2,1.91.62,2.57,1.91-1.45,4.98-1.45,7.69-1.45s5.78,0,7.69,1.45c.42-.65.62-1.5.62-2.57,0-.95-.16-1.99-.48-3.11ZM10.9,105.73c0,1.07.2,1.91.62,2.57,1.91-1.45,4.98-1.45,7.69-1.45s5.78,0,7.69,1.45c.42-.65.62-1.5.62-2.57,0-.95-.16-1.99-.48-3.11-2.81-.95-6.4-3.08-7.83-6.13-1.43,3.06-5.02,5.19-7.83,6.13-.32,1.12-.48,2.17-.48,3.11ZM34.61,117.76c-1.02,1.46-1.1,3.97-1.1,6.83s.09,5.37,1.1,6.83c1.01-1.46,1.1-3.97,1.1-6.83s-.09-5.37-1.1-6.83ZM44.21,120.13h0c.88,1.29,2.69,3.44,5.13,3.79-.35-2.44-2.5-4.25-3.79-5.12-.85-.58-1.82-1.1-2.84-1.51.41,1.02.93,2,1.51,2.84ZM112.29,123.92c2.44-.35,4.25-2.5,5.12-3.79h0c.58-.85,1.1-1.82,1.51-2.84-1.02.41-2,.93-2.84,1.51-1.29.88-3.44,2.69-3.79,5.12ZM141.7,63.74v-.05c-2.43.36-4.22,2.5-5.09,3.77-.58.85-1.1,1.82-1.51,2.84,1.02-.41,2-.93,2.84-1.51,1.24-.84,3.37-2.62,3.76-5.06ZM141.35,61.03c-.78-1.84-2.47-3.2-3.41-3.84-.85-.58-1.82-1.09-2.84-1.51.41,1.02.93,2,1.51,2.84.87,1.28,2.71,3.47,5.22,3.78h.08s-.55-1.28-.55-1.28Z"/>
  </g>
</svg>