<?xml version="1.0" encoding="UTF-8"?>
<svg id="Layer_2" data-name="Layer 2" xmlns="http://www.w3.org/2000/svg" viewBox="0 0 100.93 102.68">
  <defs>
    <style>
      .cls-1 {
        fill: #aa3030;
      }

      .cls-2 {
        fill: #f4d271;
      }
    </style>
  </defs>
  <g id="PATTERN">
    <g>
      <path class="cls-1" d="M100.33,29.97c-2.68-10.75-13.56-17.28-24.31-14.6-4.71,1.18-8.61,3.93-11.29,7.56.36-2.5.26-5.12-.39-7.72C61.66,4.46,50.78-2.08,40.04.6c-10.75,2.68-17.28,13.56-14.6,24.31.65,2.61,1.79,4.96,3.28,7-4.06-1.95-8.8-2.55-13.51-1.37C4.46,33.22-2.08,44.11.6,54.85s13.56,17.28,24.31,14.6c.16-.04.31-.09.47-.13-4.23,4.78-6.11,11.49-4.45,18.15,2.68,10.75,13.56,17.28,24.31,14.6,9.21-2.3,15.32-10.62,15.19-19.71,4.16,8.09,13.47,12.56,22.67,10.27,10.75-2.68,17.28-13.56,14.6-24.31-1.66-6.66-6.48-11.7-12.46-13.93.16-.04.32-.07.47-.11,10.75-2.68,17.28-13.56,14.6-24.31Z"/>
      <path class="cls-2" d="M71.4,49.96c-.72.05-1.27.63-1.32,1.33l-15.71,1.1,14.32-6.38c.37.59,1.13.84,1.79.55.72-.32,1.05-1.17.73-1.89-.32-.72-1.17-1.05-1.89-.73-.66.29-.98,1.02-.79,1.7l-14.38,6.41,11.27-10.89c.55.43,1.35.41,1.87-.1.57-.55.59-1.46.04-2.03-.55-.57-1.46-.59-2.03-.04-.52.5-.57,1.3-.16,1.87l-11.32,10.94,6.87-14.09c.67.22,1.41-.08,1.73-.73.35-.71.05-1.57-.66-1.92-.71-.35-1.57-.05-1.92.66-.32.65-.09,1.42.49,1.81l-6.9,14.15,1.64-15.59c.7-.03,1.3-.56,1.37-1.28.08-.79-.49-1.49-1.28-1.58-.79-.08-1.49.49-1.58,1.28-.08.72.4,1.36,1.08,1.54l-1.64,15.66-3.79-15.21c.65-.26,1.03-.97.85-1.67-.19-.77-.97-1.24-1.74-1.04-.77.19-1.24.97-1.04,1.74.17.7.84,1.15,1.54,1.07l3.81,15.28-8.77-12.99c.52-.47.63-1.26.23-1.86-.44-.66-1.34-.83-1.99-.39-.66.44-.83,1.34-.39,1.99.4.6,1.18.79,1.81.48l8.81,13.05-12.68-9.21c.33-.62.16-1.4-.42-1.83-.64-.47-1.54-.32-2,.32-.47.64-.32,1.54.32,2,.58.42,1.38.34,1.87-.17l12.74,9.25-15.07-4.32c.1-.7-.33-1.37-1.02-1.57-.76-.22-1.56.22-1.77.98-.22.76.22,1.56.98,1.77.69.2,1.41-.15,1.7-.79l15.13,4.34-15.63,1.1c-.15-.69-.78-1.18-1.5-1.13-.79.06-1.39.74-1.33,1.53.06.79.74,1.39,1.53,1.33.72-.05,1.27-.63,1.32-1.33l15.71-1.1-14.32,6.38c-.37-.59-1.13-.84-1.79-.55-.72.32-1.05,1.17-.73,1.89.32.72,1.17,1.05,1.89.73.66-.29.98-1.02.79-1.7l14.38-6.41-11.27,10.89c-.55-.43-1.35-.41-1.87.1-.57.55-.59,1.46-.04,2.03.55.57,1.46.59,2.03.04.52-.5.57-1.3.16-1.87l11.32-10.94-6.87,14.09c-.67-.22-1.41.08-1.73.73-.35.71-.05,1.57.66,1.92.71.35,1.57.05,1.92-.66.32-.65.09-1.42-.49-1.81l6.9-14.15-1.64,15.59c-.7.03-1.3.56-1.37,1.28-.08.79.49,1.49,1.28,1.58.79.08,1.49-.49,1.58-1.28.08-.72-.4-1.36-1.08-1.54l1.64-15.66,3.79,15.21c-.65.26-1.03.97-.85,1.67.19.77.97,1.24,1.74,1.04s1.24-.97,1.04-1.74c-.17-.7-.84-1.15-1.54-1.07l-3.81-15.28,8.77,12.99c-.52.47-.63,1.26-.23,1.86.44.66,1.33.83,1.99.39.66-.44.83-1.34.39-1.99-.4-.6-1.18-.79-1.81-.48l-8.81-13.05,12.68,9.21c-.33.62-.16,1.4.42,1.83.64.47,1.54.32,2-.32.47-.64.32-1.54-.32-2-.58-.42-1.38-.34-1.87.17l-12.74-9.25,15.07,4.32c-.1.7.33,1.37,1.02,1.57.76.22,1.56-.22,1.77-.98.22-.76-.22-1.56-.98-1.77-.69-.2-1.41.15-1.7.79l-15.13-4.34,15.63-1.1c.15.69.78,1.18,1.5,1.13.79-.06,1.39-.74,1.33-1.53-.06-.79-.74-1.39-1.53-1.33Z"/>
    </g>
  </g>
</svg>