<?xml version="1.0" encoding="UTF-8"?>
<svg id="Layer_2" data-name="Layer 2" xmlns="http://www.w3.org/2000/svg" viewBox="0 0 62.31 63.39">
  <defs>
    <style>
      .cls-1 {
        fill: #f9f3e4;
      }

      .cls-2 {
        fill: #f4d271;
      }
    </style>
  </defs>
  <g id="PATTERN">
    <g>
      <path class="cls-1" d="M61.94,18.5c-1.66-6.63-8.37-10.67-15.01-9.01-2.91.73-5.32,2.43-6.97,4.67.22-1.55.16-3.16-.24-4.77C38.07,2.75,31.35-1.28,24.72.37c-6.63,1.66-10.67,8.37-9.01,15.01.4,1.61,1.1,3.06,2.03,4.32-2.51-1.2-5.43-1.57-8.34-.85C2.75,20.51-1.28,27.23.37,33.86s8.37,10.67,15.01,9.01c.1-.02.19-.05.29-.08-2.61,2.95-3.77,7.09-2.75,11.21,1.66,6.63,8.37,10.67,15.01,9.01,5.68-1.42,9.46-6.56,9.38-12.17,2.57,4.99,8.31,7.76,14,6.34,6.63-1.66,10.67-8.37,9.01-15.01-1.03-4.11-4-7.22-7.69-8.6.1-.02.2-.04.29-.07,6.63-1.66,10.67-8.37,9.01-15.01Z"/>
      <path class="cls-2" d="M44.08,30.84c-.45.03-.79.39-.82.82l-9.7.68,8.84-3.94c.23.37.7.52,1.11.34.45-.2.65-.72.45-1.17s-.72-.65-1.17-.45c-.41.18-.61.63-.49,1.05l-8.88,3.95,6.96-6.72c.34.27.84.25,1.16-.06.35-.34.36-.9.02-1.25-.34-.35-.9-.36-1.25-.02-.32.31-.35.8-.1,1.15l-6.99,6.75,4.24-8.7c.41.13.87-.05,1.07-.45.21-.44.03-.97-.41-1.18-.44-.21-.97-.03-1.18.41-.2.4-.06.87.3,1.12l-4.26,8.74,1.01-9.62c.43-.02.8-.35.85-.79.05-.49-.3-.92-.79-.97-.49-.05-.92.3-.97.79-.05.44.24.84.67.95l-1.01,9.67-2.34-9.39c.4-.16.63-.6.53-1.03-.12-.47-.6-.76-1.07-.64-.47.12-.76.6-.65,1.07.11.43.52.71.95.66l2.35,9.43-5.41-8.02c.32-.29.39-.78.14-1.15-.27-.41-.82-.51-1.23-.24-.41.27-.51.82-.24,1.23.25.37.73.49,1.12.3l5.44,8.06-7.83-5.69c.2-.38.1-.87-.26-1.13-.4-.29-.95-.2-1.24.2-.29.4-.2.95.2,1.24.36.26.85.21,1.15-.1l7.86,5.71-9.3-2.67c.06-.43-.2-.85-.63-.97-.47-.13-.96.14-1.1.61-.13.47.14.96.61,1.1.43.12.87-.09,1.05-.49l9.34,2.68-9.65.68c-.09-.42-.48-.73-.92-.7-.49.03-.86.46-.82.95.03.49.46.86.95.82.45-.03.79-.39.82-.82l9.7-.68-8.84,3.94c-.23-.37-.7-.52-1.11-.34-.45.2-.65.72-.45,1.17.2.45.72.65,1.17.45.41-.18.61-.63.49-1.05l8.88-3.95-6.96,6.72c-.34-.27-.84-.25-1.16.06-.35.34-.36.9-.02,1.25.34.35.9.36,1.25.02.32-.31.35-.8.1-1.15l6.99-6.75-4.24,8.7c-.41-.13-.87.05-1.07.45-.21.44-.03.97.41,1.18.44.21.97.03,1.18-.41.2-.4.06-.87-.3-1.12l4.26-8.74-1.01,9.62c-.43.02-.8.35-.85.79-.05.49.3.92.79.97.49.05.92-.3.97-.79.05-.44-.24-.84-.67-.95l1.01-9.67,2.34,9.39c-.4.16-.63.6-.53,1.03.12.47.6.76,1.07.65s.76-.6.64-1.07c-.11-.43-.52-.71-.95-.66l-2.35-9.43,5.41,8.02c-.32.29-.39.78-.14,1.15.27.41.82.51,1.23.24.41-.27.51-.82.24-1.23-.25-.37-.73-.49-1.12-.3l-5.44-8.06,7.83,5.69c-.2.38-.1.87.26,1.13.4.29.95.2,1.24-.2.29-.4.2-.95-.2-1.24-.36-.26-.85-.21-1.15.1l-7.86-5.71,9.3,2.67c-.06.43.2.85.63.97.47.13.96-.14,1.1-.61.13-.47-.14-.96-.61-1.1-.43-.12-.87.09-1.05.49l-9.34-2.68,9.65-.68c.09.42.48.73.92.7.49-.03.86-.46.82-.95-.03-.49-.46-.86-.95-.82Z"/>
    </g>
  </g>
</svg>