<?xml version="1.0" encoding="UTF-8"?>
<svg id="Layer_2" data-name="Layer 2" xmlns="http://www.w3.org/2000/svg" viewBox="0 0 138.13 52.96">
  <defs>
    <style>
      .cls-1 {
        fill: #f9f3e4;
      }
    </style>
  </defs>
  <g id="PATTERN">
    <path class="cls-1" d="M138.13,26.48c0,1.47-.59,2.79-1.55,3.75s-2.28,1.55-3.74,1.55h-31.96c-1.46,0-2.79.59-3.75,1.55s-1.55,2.28-1.55,3.74c0,2.93,2.37,5.3,5.3,5.3h11.96c2.92,0,5.29,2.37,5.29,5.29,0,1.47-.59,2.79-1.55,3.75s-2.28,1.55-3.74,1.55H5.29c-2.92,0-5.29-2.37-5.29-5.3,0-1.46.59-2.78,1.55-3.74s2.28-1.55,3.74-1.55h44.03c1.46,0,2.78-.59,3.74-1.55.96-.96,1.56-2.29,1.56-3.75,0-2.92-2.38-5.29-5.3-5.29h-24.03c-2.92,0-5.29-2.37-5.29-5.3,0-1.46.59-2.78,1.55-3.74.96-.96,2.28-1.55,3.74-1.55h37.43c1.46,0,2.78-.59,3.74-1.55s1.55-2.29,1.55-3.75c0-2.92-2.37-5.29-5.29-5.29H25.29c-2.92,0-5.29-2.38-5.29-5.3,0-1.47.59-2.79,1.55-3.75.96-.96,2.28-1.55,3.74-1.55h77.55c2.92,0,5.29,2.37,5.29,5.3,0,1.46-.59,2.79-1.55,3.75-.96.96-2.28,1.55-3.74,1.55h-8.53c-1.46,0-2.78.59-3.74,1.55-.96.96-1.55,2.28-1.55,3.74,0,2.93,2.37,5.3,5.29,5.3h38.53c2.92,0,5.29,2.37,5.29,5.29Z"/>
  </g>
</svg>