<?xml version="1.0" encoding="UTF-8"?>
<svg id="Layer_2" data-name="Layer 2" xmlns="http://www.w3.org/2000/svg" xmlns:xlink="http://www.w3.org/1999/xlink" viewBox="0 0 1200 1200">
  <defs>
    <style>
      .cls-1 {
        fill: #fff;
      }

      .cls-2 {
        fill: #ffd7e2;
        opacity: .6;
      }

      .cls-3 {
        fill: url(#New_Pattern);
      }

      .cls-4 {
        fill: none;
      }
    </style>
    <pattern id="New_Pattern" data-name="New Pattern" x="0" y="0" width="1200" height="1200" patternUnits="userSpaceOnUse" viewBox="0 0 1200 1200">
      <g>
        <rect class="cls-4" width="1200" height="1200"/>
        <g>
          <rect class="cls-1" width="1200" height="1200"/>
          <path class="cls-2" d="M100.31,125.26c-1.37,3.06-3.1,5.86-5.3,8.39-2.05,2.36-4.24,4.77-6.52,6.91-4.76,4.45-10.58,8.23-15.29,12.23-1.1.94-2.32,1.8-3.71,2.15-.77.72-1.82,1.08-2.97.64-4.43-1.7-7.66-4.92-10.91-8.25-2.99-3.07-6.19-5.92-9.04-9.12-4.72-5.29-7.99-11.29-8.79-18.4-.77-6.81.62-13.92,5.41-19.06,2.21-2.37,5.44-4.39,8.64-5.04,3.66-.74,7.25.24,10.45,2.05,3.18,1.8,6.22,4.61,7.81,7.94.26.54.46,1.09.63,1.64,2.8-2.83,6.22-4.99,10.28-6.17,7.07-2.05,16.14.12,20.14,6.62,3.42,5.55,1.64,11.95-.83,17.46Z"/>
          <path class="cls-2" d="M193.03,282.75c-1.37,3.06-3.1,5.86-5.3,8.39-2.05,2.36-4.24,4.77-6.52,6.91-4.76,4.45-10.58,8.23-15.29,12.23-1.1.94-2.32,1.8-3.71,2.15-.77.72-1.82,1.08-2.97.64-4.43-1.7-7.66-4.92-10.91-8.25-2.99-3.07-6.19-5.92-9.04-9.12-4.72-5.29-7.99-11.29-8.79-18.4-.77-6.81.62-13.92,5.41-19.06,2.21-2.37,5.44-4.39,8.64-5.04,3.66-.74,7.25.24,10.45,2.05,3.18,1.8,6.22,4.61,7.81,7.94.26.54.46,1.09.63,1.64,2.8-2.83,6.22-4.99,10.27-6.17,7.07-2.05,16.14.12,20.14,6.62,3.42,5.55,1.64,11.95-.83,17.46Z"/>
          <path class="cls-2" d="M314.75,143.51c2.63-2.09,5.45-3.77,8.58-5,2.91-1.14,5.96-2.28,8.97-3.12,6.28-1.75,13.18-2.42,19.21-3.8,1.41-.32,2.89-.53,4.29-.2,1.02-.29,2.12-.11,2.93.81,3.14,3.55,4.52,7.9,5.87,12.36,1.24,4.1,2.76,8.11,3.82,12.26,1.75,6.87,1.88,13.7-.69,20.38-2.46,6.4-6.97,12.06-13.59,14.42-3.05,1.08-6.86,1.38-9.99.48-3.59-1.03-6.32-3.56-8.33-6.64-1.99-3.07-3.4-6.96-3.27-10.65.02-.6.09-1.18.2-1.75-3.79,1.22-7.82,1.56-11.96.73-7.22-1.44-14.26-7.55-14.82-15.16-.47-6.5,4.06-11.36,8.79-15.11Z"/>
          <path class="cls-2" d="M85.78,465.33c.07,3.35-.3,6.62-1.22,9.85-.85,3.01-1.8,6.12-2.95,9.03-2.41,6.06-6.06,11.96-8.62,17.58-.6,1.32-1.33,2.62-2.44,3.53-.39.98-1.19,1.75-2.42,1.84-4.73.35-9.03-1.19-13.39-2.82-4.01-1.5-8.12-2.71-12.07-4.39-6.52-2.77-12.04-6.81-15.8-12.9-3.6-5.83-5.37-12.85-3.23-19.55.99-3.09,3.05-6.29,5.67-8.24,3-2.23,6.66-2.87,10.33-2.6,3.65.27,7.59,1.51,10.45,3.86.46.38.88.79,1.27,1.22,1.33-3.76,3.5-7.16,6.67-9.96,5.52-4.87,14.65-6.77,21.04-2.6,5.46,3.56,6.58,10.11,6.7,16.15Z"/>
          <path class="cls-2" d="M319.9,435.02c-2.67,2.03-5.53,3.64-8.68,4.81-2.93,1.08-6.01,2.14-9.04,2.92-6.32,1.61-13.23,2.13-19.29,3.37-1.42.29-2.9.46-4.29.1-1.02.26-2.12.07-2.91-.87-3.06-3.62-4.35-8-5.59-12.48-1.14-4.13-2.58-8.16-3.54-12.34-1.59-6.9-1.57-13.74,1.14-20.36,2.6-6.34,7.24-11.91,13.91-14.11,3.08-1.02,6.89-1.23,10-.26,3.57,1.11,6.24,3.7,8.18,6.83,1.93,3.11,3.24,7.03,3.03,10.72-.03.6-.12,1.18-.23,1.75,3.82-1.13,7.85-1.38,11.98-.47,7.18,1.6,14.09,7.87,14.48,15.49.33,6.51-4.31,11.26-9.12,14.91Z"/>
          <path class="cls-2" d="M573.05,444.73c.73,3.27,1.02,6.55.77,9.9-.23,3.12-.54,6.36-1.09,9.43-1.15,6.42-3.55,12.92-4.94,18.95-.32,1.41-.78,2.83-1.69,3.95-.18,1.04-.82,1.96-2,2.29-4.57,1.28-9.08.64-13.68-.09-4.23-.67-8.5-1.04-12.7-1.9-6.94-1.41-13.16-4.27-18.05-9.48-4.69-5-7.83-11.52-7.07-18.51.35-3.22,1.74-6.78,3.91-9.21,2.49-2.78,5.96-4.14,9.6-4.61,3.63-.46,7.74-.03,11.01,1.69.53.28,1.02.6,1.49.94.55-3.95,2-7.72,4.54-11.09,4.43-5.87,13-9.56,20.1-6.75,6.06,2.4,8.46,8.59,9.79,14.49Z"/>
          <path class="cls-2" d="M289.93,766.4c-1.69-2.9-2.95-5.93-3.72-9.2-.72-3.04-1.4-6.22-1.81-9.32-.84-6.47-.52-13.39-1.01-19.56-.12-1.44-.11-2.93.42-4.27-.14-1.05.19-2.11,1.22-2.79,3.97-2.6,8.46-3.35,13.07-4.04,4.23-.64,8.42-1.57,12.68-2.03,7.05-.75,13.83.1,20.07,3.59,5.98,3.35,10.94,8.62,12.33,15.51.64,3.18.39,6.98-.95,9.96-1.54,3.41-4.43,5.75-7.76,7.29-3.32,1.54-7.37,2.37-11.01,1.71-.59-.11-1.15-.26-1.7-.44.66,3.93.43,7.96-.98,11.94-2.45,6.94-9.51,13.04-17.12,12.5-6.5-.46-10.66-5.64-13.7-10.86Z"/>
          <path class="cls-2" d="M432.44,587.49c-1.37,3.06-3.1,5.86-5.3,8.39-2.05,2.36-4.24,4.77-6.52,6.91-4.76,4.45-10.58,8.23-15.29,12.23-1.1.94-2.32,1.8-3.71,2.15-.77.72-1.82,1.08-2.97.64-4.43-1.7-7.66-4.92-10.91-8.25-2.99-3.07-6.19-5.92-9.04-9.12-4.72-5.29-7.99-11.29-8.79-18.4-.77-6.81.62-13.92,5.41-19.06,2.21-2.37,5.44-4.39,8.64-5.04,3.66-.74,7.25.24,10.45,2.05,3.18,1.8,6.22,4.61,7.81,7.94.26.54.46,1.09.63,1.64,2.8-2.83,6.22-4.99,10.28-6.17,7.07-2.05,16.14.12,20.14,6.62,3.42,5.55,1.64,11.95-.83,17.46Z"/>
          <path class="cls-2" d="M557.05,95.1c-1.37,3.06-3.1,5.86-5.3,8.39-2.05,2.36-4.24,4.77-6.52,6.91-4.76,4.45-10.58,8.23-15.29,12.23-1.1.94-2.32,1.8-3.71,2.15-.77.72-1.82,1.08-2.97.64-4.43-1.7-7.66-4.92-10.91-8.25-2.99-3.07-6.19-5.92-9.04-9.12-4.72-5.29-7.99-11.29-8.79-18.4-.77-6.81.62-13.92,5.41-19.06,2.21-2.37,5.44-4.39,8.64-5.04,3.66-.74,7.25.24,10.45,2.05,3.18,1.8,6.22,4.61,7.81,7.94.26.54.46,1.09.63,1.64,2.8-2.83,6.22-4.99,10.27-6.17,7.07-2.05,16.14.12,20.14,6.62,3.42,5.55,1.64,11.95-.83,17.46Z"/>
          <path class="cls-2" d="M432.44,327.91c-1.37,3.06-3.1,5.86-5.3,8.39-2.05,2.36-4.24,4.77-6.52,6.91-4.76,4.45-10.58,8.23-15.29,12.23-1.1.94-2.32,1.8-3.71,2.15-.77.72-1.82,1.08-2.97.64-4.43-1.7-7.66-4.92-10.91-8.25-2.99-3.07-6.19-5.92-9.04-9.12-4.72-5.29-7.99-11.29-8.79-18.4-.77-6.81.62-13.92,5.41-19.06,2.21-2.37,5.44-4.39,8.64-5.04,3.66-.74,7.25.24,10.45,2.05,3.18,1.8,6.22,4.61,7.81,7.94.26.54.46,1.09.63,1.64,2.8-2.83,6.22-4.99,10.28-6.17,7.07-2.05,16.14.12,20.14,6.62,3.42,5.55,1.64,11.95-.83,17.46Z"/>
          <path class="cls-2" d="M677.28,161.16c3.35-.1,6.62.23,9.86,1.11,3.02.82,6.14,1.73,9.06,2.85,6.09,2.34,12.02,5.93,17.68,8.42,1.32.58,2.63,1.3,3.56,2.4.99.38,1.77,1.17,1.87,2.4.4,4.73-1.09,9.04-2.67,13.42-1.46,4.03-2.62,8.15-4.26,12.11-2.7,6.55-6.67,12.12-12.72,15.94-5.79,3.66-12.79,5.52-19.51,3.45-3.1-.95-6.33-2.98-8.3-5.58-2.26-2.97-2.95-6.63-2.71-10.3.23-3.65,1.43-7.61,3.74-10.5.37-.47.78-.89,1.2-1.29-3.77-1.29-7.2-3.42-10.03-6.55-4.93-5.46-6.93-14.57-2.84-21.01,3.5-5.5,10.03-6.69,16.07-6.88Z"/>
          <path class="cls-2" d="M723.14,331.61c-1.4-3.05-2.37-6.19-2.83-9.51-.42-3.1-.8-6.33-.91-9.45-.22-6.52.77-13.38.86-19.56.02-1.45.17-2.93.82-4.21-.04-1.05.39-2.08,1.48-2.66,4.2-2.21,8.75-2.53,13.39-2.78,4.28-.23,8.53-.76,12.82-.81,7.09-.07,13.76,1.42,19.64,5.49,5.63,3.9,10.07,9.63,10.79,16.62.33,3.22-.28,6.99-1.9,9.82-1.86,3.24-4.96,5.3-8.43,6.52-3.45,1.21-7.56,1.65-11.12.65-.58-.16-1.12-.37-1.65-.6.29,3.97-.34,7.97-2.12,11.8-3.11,6.67-10.71,12.07-18.24,10.81-6.43-1.08-10.07-6.63-12.6-12.12Z"/>
          <path class="cls-2" d="M795.3,472.42c-1.37,3.06-3.1,5.86-5.3,8.39-2.05,2.36-4.24,4.77-6.52,6.91-4.76,4.45-10.58,8.23-15.29,12.23-1.1.94-2.32,1.8-3.71,2.15-.77.72-1.82,1.08-2.97.64-4.43-1.7-7.66-4.92-10.91-8.25-2.99-3.07-6.19-5.92-9.04-9.12-4.72-5.29-7.99-11.29-8.79-18.4-.77-6.81.62-13.92,5.41-19.06,2.21-2.37,5.44-4.39,8.64-5.04,3.66-.74,7.25.24,10.45,2.05,3.18,1.8,6.22,4.61,7.81,7.94.26.54.46,1.09.63,1.64,2.8-2.83,6.22-4.99,10.27-6.17,7.07-2.05,16.14.12,20.14,6.62,3.42,5.55,1.64,11.95-.83,17.46Z"/>
          <path class="cls-2" d="M630.01,635.49c-1.37,3.06-3.1,5.86-5.3,8.39-2.05,2.36-4.24,4.77-6.52,6.91-4.76,4.45-10.58,8.23-15.29,12.23-1.1.94-2.32,1.8-3.71,2.15-.77.72-1.82,1.08-2.97.64-4.43-1.7-7.66-4.92-10.91-8.25-2.99-3.07-6.19-5.92-9.04-9.12-4.72-5.29-7.99-11.29-8.79-18.4-.77-6.81.62-13.92,5.41-19.06,2.21-2.37,5.44-4.39,8.64-5.04,3.66-.74,7.25.24,10.45,2.05,3.18,1.8,6.22,4.61,7.81,7.94.26.54.46,1.09.63,1.64,2.8-2.83,6.22-4.99,10.28-6.17,7.07-2.05,16.14.12,20.14,6.62,3.42,5.55,1.64,11.95-.83,17.46Z"/>
          <path class="cls-2" d="M312.96,905.69c.19,3.35-.05,6.62-.84,9.89-.74,3.04-1.56,6.19-2.61,9.13-2.18,6.15-5.6,12.18-7.94,17.9-.55,1.34-1.23,2.66-2.31,3.62-.35,1-1.12,1.8-2.35,1.93-4.71.53-9.06-.84-13.48-2.31-4.06-1.35-8.22-2.4-12.22-3.93-6.62-2.52-12.29-6.35-16.28-12.28-3.82-5.69-5.86-12.64-3.98-19.41.87-3.12,2.81-6.41,5.35-8.45,2.91-2.34,6.55-3.12,10.22-2.99,3.66.13,7.65,1.22,10.59,3.46.48.36.91.76,1.32,1.17,1.18-3.81,3.22-7.29,6.28-10.21,5.33-5.08,14.38-7.32,20.93-3.4,5.59,3.35,6.96,9.85,7.31,15.88Z"/>
          <path class="cls-2" d="M835.34,64.94c-1.37,3.06-3.1,5.86-5.3,8.39-2.05,2.36-4.24,4.77-6.52,6.91-4.76,4.45-10.58,8.23-15.29,12.23-1.1.94-2.32,1.8-3.71,2.15-.77.72-1.82,1.08-2.97.64-4.43-1.7-7.66-4.92-10.91-8.25-2.99-3.07-6.19-5.92-9.04-9.12-4.72-5.29-7.99-11.29-8.79-18.4-.77-6.81.62-13.92,5.41-19.06,2.21-2.37,5.44-4.39,8.64-5.04,3.66-.74,7.25.24,10.45,2.05,3.18,1.8,6.22,4.61,7.81,7.94.26.54.46,1.09.63,1.64,2.8-2.83,6.22-4.99,10.27-6.17,7.07-2.05,16.14.12,20.14,6.62,3.42,5.55,1.64,11.95-.83,17.46Z"/>
          <path class="cls-2" d="M748.47,777.15c-3.34.34-6.62.23-9.92-.42-3.07-.6-6.25-1.3-9.23-2.21-6.23-1.91-12.41-5.07-18.23-7.17-1.36-.49-2.71-1.11-3.72-2.15-1.01-.31-1.84-1.04-2.03-2.26-.73-4.69.45-9.09,1.72-13.57,1.17-4.12,2.05-8.31,3.4-12.38,2.23-6.72,5.81-12.55,11.57-16.79,5.52-4.06,12.38-6.4,19.22-4.81,3.16.73,6.52,2.53,8.67,4.99,2.47,2.81,3.4,6.41,3.43,10.09.03,3.66-.89,7.69-3,10.73-.34.49-.72.94-1.11,1.37,3.85,1.02,7.42,2.9,10.47,5.84,5.3,5.1,7.94,14.05,4.3,20.76-3.11,5.73-9.54,7.37-15.55,7.98Z"/>
          <path class="cls-2" d="M558.91,1012.15c-3.23.92-6.48,1.39-9.84,1.32-3.12-.06-6.38-.19-9.48-.56-6.47-.79-13.1-2.83-19.2-3.87-1.43-.24-2.87-.62-4.04-1.47-1.05-.13-2-.71-2.4-1.87-1.54-4.49-1.14-9.03-.67-13.66.43-4.26.56-8.54,1.18-12.79,1.02-7.01,3.53-13.38,8.46-18.55,4.73-4.96,11.07-8.46,18.09-8.09,3.23.17,6.86,1.35,9.41,3.39,2.92,2.33,4.47,5.72,5.14,9.33.66,3.6.47,7.73-1.07,11.09-.25.54-.54,1.05-.85,1.54,3.97.33,7.82,1.56,11.33,3.92,6.11,4.1,10.27,12.45,7.86,19.69-2.06,6.18-8.11,8.93-13.92,10.58Z"/>
          <path class="cls-2" d="M757.28,878.27c1.58,2.96,2.73,6.03,3.38,9.33.61,3.07,1.18,6.27,1.46,9.38.6,6.49.03,13.4.3,19.58.06,1.45,0,2.94-.57,4.26.1,1.05-.27,2.1-1.32,2.74-4.06,2.46-8.58,3.04-13.21,3.56-4.25.48-8.47,1.27-12.75,1.56-7.07.49-13.82-.6-19.93-4.32-5.86-3.56-10.62-9.02-11.75-15.95-.52-3.2-.14-6.99,1.31-9.92,1.66-3.35,4.63-5.58,8.03-7,3.37-1.41,7.45-2.1,11.07-1.31.59.13,1.14.3,1.69.51-.52-3.95-.14-7.97,1.42-11.9,2.71-6.84,9.98-12.68,17.57-11.87,6.48.69,10.45,6.02,13.3,11.35Z"/>
          <path class="cls-2" d="M1067.05,913.55c-1.37,3.06-3.1,5.86-5.3,8.39-2.05,2.36-4.24,4.77-6.52,6.91-4.76,4.45-10.58,8.23-15.29,12.23-1.1.94-2.32,1.8-3.71,2.15-.77.72-1.82,1.08-2.97.64-4.43-1.7-7.66-4.92-10.91-8.25-2.99-3.07-6.19-5.92-9.04-9.12-4.72-5.29-7.99-11.29-8.79-18.4-.77-6.81.62-13.92,5.41-19.06,2.21-2.37,5.44-4.39,8.64-5.04,3.66-.74,7.25.24,10.45,2.05,3.18,1.8,6.22,4.61,7.81,7.94.26.54.46,1.09.63,1.64,2.8-2.83,6.22-4.99,10.28-6.17,7.07-2.05,16.14.12,20.14,6.62,3.42,5.55,1.64,11.95-.83,17.46Z"/>
          <path class="cls-2" d="M633.13,1218.42c-1.42-3.04-2.39-6.18-2.86-9.5-.44-3.09-.83-6.33-.94-9.45-.24-6.52.72-13.38.79-19.57.02-1.45.16-2.93.81-4.22-.04-1.05.38-2.08,1.47-2.66,4.19-2.23,8.74-2.56,13.38-2.83,4.28-.25,8.53-.8,12.81-.85,7.09-.1,13.76,1.37,19.66,5.42,5.65,3.88,10.11,9.59,10.85,16.58.34,3.22-.25,6.99-1.86,9.83-1.84,3.25-4.94,5.32-8.4,6.55-3.45,1.22-7.56,1.68-11.12.69-.58-.16-1.12-.37-1.66-.6.3,3.97-.31,7.97-2.08,11.8-3.08,6.68-10.67,12.11-18.2,10.88-6.43-1.05-10.1-6.59-12.65-12.07Z"/>
          <path class="cls-2" d="M931.84,1016.5c.27,3.34.1,6.62-.61,9.91-.67,3.05-1.42,6.22-2.39,9.19-2.03,6.2-5.31,12.3-7.52,18.08-.52,1.35-1.17,2.69-2.22,3.67-.33,1-1.08,1.82-2.3,1.99-4.7.64-9.08-.63-13.53-1.99-4.1-1.25-8.27-2.21-12.31-3.64-6.68-2.37-12.44-6.06-16.56-11.9-3.95-5.6-6.15-12.5-4.43-19.31.79-3.14,2.66-6.47,5.16-8.57,2.86-2.41,6.47-3.28,10.15-3.23,3.66.05,7.67,1.04,10.67,3.21.49.35.93.73,1.35,1.14,1.1-3.83,3.05-7.37,6.04-10.35,5.21-5.2,14.21-7.66,20.84-3.89,5.67,3.22,7.18,9.69,7.68,15.71Z"/>
          <path class="cls-2" d="M407.95,1089.31c-1.37,3.06-3.1,5.86-5.3,8.39-2.05,2.36-4.24,4.77-6.52,6.91-4.76,4.45-10.58,8.23-15.29,12.23-1.1.94-2.32,1.8-3.71,2.15-.77.72-1.82,1.08-2.97.64-4.43-1.7-7.66-4.92-10.91-8.25-2.99-3.07-6.19-5.92-9.04-9.12-4.72-5.29-7.99-11.29-8.79-18.4-.77-6.81.62-13.92,5.41-19.06,2.21-2.37,5.44-4.39,8.64-5.04,3.66-.74,7.25.24,10.45,2.05,3.18,1.8,6.22,4.61,7.81,7.94.26.54.46,1.09.63,1.64,2.8-2.83,6.22-4.99,10.27-6.17,7.07-2.05,16.14.12,20.14,6.62,3.42,5.55,1.64,11.95-.83,17.46Z"/>
          <path class="cls-2" d="M1202.99,1137c-1.37,3.06-3.1,5.86-5.3,8.39-2.05,2.36-4.24,4.77-6.52,6.91-4.76,4.45-10.58,8.23-15.29,12.23-1.1.94-2.32,1.8-3.71,2.15-.77.72-1.82,1.08-2.97.64-4.43-1.7-7.66-4.92-10.91-8.25-2.99-3.07-6.19-5.92-9.04-9.12-4.72-5.29-7.99-11.29-8.79-18.4-.77-6.81.62-13.92,5.41-19.06,2.21-2.37,5.45-4.39,8.64-5.04,3.66-.74,7.25.24,10.45,2.05,3.18,1.8,6.22,4.61,7.81,7.94.26.54.46,1.09.63,1.64,2.8-2.83,6.22-4.99,10.28-6.17,7.07-2.05,16.14.12,20.14,6.62,3.42,5.55,1.64,11.95-.83,17.46Z"/>
          <path class="cls-2" d="M936.14,171.23c.73,3.27,1.02,6.55.76,9.9-.24,3.12-.55,6.36-1.1,9.43-1.16,6.42-3.56,12.92-4.96,18.95-.33,1.41-.79,2.83-1.69,3.95-.18,1.04-.82,1.95-2,2.29-4.57,1.28-9.08.63-13.68-.1-4.23-.67-8.5-1.05-12.7-1.91-6.94-1.42-13.15-4.28-18.04-9.5-4.69-5-7.82-11.53-7.05-18.52.35-3.22,1.74-6.78,3.92-9.2,2.5-2.78,5.96-4.14,9.61-4.6,3.63-.46,7.74-.03,11.01,1.7.53.28,1.02.6,1.49.94.56-3.95,2-7.72,4.55-11.09,4.44-5.87,13.01-9.55,20.11-6.73,6.06,2.41,8.45,8.6,9.77,14.5Z"/>
          <path class="cls-2" d="M180.6,1068.3c-2.97,1.56-6.06,2.68-9.36,3.31-3.07.58-6.28,1.12-9.39,1.39-6.5.55-13.4-.08-19.58.14-1.45.05-2.93-.02-4.25-.61-1.05.09-2.1-.28-2.73-1.34-2.42-4.08-2.97-8.61-3.46-13.24-.45-4.26-1.2-8.48-1.46-12.76-.43-7.07.72-13.81,4.49-19.89,3.61-5.83,9.1-10.55,16.05-11.62,3.2-.5,7-.08,9.91,1.4,3.33,1.69,5.54,4.68,6.94,8.08,1.39,3.39,2.04,7.47,1.22,11.08-.13.58-.31,1.14-.52,1.68,3.96-.49,7.97-.07,11.89,1.52,6.82,2.76,12.6,10.08,11.72,17.67-.75,6.47-6.11,10.4-11.46,13.2Z"/>
          <path class="cls-2" d="M1094.59,490.87c.15,3.35-.15,6.62-.99,9.88-.78,3.03-1.65,6.16-2.74,9.09-2.27,6.11-5.78,12.09-8.21,17.78-.57,1.33-1.27,2.65-2.36,3.59-.36.99-1.15,1.78-2.37,1.9-4.72.46-9.05-.97-13.45-2.5-4.04-1.41-8.18-2.52-12.17-4.11-6.58-2.62-12.2-6.52-16.1-12.52-3.74-5.75-5.67-12.73-3.69-19.47.91-3.11,2.9-6.36,5.48-8.37,2.95-2.3,6.59-3.03,10.27-2.84,3.65.19,7.63,1.33,10.54,3.61.47.37.9.77,1.3,1.19,1.24-3.79,3.33-7.24,6.43-10.11,5.4-5,14.49-7.11,20.98-3.1,5.54,3.43,6.81,9.95,7.07,15.99Z"/>
          <path class="cls-2" d="M1022.51,1168.55c3.35-.12,6.62.2,9.87,1.06,3.02.8,6.15,1.7,9.07,2.81,6.1,2.31,12.05,5.87,17.72,8.33,1.33.58,2.64,1.29,3.57,2.38.99.37,1.77,1.16,1.88,2.39.42,4.72-1.04,9.04-2.6,13.43-1.44,4.03-2.58,8.16-4.2,12.14-2.67,6.57-6.61,12.15-12.64,16-5.77,3.69-12.77,5.58-19.49,3.55-3.1-.94-6.34-2.95-8.33-5.54-2.28-2.96-2.98-6.62-2.77-10.29.21-3.65,1.39-7.62,3.69-10.52.37-.47.78-.89,1.2-1.29-3.78-1.27-7.22-3.38-10.07-6.5-4.96-5.44-7.01-14.54-2.94-21,3.47-5.52,10-6.74,16.04-6.96Z"/>
          <path class="cls-2" d="M1220.04,338.07c-1.37,3.06-3.1,5.86-5.3,8.39-2.05,2.36-4.24,4.77-6.52,6.91-4.76,4.45-10.58,8.23-15.29,12.23-1.1.94-2.32,1.8-3.71,2.15-.77.72-1.82,1.08-2.97.64-4.43-1.7-7.66-4.92-10.91-8.25-2.99-3.07-6.19-5.92-9.04-9.12-4.72-5.29-7.99-11.29-8.79-18.4-.77-6.81.62-13.92,5.41-19.06,2.21-2.37,5.44-4.39,8.64-5.04,3.66-.74,7.25.24,10.45,2.05,3.18,1.8,6.22,4.61,7.81,7.94.26.54.46,1.09.63,1.64,2.8-2.83,6.22-4.99,10.27-6.17,7.07-2.05,16.14.12,20.14,6.62,3.42,5.55,1.64,11.95-.83,17.46Z"/>
          <path class="cls-2" d="M1254.29,902.19c.07,3.35-.3,6.62-1.22,9.85-.85,3.01-1.8,6.12-2.95,9.03-2.41,6.06-6.06,11.96-8.62,17.58-.6,1.32-1.33,2.62-2.44,3.53-.39.98-1.19,1.75-2.42,1.84-4.73.35-9.03-1.19-13.39-2.82-4.01-1.5-8.12-2.71-12.07-4.39-6.52-2.77-12.04-6.81-15.8-12.9-3.6-5.83-5.37-12.85-3.23-19.55.99-3.09,3.05-6.29,5.67-8.24,3-2.23,6.66-2.87,10.33-2.6,3.65.27,7.59,1.51,10.45,3.86.46.38.88.79,1.27,1.22,1.33-3.76,3.5-7.16,6.67-9.96,5.52-4.87,14.65-6.77,21.04-2.6,5.46,3.56,6.58,10.11,6.7,16.15Z"/>
          <path class="cls-2" d="M942.68,788.51c-2.67,2.03-5.53,3.64-8.68,4.81-2.93,1.08-6.01,2.14-9.04,2.92-6.32,1.61-13.23,2.13-19.29,3.37-1.42.29-2.9.46-4.29.1-1.02.26-2.12.07-2.91-.87-3.06-3.62-4.35-8-5.59-12.48-1.14-4.13-2.58-8.16-3.54-12.34-1.59-6.9-1.57-13.74,1.14-20.36,2.6-6.34,7.24-11.91,13.91-14.11,3.08-1.02,6.89-1.23,10-.26,3.57,1.11,6.24,3.7,8.18,6.83,1.93,3.11,3.24,7.03,3.03,10.72-.03.6-.12,1.18-.23,1.75,3.82-1.13,7.85-1.38,11.98-.47,7.18,1.6,14.09,7.87,14.48,15.49.33,6.51-4.31,11.26-9.12,14.91Z"/>
          <path class="cls-2" d="M905.42,560.63c.74,3.27,1.02,6.55.77,9.9-.23,3.12-.54,6.36-1.09,9.43-1.15,6.42-3.55,12.92-4.94,18.95-.32,1.41-.78,2.83-1.69,3.95-.18,1.04-.82,1.96-2,2.29-4.57,1.28-9.08.64-13.68-.09-4.23-.67-8.5-1.04-12.7-1.9-6.94-1.41-13.16-4.27-18.05-9.48-4.69-5-7.83-11.52-7.07-18.51.35-3.22,1.74-6.78,3.91-9.21,2.49-2.78,5.96-4.14,9.6-4.61,3.63-.46,7.74-.03,11.01,1.69.53.28,1.02.6,1.49.94.55-3.95,2-7.72,4.54-11.09,4.43-5.87,13-9.56,20.1-6.75,6.06,2.4,8.46,8.59,9.79,14.49Z"/>
          <path class="cls-2" d="M188.13,1227.4c-1.69-2.9-2.95-5.93-3.72-9.2-.72-3.04-1.4-6.22-1.81-9.32-.84-6.47-.52-13.39-1.01-19.56-.12-1.44-.11-2.93.42-4.27-.14-1.05.19-2.11,1.22-2.79,3.97-2.6,8.46-3.35,13.07-4.04,4.23-.64,8.42-1.57,12.68-2.03,7.05-.75,13.83.1,20.07,3.59,5.98,3.35,10.94,8.62,12.33,15.51.64,3.18.39,6.98-.95,9.96-1.54,3.41-4.43,5.75-7.76,7.29-3.32,1.54-7.37,2.37-11.01,1.71-.59-.11-1.15-.26-1.7-.44.66,3.93.43,7.96-.98,11.94-2.45,6.94-9.51,13.04-17.12,12.5-6.5-.46-10.66-5.64-13.7-10.86Z"/>
          <path class="cls-2" d="M1118.42,702.49c-1.37,3.06-3.1,5.86-5.3,8.39-2.05,2.36-4.24,4.77-6.52,6.91-4.76,4.45-10.58,8.23-15.29,12.23-1.1.94-2.32,1.8-3.71,2.15-.77.72-1.82,1.08-2.97.64-4.43-1.7-7.66-4.92-10.91-8.25-2.99-3.07-6.19-5.92-9.04-9.12-4.72-5.29-7.99-11.29-8.79-18.4-.77-6.81.62-13.92,5.41-19.06,2.21-2.37,5.44-4.39,8.64-5.04,3.66-.74,7.25.24,10.45,2.05,3.18,1.8,6.22,4.61,7.81,7.94.26.54.46,1.09.63,1.64,2.8-2.83,6.22-4.99,10.27-6.17,7.07-2.05,16.14.12,20.14,6.62,3.42,5.55,1.64,11.95-.83,17.46Z"/>
          <path class="cls-2" d="M554.99,779.43c-.12,3.35-.68,6.59-1.78,9.76-1.02,2.95-2.14,6.01-3.46,8.84-2.75,5.91-6.73,11.59-9.6,17.07-.67,1.28-1.48,2.54-2.64,3.39-.44.96-1.29,1.68-2.52,1.7-4.74.08-8.94-1.7-13.2-3.57-3.92-1.73-7.95-3.17-11.8-5.07-6.35-3.14-11.63-7.48-15.04-13.77-3.26-6.03-4.64-13.14-2.12-19.7,1.16-3.02,3.41-6.11,6.13-7.91,3.12-2.06,6.82-2.49,10.46-2.01,3.63.48,7.5,1.94,10.22,4.44.44.41.83.84,1.2,1.29,1.54-3.68,3.9-6.95,7.22-9.57,5.78-4.55,15.01-5.93,21.16-1.4,5.25,3.86,5.99,10.47,5.77,16.5Z"/>
          <path class="cls-2" d="M211.54,617.64c-1.37,3.06-3.1,5.86-5.3,8.39-2.05,2.36-4.24,4.77-6.52,6.91-4.76,4.45-10.58,8.23-15.29,12.23-1.1.94-2.32,1.8-3.71,2.15-.77.72-1.82,1.08-2.97.64-4.43-1.7-7.66-4.92-10.91-8.25-2.99-3.07-6.19-5.92-9.04-9.12-4.72-5.29-7.99-11.29-8.79-18.4-.77-6.81.62-13.92,5.41-19.06,2.21-2.37,5.44-4.39,8.64-5.04,3.66-.74,7.25.24,10.45,2.05,3.18,1.8,6.22,4.61,7.81,7.94.26.54.46,1.09.63,1.64,2.8-2.83,6.22-4.99,10.28-6.17,7.07-2.05,16.14.12,20.14,6.62,3.42,5.55,1.64,11.95-.83,17.46Z"/>
          <path class="cls-2" d="M1031.78,344.04c-1.37,3.06-3.1,5.86-5.3,8.39-2.05,2.36-4.24,4.77-6.52,6.91-4.76,4.45-10.58,8.23-15.29,12.23-1.1.94-2.32,1.8-3.71,2.15-.77.72-1.82,1.08-2.97.64-4.43-1.7-7.66-4.92-10.91-8.25-2.99-3.07-6.19-5.92-9.04-9.12-4.72-5.29-7.99-11.29-8.79-18.4-.77-6.81.62-13.92,5.41-19.06,2.21-2.37,5.44-4.39,8.64-5.04,3.66-.74,7.25.24,10.45,2.05,3.18,1.8,6.22,4.61,7.81,7.94.26.54.46,1.09.63,1.64,2.8-2.83,6.22-4.99,10.27-6.17,7.07-2.05,16.14.12,20.14,6.62,3.42,5.55,1.64,11.95-.83,17.46Z"/>
          <path class="cls-2" d="M127.56,775.91c-1.37,3.06-3.1,5.86-5.3,8.39-2.05,2.36-4.24,4.77-6.52,6.91-4.76,4.45-10.58,8.23-15.29,12.23-1.1.94-2.32,1.8-3.71,2.15-.77.72-1.82,1.08-2.97.64-4.43-1.7-7.66-4.92-10.91-8.25-2.99-3.07-6.19-5.92-9.04-9.12-4.72-5.29-7.99-11.29-8.79-18.4-.77-6.81.62-13.92,5.41-19.06,2.21-2.37,5.44-4.39,8.64-5.04,3.66-.74,7.25.24,10.45,2.05,3.18,1.8,6.22,4.61,7.81,7.94.26.54.46,1.09.63,1.64,2.8-2.83,6.22-4.99,10.27-6.17,7.07-2.05,16.14.12,20.14,6.62,3.42,5.55,1.64,11.95-.83,17.46Z"/>
          <path class="cls-2" d="M1114.42,139.47c2.85,1.77,5.38,3.86,7.6,6.39,2.06,2.35,4.15,4.84,5.96,7.39,3.77,5.32,6.73,11.59,10.05,16.81.78,1.22,1.47,2.54,1.63,3.97.61.86.82,1.95.23,3.03-2.29,4.16-5.91,6.92-9.65,9.69-3.44,2.55-6.7,5.33-10.25,7.73-5.88,3.96-12.27,6.39-19.42,6.23-6.85-.16-13.71-2.49-18.16-7.93-2.05-2.51-3.62-5.99-3.82-9.25-.24-3.73,1.22-7.15,3.45-10.08,2.21-2.91,5.4-5.54,8.93-6.67.57-.18,1.14-.31,1.71-.41-2.43-3.16-4.1-6.83-4.72-11.01-1.08-7.28,2.3-15.97,9.28-19.07,5.96-2.64,12.06-.01,17.19,3.18Z"/>
          <path class="cls-2" d="M728.21,1072.87c-1.37,3.06-3.1,5.86-5.3,8.39-2.05,2.36-4.24,4.77-6.52,6.91-4.76,4.45-10.58,8.23-15.29,12.23-1.1.94-2.32,1.8-3.71,2.15-.77.72-1.82,1.08-2.97.64-4.43-1.7-7.66-4.92-10.91-8.25-2.99-3.07-6.19-5.92-9.04-9.12-4.72-5.29-7.99-11.29-8.79-18.4-.77-6.81.62-13.92,5.41-19.06,2.21-2.37,5.44-4.39,8.64-5.04,3.66-.74,7.25.24,10.45,2.05,3.18,1.8,6.22,4.61,7.81,7.94.26.54.46,1.09.63,1.64,2.8-2.83,6.22-4.99,10.27-6.17,7.07-2.05,16.14.12,20.14,6.62,3.42,5.55,1.64,11.95-.83,17.46Z"/>
          <path class="cls-2" d="M571.66,241.6c-.28,3.34-.99,6.55-2.24,9.67-1.16,2.9-2.43,5.9-3.88,8.67-3.03,5.77-7.27,11.26-10.41,16.59-.73,1.25-1.6,2.46-2.8,3.26-.49.94-1.37,1.62-2.6,1.58-4.74-.15-8.85-2.12-13.02-4.2-3.83-1.91-7.79-3.55-11.54-5.63-6.2-3.44-11.27-8.03-14.37-14.47-2.97-6.18-4-13.35-1.18-19.78,1.3-2.97,3.69-5.94,6.5-7.6,3.21-1.9,6.93-2.16,10.55-1.51,3.6.65,7.39,2.3,9.99,4.93.42.43.79.88,1.14,1.34,1.71-3.6,4.23-6.76,7.67-9.21,5.99-4.27,15.27-5.21,21.2-.39,5.06,4.11,5.49,10.74,4.98,16.76Z"/>
          <path class="cls-2" d="M473.41,1206.76c-1.37,3.06-3.1,5.86-5.3,8.39-2.05,2.36-4.24,4.77-6.52,6.91-4.76,4.45-10.58,8.23-15.29,12.23-1.1.94-2.32,1.8-3.71,2.15-.77.72-1.82,1.08-2.97.64-4.43-1.7-7.66-4.92-10.91-8.25-2.99-3.07-6.19-5.92-9.04-9.12-4.72-5.29-7.99-11.29-8.79-18.4-.77-6.81.62-13.92,5.41-19.06,2.21-2.37,5.44-4.39,8.64-5.04,3.66-.74,7.25.24,10.45,2.05,3.18,1.8,6.22,4.61,7.81,7.94.26.54.46,1.09.63,1.64,2.8-2.83,6.22-4.99,10.27-6.17,7.07-2.05,16.14.12,20.14,6.62,3.42,5.55,1.64,11.95-.83,17.46Z"/>
        </g>
        <g>
          <path class="cls-2" d="M2.99,1137c-1.37,3.06-3.1,5.86-5.3,8.39-2.05,2.36-4.24,4.77-6.52,6.91-4.76,4.45-10.58,8.23-15.29,12.23-1.1.94-2.32,1.8-3.71,2.15-.77.72-1.82,1.08-2.97.64-4.43-1.7-7.66-4.92-10.91-8.25-2.99-3.07-6.19-5.92-9.04-9.12-4.72-5.29-7.99-11.29-8.79-18.4-.77-6.81.62-13.92,5.41-19.06,2.21-2.37,5.44-4.39,8.64-5.04,3.66-.74,7.25.24,10.45,2.05,3.18,1.8,6.22,4.61,7.81,7.94.26.54.46,1.09.63,1.64,2.8-2.83,6.22-4.99,10.28-6.17,7.07-2.05,16.14.12,20.14,6.62,3.42,5.55,1.64,11.95-.83,17.46Z"/>
          <path class="cls-2" d="M20.04,338.07c-1.37,3.06-3.1,5.86-5.3,8.39-2.05,2.36-4.24,4.77-6.52,6.91-4.76,4.45-10.58,8.23-15.29,12.23-1.1.94-2.32,1.8-3.71,2.15-.77.72-1.82,1.08-2.97.64-4.43-1.7-7.66-4.92-10.91-8.25-2.99-3.07-6.19-5.92-9.04-9.12-4.72-5.29-7.99-11.29-8.79-18.4-.77-6.81.62-13.92,5.41-19.06,2.21-2.37,5.44-4.39,8.64-5.04,3.66-.74,7.25.24,10.45,2.05,3.18,1.8,6.22,4.61,7.81,7.94.26.54.46,1.09.63,1.64,2.8-2.83,6.22-4.99,10.27-6.17,7.07-2.05,16.14.12,20.14,6.62,3.42,5.55,1.64,11.95-.83,17.46Z"/>
          <path class="cls-2" d="M54.29,902.19c.07,3.35-.3,6.62-1.22,9.85-.85,3.01-1.8,6.12-2.95,9.03-2.41,6.06-6.06,11.96-8.62,17.58-.6,1.32-1.33,2.62-2.44,3.53-.39.98-1.19,1.75-2.42,1.84-4.73.35-9.03-1.19-13.39-2.82-4.01-1.5-8.12-2.71-12.07-4.39-6.52-2.77-12.04-6.81-15.8-12.9-3.6-5.83-5.37-12.85-3.23-19.55.99-3.09,3.05-6.29,5.67-8.24,3-2.23,6.66-2.87,10.33-2.6,3.65.27,7.59,1.51,10.45,3.86.46.38.88.79,1.27,1.22,1.33-3.76,3.5-7.16,6.67-9.96,5.52-4.87,14.65-6.77,21.04-2.6,5.46,3.56,6.58,10.11,6.7,16.15Z"/>
        </g>
        <g>
          <path class="cls-2" d="M633.13,18.42c-1.42-3.04-2.39-6.18-2.86-9.5-.44-3.09-.83-6.33-.94-9.45-.24-6.52.72-13.38.79-19.57.02-1.45.16-2.93.81-4.22-.04-1.05.38-2.08,1.47-2.66,4.19-2.23,8.74-2.56,13.38-2.83,4.28-.25,8.53-.8,12.81-.85,7.09-.1,13.76,1.37,19.66,5.42,5.65,3.88,10.11,9.59,10.85,16.58.34,3.22-.25,6.99-1.86,9.83-1.84,3.25-4.94,5.32-8.4,6.55-3.45,1.22-7.56,1.68-11.12.69-.58-.16-1.12-.37-1.66-.6.3,3.97-.31,7.97-2.08,11.8-3.08,6.68-10.67,12.11-18.2,10.88-6.43-1.05-10.1-6.59-12.65-12.07Z"/>
          <path class="cls-2" d="M1022.51-31.45c3.35-.12,6.62.2,9.87,1.06,3.02.8,6.15,1.7,9.07,2.81,6.1,2.31,12.05,5.87,17.72,8.33,1.33.58,2.64,1.29,3.57,2.38.99.37,1.77,1.16,1.88,2.39.42,4.72-1.04,9.04-2.6,13.43-1.44,4.03-2.58,8.16-4.2,12.14-2.67,6.57-6.61,12.15-12.64,16-5.77,3.69-12.77,5.58-19.49,3.55-3.1-.94-6.34-2.95-8.33-5.54-2.28-2.96-2.98-6.62-2.77-10.29.21-3.65,1.39-7.62,3.69-10.52.37-.47.78-.89,1.2-1.29-3.78-1.27-7.22-3.38-10.07-6.5-4.96-5.44-7.01-14.54-2.94-21,3.47-5.52,10-6.74,16.04-6.96Z"/>
          <path class="cls-2" d="M188.13,27.4c-1.69-2.9-2.95-5.93-3.72-9.2-.72-3.04-1.4-6.22-1.81-9.32-.84-6.47-.52-13.39-1.01-19.56-.12-1.44-.11-2.93.42-4.27-.14-1.05.19-2.11,1.22-2.79,3.97-2.6,8.46-3.35,13.07-4.04,4.23-.64,8.42-1.57,12.68-2.03,7.05-.75,13.83.1,20.07,3.59,5.98,3.35,10.94,8.62,12.33,15.51.64,3.18.39,6.98-.95,9.96-1.54,3.41-4.43,5.75-7.76,7.29-3.32,1.54-7.37,2.37-11.01,1.71-.59-.11-1.15-.26-1.7-.44.66,3.93.43,7.96-.98,11.94-2.45,6.94-9.51,13.04-17.12,12.5-6.5-.46-10.66-5.64-13.7-10.86Z"/>
          <path class="cls-2" d="M473.41,6.76c-1.37,3.06-3.1,5.86-5.3,8.39-2.05,2.36-4.24,4.77-6.52,6.91-4.76,4.45-10.58,8.23-15.29,12.23-1.1.94-2.32,1.8-3.71,2.15-.77.72-1.82,1.08-2.97.64-4.43-1.7-7.66-4.92-10.91-8.25-2.99-3.07-6.19-5.92-9.04-9.12-4.72-5.29-7.99-11.29-8.79-18.4-.77-6.81.62-13.92,5.41-19.06,2.21-2.37,5.44-4.39,8.64-5.04,3.66-.74,7.25.24,10.45,2.05,3.18,1.8,6.22,4.61,7.81,7.94.26.54.46,1.09.63,1.64,2.8-2.83,6.22-4.99,10.27-6.17,7.07-2.05,16.14.12,20.14,6.62,3.42,5.55,1.64,11.95-.83,17.46Z"/>
        </g>
      </g>
    </pattern>
  </defs>
  <g id="pattern">
    <rect class="cls-3" width="1200" height="1200"/>
  </g>
</svg>